<mxfile host="app.diagrams.net" modified="2024-04-12T06:24:17.884Z" agent="Mozilla/5.0 (Windows NT 10.0; Win64; x64) AppleWebKit/537.36 (KHTML, like Gecko) Chrome/123.0.0.0 Safari/537.36" etag="kLv2c1GwjBRfKARPh6Bs" version="24.2.3" type="device">
  <diagram name="Page-1" id="c7UpL0nrCHsBlZIViWf7">
    <mxGraphModel dx="1105" dy="549" grid="1" gridSize="10" guides="1" tooltips="1" connect="1" arrows="1" fold="1" page="1" pageScale="1" pageWidth="850" pageHeight="1100" math="0" shadow="0">
      <root>
        <mxCell id="0" />
        <mxCell id="1" parent="0" />
        <mxCell id="tM-sLUK_iXSUUSvi_UQe-11" value="" style="shape=image;verticalLabelPosition=bottom;labelBackgroundColor=default;verticalAlign=top;aspect=fixed;imageAspect=0;image=data:image/png,iVBORw0KGgoAAAANSUhEUgAAAgAAAAIACAYAAAD0eNT6AAAAAXNSR0IArs4c6QAAIABJREFUeAHt3WusZWdZB/CnLVjaUolcrEJqvaQ1KmkqXoKKYAwGNCEB02hRAoJKE1MbqvJBEz+Al2g1Kob4QWtAQkI1wYhiUSuaaOItqFT7obbx0grBVkWoQdPaFueZzEymp90ze87Zz1rPu9/fSppOp3Pe/c5v/dd6/nufc/aJcBAgQIAAAQIECBAgQIAAAQIECBAgQIAAAQIECBAgQIAAAQIECBAgQIAAAQIECBAgQIAAAQIECBAgQIAAAQIECBAgQIAAAQIECBAgQIAAAQIECBAgQIAAAQIECBAgQIAAAQIECBAgQIAAAQIECBAgQIAAAQIECBAgQIAAAQIECBAgQIAAAQIECBAgQIAAAQIECBAgQIAAAQIECBAgQIAAAQIECBAgQIAAAQIECBAgQIAAAQIECBAgQIAAAQJlAk+PiCsj4iURcV1E3BQRN0fEuyLiVv8wkAEZkAEZaJyBnFU5s3J25QzLWZYzLWeb4zSBiyPilRHxzoi4OyL+OyI+7R8GMiADMiADe5iBnHE563Lm5ezLGTjV8ZyIeH1EvC8i/mcPT7ACo8TJgAzIgAxsk4GcgTkLcybmbNzL45kR8QMR8ScR8aihr9nLgAzIgAzIwOMykLMxZ2TOypyZwx9Pi4g3R8R/OdGPO9HbNEN/xjMIGZABGZgzAzkzc3bmDB3uOD8iXnvsZY17DX6DXwZkQAZkQAYOlYGcoTlLc6YOcbzs2Bc3fNjJPtTJ1vbnbPvOu/MuAzJwpgzkTM3Z2va4KiJuN/gNfhmQARmQARkoyUDO2Jy1rY6XR8QnnPCSE36mVuj/edYgAzIgA3NlIGdtztwWR37F4iOGv+EvAzIgAzIgA4tkIGduzt7Vjgsj4h1O9iInW8Ofq+E73863DMjANhnIGZyzeNHjsoj4M8Pf8JcBGZABGZCBVTOQszhn8iLHNRFxnxO+6gnfphn6M55ByIAMyMAcGciZnLO59LgiIh4w/A1/GZABGZABGWiVgZzNOaNLjkt8f3+rk63Zz9HsnWfnWQZkYNsM5PsF5Kze6XFeRLxX21MAZEAGZEAGZKB1BnJW58ze2fEWJ7z1Cd+2HfpznknIgAzIwP5nIGf2To5rI+IxBUABkAEZkAEZkIEhMpAzO2f3kY78qsJPOeFDnHCtfv9bvXPsHMuADGybgZzdh/7OgKdGxN2Gv+EvAzIgAzIgA0NmIGd4zvJzPm5wwoc84du2Q3/OMwkZkAEZ2P8M5Cw/p+NS3+9v+CuAMiADMiADw2cg3x8gZ/rWx4876cOfdM1+/5u9c+wcy4AMbJOBnOlbHc/1hX+GvwIoAzIgAzKwNxnILwjM2X7W4xYnfW9O+jbN0J/xDEIGZEAG9j8DOdvPeDw/IvLnDAsDAxmQARmQARnYnwzkbM8Zv/H4DcNf+ZEBGZABGZCBvcxAzvgnPS7yuf+9POEa/P40eOfSuZQBGThKBvJrAXLWP+F4hcanAMiADMiADMjAXmcgZ/0TDl/8p1kepVn6WPmRARmQgf4ZeMIXA54fEfdrfXvd+lyY/S9M58g5kgEZqM5Azvqc+aeOrzX8DX8ZkAEZkAEZmCIDOfNPHT/tpE9x0qubpfU9e5EBGZCB/hnImX/quEsBUABkQAZkQAZkYIoM5Mw/fnyeEz7FCdfK+7dy58g5kgEZWCoDOfvjRQqAAiADMiADMiADU2UgZ398m5M+1Ulfql16HM9kZEAGZKBvBnL2x5sUAAVABmRABmRABqbKQM7+uNlJn+qka+R9G7lz49zIgAwslYGc/fFuBUABkAEZkAEZkIGpMpCzP/7ISZ/qpC/VLj2OZzIyIAMy0DcDOfvDewD0PUEuHudGBmRABmSgIgPH3wvgQa8AeAVABmRABmRABqbKQM7+Yf7Ct+ZmHQQIECBAoLFAzqqKZ+wVaw6zUQWgceJtjQABAgSOCygABQ1IAXB1ESBAgEB3AQVAAeieUfsjQIAAgQIBBUABKIiVJQkQIECgu4ACoAB0z6j9ESBAgECBgAKgABTEypIECBAg0F1AAVAAumfU/ggQIECgQEABUAAKYmVJAgQIEOguoAAoAN0zan8ECBAgUCCgACgABbGyJAECBAh0F1AAFIDuGbU/AgQIECgQUAAUgIJYWZIAAQIEugsoAApA94zaHwECBAgUCCgACkBBrCxJgAABAt0FFAAFoHtG7Y8AAQIECgQUAAWgIFaWJECAAIHuAgqAAtA9o/ZHgAABAgUCCoACUBArSxIgQIBAdwEFQAHonlH7I0CAAIECAQVAASiIlSUJECBAoLuAAqAAdM+o/REgQIBAgYACoAAUxMqSBAgQINBdQAFQALpn1P4IECBAoEBAAVAACmJlSQIECBDoLqAAKADdM2p/BAgQIFAgoAAoAAWxsiQBAgQIdBdQABSA7hm1PwIECBAoEFAAFICCWFmSAAECBLoLKAAKQPeM2h8BAgQIFAgoAApAQawsSYAAAQLdBRQABaB7Ru2PAAECBAoEFAAFoCBWliRAgACB7gIKgALQPaP2R4AAAQIFAgqAAlAQK0sSIECAQHcBBUAB6J5R+yNAgACBAgEFQAEoiJUlCRAgQKC7gAKgAHTPqP0RIECAQIGAAqAAFMTKkgQIECDQXUABUAC6Z9T+CBAgQKBAQAFQAApiZUkCBAgQ6C6gACgA3TNqfwQIECBQIKAAKAAFsbIkAQIECHQXUAAUgO4ZtT8CBAgQKBBQABSAglhZkgABAgS6CygACkD3jNofAQIECBQIKAAKQEGsLEmAAAEC3QUUAAWge0btjwABAgQKBBQABaAgVpYkQIAAge4CCoAC0D2j9keAAAECBQIKgAJQECtLEiBAgEB3AQVAAeieUfsjQIAAgQIBBUABKIiVJQkQIECgu4ACoAB0z6j9ESBAgECBgAKgABTEypIECBAg0F1AAVAAumfU/ggQIECgQEABUAAKYmVJAgQIEOguoAAoAN0zan8ECBAgUCCgACgABbGyJAECBAh0F1AAFIDuGbU/AgQIECgQUAAUgIJYWZIAAQIEugsoAApA94zaHwECBAgUCCgACkBBrCxJgAABAt0FFAAFoHtG7Y8AAQIECgQUAAWgIFaWJECAAIHuAgqAAtA9o/ZHgAABAgUCCoACUBArSxIgQIBAdwEFQAHonlH7I0CAAIECAQVAASiIlSUJECBAoLuAAqAAdM+o/REgQIBAgYACoAAUxMqSBAgQINBdQAFQALpn1P4IECBAoEBAAVAACmJlSQIECBDoLqAAKADdM2p/BAgQIFAgoAAoAAWxsiQBAgQIdBdQABSA7hm1PwIECBAoEFAAFICCWFmSAAECBLoLKAAKQPeM2h8BAgQIFAgoAApAQawsSYAAAQLdBRQABaB7Ru2PAAECBAoEFAAFoCBWliRAgACB7gIKgALQPaP2R4AAAQIFAgqAAlAQK0sSIECAQHcBBUAB6J5R+yNAgACBAgEFQAEoiJUlCRAgQKC7gAKgAHTPqP0RIECAQIGAAqAAFMTKkgQIECDQXUABUAC6Z9T+CBAgQKBAQAFQAApiZUkCBAgQ6C6gACgA3TNqfwQIECBQIKAAKAAFsbIkAQIECHQXUAAUgO4ZtT8CBAgQKBBQABSAglhZkgABAgS6CygACkD3jNofAQIECBQIKAAKQEGsLEmAAAEC3QUUAAWge0btjwABAgQKBBQABaAgVpYkQIAAge4CCoAC0D2j9keAAAECBQIKgAJQECtLEiBAgEB3AQVAAeieUfsjQIAAgQIBBUABKIiVJQkQIECgu4ACoAB0z6j9ESBAgECBgAKgABTEypIECBAg0F1AAVAAumfU/ggQIECgQEABUAAKYmVJAgQIEOguoAAoAN0zan8ECBAgUCCgACgABbGyJAECBAh0F1AAFIDuGbU/AgQIECgQUAAUgIJYWZIAAQIEugsoAApA94zaHwECBAgUCCgACkBBrCxJgAABAt0FFAAFoHtG7Y8AAQIECgQUAAWgIFaWJECAAIHuAgqAAtA9o/ZHgAABAgUCCoACUBArSxIgQIBAdwEFQAHonlH7I0CAAIECAQVAASiIlSUJECBAoLuAAqAAdM+o/REgQIBAgYACoAAUxMqSBAgQINBdQAFQALpn1P4IECBAoEBAAVAACmJlSQIECBDoLqAAKADdM2p/BAgQIFAgoAAoAAWxsiQBAgQIdBdQABSA7hm1PwIECBAoEFAAFICCWFmSAAECBLoLKAAKQPeM2h8BAgQIFAgoAApAQawsSYAAAQLdBRQABaB7Ru2PAAECBAoEFAAFoCBWliRAgACB7gIKgALQPaP2R4AAAQIFAgqAAlAQK0sSIECAQHcBBUAB6J5R+yNAgACBAgEFQAEoiJUlCRAgQKC7gAKgAHTPqP0RIECAQIGAAqAAFMTKkgQIECDQXUABUAC6Z9T+CBAgQKBAQAFQAApiZUkCBAgQ6C6gACgA3TNqfwQIECBQIKAAKAAFsbIkAQIECHQXUAAUgO4ZtT8CBAgQKBBQABSAglhZkgABAgS6CygACkD3jNofAQIECBQIKAAKQEGsLEmAAAEC3QUUAAWge0btjwABAgQKBBQABaAgVpYkQIAAge4CCoAC0D2j9keAAAECBQIKgAJQECtLEiBAgEB3AQVAAeieUfsjQIAAgQIBBUABKIiVJQkQIECgu4ACoAB0z6j9ESBAgECBgAKgABTEypIECBAg0F1AAVAAumfU/ggQIECgQEABUAAKYmVJAgQIEOguoAAoAN0zan8ECBAgUCCgACgABbGyJAECBAh0F1AAFIDuGbU/AgQIECgQUAAUgIJYWZIAAQIEugsoAApA94zaHwECBAgUCCgACkBBrCxJgAABAt0FFAAFoHtG7Y8AAQIECgQUAAWgIFaWJECAAIHuAgqAAtA9o/ZHgAABAgUCCoACUBArSxIgQIBAdwEFQAHonlH7I0CAAIECAQVAASiIlSUJECBAoLuAAqAAdM+o/REgQIBAgYACoAAUxMqSBAgQINBdQAFQALpn1P4IECBAoEBAAVAACmJlSQIECBDoLqAAKADdM2p/BAgQIFAgoAAoAAWxsiQBAgQIdBdQABSA7hm1PwIECBAoEFAAFICCWFmSAAECBLoLKAAKQPeM2h8BAgQIFAgoAApAQawsSYAAAQLdBRQABaB7Ru2PAAECBAoEFAAFoCBWliRAgACB7gIKgALQPaP2R4AAAQIFAgqAAlAQK0sSIECAQHcBBUAB6J5R+yNAgACBAgEFQAEoiJUlCRAgQKC7gAKgAHTPqP0RIECAQIGAAqAAFMTKkgQIECDQXUABUAC6Z9T+CBAgQKBAQAFQAApiZUkCBAgQ6C6gACgA3TNqfwQIECBQIKAAKAAFsbIkAQIECHQXUAAUgO4ZtT8CBAgQKBBQABSAglhZkgABAgS6CygACkD3jNofAQIECBQIKAAKQEGsLEmAAAEC3QUUAAWge0btjwABAgQKBBQABaAgVpYkQIAAge4CCoAC0D2j9keAAAECBQIKgAJQECtLEiBAgEB3AQVAAeieUfsjQIAAgQIBBUABKIiVJQkQIECgu4ACoAB0z6j9ESBAgECBgAKgABTEypIECBAg0F1AAVAAumfU/ggQIECgQEABUAAKYmVJAgQIEOguoAAoAN0zan8ECBAgUCCgACgABbGyJAECBAh0F1AAFIDuGbU/AgQIECgQUAAUgIJYWZIAAQIEugsoAApA94zaHwECBAgUCCgACkBBrCxJgAABAt0FFAAFoHtG7Y8AAQIECgQUAAWgIFaWJECAAIHuAgqAAtA9o/ZHgAABAgUCCoACUBArSxIgQIBAdwEFQAHonlH7I0CAAIECAQVAASiIlSUJECBAoLuAAqAAdM+o/REgQIBAgYACoAAUxMqSBAgQINBdQAFQALpn1P4IECBAoEBAAVAACmJlSQIECBDoLqAAKADdM2p/BAgQIFAgoAAoAAWxsiQBAgQIdBdQABSA7hm1PwIECBAoEFAAFICCWFmSAAECBLoLKAAKQPeM2h8BAgQIFAgoAApAQawsSYAAAQLdBRQABaB7Ru2PAAECBAoEFAAFoCBWliRAgACB7gIKgALQPaP2R4AAAQIFAgqAAlAQK0sSIECAQHcBBUAB6J5R+yNAgACBAgEFQAEoiJUlCRAgQKC7gAKgAHTPqP0RIECAQIGAAqAAFMTKkgQIECDQXUABUAC6Z9T+CBAgQKBAQAFQAApiZUkCBAgQ6C6gACgA3TNqfwQIECBQIKAAKAAFsbIkAQIECHQXUAAUgO4ZtT8CBAgQKBBQABSAglhZkgABAgS6CygACkD3jNofAQIECBQIKAAKQEGsLEmAAAEC3QUUAAWge0btjwABAgQKBBQABaAgVpYkQIAAge4CCoAC0D2j9keAAAECBQIKgAJQECtLEiBAgEB3AQVAAeieUfsjQIAAgQIBBUABKIiVJQkQIECgu4ACoAB0z6j9ESBAgECBgAKgABTEypIECBAg0F1AAVAAumfU/ggQIECgQEABUAAKYmVJAgQIEOguoAAoAN0zan8ECBAgUCCgACgABbGyJAECBAh0F1AAFIDuGbU/AgQIECgQUAAUgIJYWZIAAQIEugsoAApA94zaHwECBAgUCCgACkBBrCxJgAABAt0FFAAFoHtG7Y8AAQIECgQUgIIC8GlrBoNg4DqQARmQgR1lAOSOIA1nw1kGZEAGZGCkDCgACoAMyIAMyIAMTJgBJ33Ckz5SQ7VXz6hkQAZkoCYDCoACIAMyIAMyIAMTZsBJn/Cka9M1bZorVxmQgZEyoAAoADIgAzIgAzIwYQac9AlP+kgN1V49o5IBGZCBmgwoAAqADMiADMiADEyYASd9wpOuTde0aa5cZUAGRsqAAqAAyIAMyIAMyMCEGXDSJzzpIzVUe/WMSgZkQAZqMqAAKAAyIAMyIAMyMGEGnPQJT7o2XdOmuXKVARkYKQMKgAIgAzIgAzIgAxNmwEmf8KSP1FDt1TMqGZABGajJgAKgAMiADMiADMjAhBlw0ic86dp0TZvmylUGZGCkDCgACoAMyIAMyIAMTJgBJ33Ckz5SQ7VXz6hkQAZkoCYDCoACIAMyIAMyIAMTZsBJn/Cka9M1bbqz62MR8ZcR8a6I+KmIuDEirj3xT/46fy//X/6Z/LOd/y725vzIwG4y4EJ3s5OBPc3AQxHxgYi4PiI+J7Y/8s/mx+TH5hputgxkYD8z4OJ2g5OBPcvAIxHxqxHxvO1n/sY/mWvkWrmmIcBABvYrAy5qNzYZ2KMM/E5EfNnGcX74/5Fr5toGAAMZ2J8MuKDd1GRgDzKQL9V/7+Hn+9YfmY/h0wL7MwAM87nPpZv/Htz8XcRzX8T/FhFft/UIP/ofzMfKx5Q7BjIwdgZcxG5kMjBwBu469jn6y48+0895hXzMfGwDgIEMjJsBF7CbmAwMmoGPR8SV5zy6d/cB+di5BwOAgQyMmQEXrxuYDAyYgfyq/JfubpYfeqXcg+8QGPPmb2g7b27+A978Xbgu3DcdemTv/gNzLzLJQAbGy4AL181LBgbLwB0Rcf7u5/ihV8y95J4MAAYyMFYGXLRuXDIwWAZefuhRXfeBuSc3fwYyMFYGXLRuXDIwUAY+WDfDj7xy7s0AYCAD42TABeumJQMDZeAlRx7TdQvk3tz8GcjAOBlwwbppycAgGbi/2ef+D1aJ/FqA3KMBwEAGxsiAi9UNSwYGycAtByduw//OPbr5M5CBMTLgYnXDkoFBMvCKhgP/4JZyj27+DGRgjAy4WN2wZGCADDwWERcdnLYN/zv3mHs1ABjIQP8MuFDdrGRggAw80HDYb9pS7tXNn4EM9M+AC9XNSgYGyMCHN03bhr+fe3XzZyAD/TPgQnWzkoEBMnBbw0G/aUu5Vzd/BjLQPwM+X+dm5WY9QAbesWnaNvz93KubPwMZ6J2B/Fqd8Pm63ifJReT8ZAbe23DQb9pS7lVuGchA7wwc/7qiv3WxulnJQPsM/Pmmadvw93Ovbv4MZKB3BnL2x++6WN2sZKB9Bu5tOOg3bSn36ubPQAZ6ZyBnf/yKi9XNSgbaZ+DhiDhv08Rt9Pu5x9yrmz8DGeidgZz98RYXq5uVDAyRgRc0GvSbtpJ7dONnIAP9M5CzP653wbphycAQGXjrpqnb6Pdzj27+DGSgfwZy9of37u5/olxMzlFm4O8aDfpNW8k9yisDGeifgeM/W+QrXLBuWDIwTAa+cNPkbfD7uTc3fgYyMEYGcvbHMyLi/1y4blwyMEQG3tZg0G/aQu7NzZ+BDPTPQM78nP3Hjw+6cN24ZGCIDDwUEV9w8sJt9O/cU+7NzZ+BDPTPQM78U8eNLlw3LhkYJgPvPnXl9vlF7smNn4EMjJGBnPmnjitcvG5eMjBMBvI9vL/q1NW7/i9yL7knN38GMjBGBnLmP+7wIzzHOHEuMOcpM3BfRFz2uCt4nf/IPeRe5JKBDIyRgSf90eLeEGiMk+cic55OZiDfc//Cdeb+8UfNx/a+//J4Mo/+PUYWjr8B0MH7hnfwGuPkucicp9MzkJ97P//gxbzAf+dj+ry/LJ6eRb8eIw8b31HUS3ljnEAXmvN0egZ+OyIuXWDon3yIfKx8zNP34Nc8ZKB/BnLGbzx+zEXtpiYDQ2bgzohY4k2C8jHysdzsGcjAeBnIGb/x+MyIeMDF7eYmA0Nm4D8i4juLfmpg/pS/XDsfw42fgQyMl4Gc7Tnjz3jc4AJ3g5OBoTPwNxHxTWe8ys/tf+ZauaabPgMZGDcDOdvPejz1WNO/x8XuZicDw2fgDyPidRHxzLNe9U/8A/kx+bG5hps+AxkYOwM503O2b3Vc66J305OBvcnAIxHxxxFxU0R8S0RcExGffeJTBfnSfv46fy//X/6Z/LP5MW76DGRgPzKQM/2cDt/fux8n3gXsPG7KQP5AED8ITD425cPv70c2cpaf8/EizwA8A5IBGZABGZCBoTOQs/xQx3uc+KFPvAa/Hw3eeXQeZUAGDpOBnOGHPi6JiDuUACVABmRABmRABobKQM7unOFHOj4/Iv7diR/qxB+mKfoYzzBkQAZkYD8ykDM7Z/dOjhdHxMNKgBIgAzIgAzIgA60zkLM6Z/ZOjzc66a1Puua+H83deXQeZUAGjpKBnNUlx9uVACVABmRABmRABlpmIGd02fGUiLjdiW954o/SGH2sZxwyIAMyMHYGcjbnjC49Ljz2U8fepQQoATIgAzIgAzLQIgM5k3M2L3a8OSIedfJbnHzNfezm7vw5fzIgA4fJQM7gnMWrHPne4Z9UApQAGZABGZABGVg0Azl7cwavenyJnx646Ek/TEv0MZ5dyIAMyMD+ZCB/ul/O3hbHZ/niQCVA+5cBGZABGSjPQH6xX87cVscFEfHdEfFRASgPgCa/P03euXQuZUAGtslAztacsTlr2x4XH3vXwB/xtQFKgCIoAzIgAzJw5Azk5/pzpuZsHeZ4dkT8orcQPvLJ36YZ+jOeQciADMjAfmUg39I3Z2jO0mGPLzr2xQq/HhGPaYLKgAzIgAzIgAycMQM5K3Nm5uzcm+N5EfF9EfEHXhU448nX4verxTufzqcMyMDZMpDP9nM25ozMWbnXxzMi4tUnWs6D2qBCIAMyIAMyMFkGcvblM/2chTkTpzw+IyJeHhFvjYhbIuK2iLgjIvLnGfu0geZ8tubs/8uIDMhA1wzkDMtZljMtZ1vOuJx1OfNy9jnOIJBAV0TE10TEt0bEdf5hsOMMPDTZs46uN8o19pU3Z/cUBrvOQM6qnFk5uwz5Mwx4/4vAmgL5k7PWGDwes4/709cMoMcmQIAAgXUEnqMATF+ALl8neh6VAAECBNYUuEoBmL4AXL1mAD02AQIECKwj8EIFYPoC8A3rRM+jEiBAgMCaAt+sAExfAF61ZgA9NgECBAisI/AdCsD0BeAN60TPoxIgQIDAmgI3KADTF4AfXDOAHpsAAQIE1hH4UQVg+gLwE+tEz6MSIECAwJoCP68ATF8AfmnNAHpsAgQIEFhH4J0KwPQF4D3rRM+jEiBAgMCaAu9TAKYvAL+/ZgA9NgECBAisI/CnCsD0BeCv1omeRyVAgACBNQXuVACmLwD3rBlAj02AAAEC6wh8TAGYvgB8fJ3oeVQCBAgQWEvgUsN/+uF/8qcyPmutEHpcAgQIEFhe4KsVAAXgRAa+fvn4eUQCBAgQWEvguxQABeBEBq5fK4QelwABAgSWF7hZAVAATmTgbcvHzyMSIECAwFoC71cAFIATGbh9rRB6XAIECBBYXuCfFAAF4EQGPrJ8/DwiAQIECKwhcHFEPKYAKACnZeAZawTRYxIgQIDAsgIvOO3Gf/Jbwfw7pi4EL1w2gh6NAAECBNYQeI0CMPWwf7Ky94Y1gugxCRAgQGBZgZ9UABSAAxn42WUj6NEIECBAYA2B3zpw83+yZ4R+b65PCdy2RhA9JgECBAgsK3C3AuAVgAMZ+JdlI+jRCBAgQGBpgQsj4pEDN3/P9ud6tv9k5zu/K+SSpcPo8QgQIEBgOYGrDX/P/jdk4CuXi6FHIkCAAIGlBa7bcPN/smeFfm+uVwZeu3QYPR4BAgQILCfgOwDmGurnUuJ+ZrkYeiQCBAgQWFrgL7wC4FMAGzLw10uH0eMRIECAwDIC+XavvgDQKwCbXhXILwR89jJR9CgECBAgsKTAKzc889s0EPz+fGXh25cMpMciQIAAgWUE3q4AePn/LBm4ZZkoehQCBAgQWFLgrrPc/D3jn+8Z/8Fzfu+SgfRYBAgQIFAvcLnh79n/lhm4qj6OHoEAAQIElhJ4/ZY3/4PPCP33fK8K3LBUKD0OAQIECNQL/KYC4BWALTPwe/Vx9AgECBAgsITAsyLioS1v/p7xz/eM/+A5z28V/dwlgukxCBAgQKBW4PsNf8/+zzEDP1QbSasTIECAwBICHzrHm//BZ4T+e75XBf7k6ZT0AAAFC0lEQVR+iWB6DAIECBCoE3i+4e/Z/yEz8OV1sbQyAQIECFQL5A948QyewWEy8AvV4bQ+AQIECNQIXBARH1MAFKBDZuD+iHhKTTStSoAAAQKVAt773zP/wzzzP/1jXlUZUGsTIECAwO4FzouIDx/ymd/pA8Cv5y4RmaHMkoMAAQIEBhG4zvD30v+OMvDqQTJvmwQIEJheID9ve/eObv5eAZj7FYA8//f4WoDp7ykACBAYROB7DH/P/necgTcOkn3bJECAwLQCF0bEv+745u9VAK8CfCQinjbtVeUvToAAgQEEbjL8PfsvyoC3Bx7gBmCLBAjMKXBlRHyy6ObvVQCvAjwYEV8856Xlb02AAIG+Ahf5tj/P/Bcof/kzAi7uexnYGQECBOYTuGWBm79XAbwKkBn4tfkuL39jAgQI9BR4neHv2f/CGcjvNHEQIECAwIoC+dP+PrXwzd8rAV4J+N+IuGbF3HtoAgQITC3w3Ij4B8Pfs/+VMvCPEXH51FegvzwBAgRWEMhn/vetdOP3CoBXAE5m4KMRcfUK+feQBAgQmFLgGyPiE4a/Z/5NMpDfevrSKa9Ef2kCBAgsJHBBRNwYEQ83ufGffBbo314RyExmNjOjDgIECBDYocDLIuJOg9+z/uYZyIxmVh0ECBAgcASBfDb14oj4QPObvlcAvAJwMAOZ2cyuVwSOcAPwoQQIzCNwXkRcFhHXRcS7I+I/DX7P+AfPQGY4s5yZzmxnxh0ECBCYUiCfEX1pRLwmIn4uIt4fER+KiPxpaz6375n0wWfS+/bfmfHMemY+s5/XQF4LeU14tWDKW6K/NIH9F7g0In7Zm/Z4Rj/4M/rKQpJvaJXXSF4rDgIECOyFQH4u9J/d+A1/GdgqA3mt5DXjIECAwNACPxwRj7rxb3Xjr3x2ae2xPr2S10xeOw4CBAgMKZDPYgz/sQaPotDnfOW145WAIW99Nk1gboH8PKaX/fsME4N9zHOR15CvCZj7XupvT2A4gfxiJkOHgQwcPQN5LTkIECAwhEB+O5Mf0Xv0G7/hyTAzkNeSbxEc4tZnkwQI5Pc0G14MZGB3GchrykGAAIH2AvnGJm7+DGRgdxnIa8pBgACB9gL57mZu/gxkYHcZyGvKQYAAgfYCCsDubvyGKMvMgALQ/rZngwQIpIBPARhaistuM+BTAO6tBAgMIeCLAHd78zdMefoiwCFufTZJgIBvAzSwlJbdZcC3AbqnEiAwlIA3AtrdADBM57b0RkBD3fpslgABbwU899BSWnZz/r0VsHspAQJDCvhhQLsZAobpnI5+GNCQtz2bJkDgpIAfBzzn8FJajnbe/Tjgk3cQ/yZAYGiBfCXATwY82kAwUOfxy2vFjwEe+pZn8wQInC6QXxOQX8zkhwTNM8iUlnM713lt5DXix/+efufwawIE9kYgv0Uwv6c539gk393sVv8wmDgDeQ3ktZDXhJ/4tze3OX8RAgQIECBAgAABAgQIECBAgAABAgQIECBAgAABAgQIECBAgAABAgQIECBAgAABAgQIECBAgAABAgQIECBAgAABAgQIECBAgAABAgQIECBAgAABAgQIECBAgAABAgQIECBAgAABAgQIECBAgAABAgQIECBAgAABAgQIECBAgAABAgQIECBAgAABAgQIECBAgAABAgQIECBAgAABAgQIECBAgAABAgQIECBAgAABAgQIECBAgAABAgQIECBAYFGB/weYp6W9gz/P9AAAAABJRU5ErkJggg==;" vertex="1" parent="1">
          <mxGeometry x="320" y="160" width="40" height="40" as="geometry" />
        </mxCell>
        <mxCell id="tM-sLUK_iXSUUSvi_UQe-12" value="" style="shape=image;verticalLabelPosition=bottom;labelBackgroundColor=default;verticalAlign=top;aspect=fixed;imageAspect=0;image=data:image/png,iVBORw0KGgoAAAANSUhEUgAAAgAAAAIACAYAAAD0eNT6AAAAAXNSR0IArs4c6QAAIABJREFUeAHt3WusZWdZB/CnLVjaUolcrEJqvaQ1KmkqXoKKYAwGNCEB02hRAoJKE1MbqvJBEz+Al2g1Kob4QWtAQkI1wYhiUSuaaOItqFT7obbx0grBVkWoQdPaFueZzEymp90ze87Zz1rPu9/fSppOp3Pe/c5v/dd6/nufc/aJcBAgQIAAAQIECBAgQIAAAQIECBAgQIAAAQIECBAgQIAAAQIECBAgQIAAAQIECBAgQIAAAQIECBAgQIAAAQIECBAgQIAAAQIECBAgQIAAAQIECBAgQIAAAQIECBAgQIAAAQIECBAgQIAAAQIECBAgQIAAAQIECBAgQIAAAQIECBAgQIAAAQIECBAgQIAAAQIECBAgQIAAAQIECBAgQIAAAQIECBAgQIAAAQIECBAgQIAAAQIECBAgQIAAAQJlAk+PiCsj4iURcV1E3BQRN0fEuyLiVv8wkAEZkAEZaJyBnFU5s3J25QzLWZYzLWeb4zSBiyPilRHxzoi4OyL+OyI+7R8GMiADMiADe5iBnHE563Lm5ezLGTjV8ZyIeH1EvC8i/mcPT7ACo8TJgAzIgAxsk4GcgTkLcybmbNzL45kR8QMR8ScR8aihr9nLgAzIgAzIwOMykLMxZ2TOypyZwx9Pi4g3R8R/OdGPO9HbNEN/xjMIGZABGZgzAzkzc3bmDB3uOD8iXnvsZY17DX6DXwZkQAZkQAYOlYGcoTlLc6YOcbzs2Bc3fNjJPtTJ1vbnbPvOu/MuAzJwpgzkTM3Z2va4KiJuN/gNfhmQARmQARkoyUDO2Jy1rY6XR8QnnPCSE36mVuj/edYgAzIgA3NlIGdtztwWR37F4iOGv+EvAzIgAzIgA4tkIGduzt7Vjgsj4h1O9iInW8Ofq+E73863DMjANhnIGZyzeNHjsoj4M8Pf8JcBGZABGZCBVTOQszhn8iLHNRFxnxO+6gnfphn6M55ByIAMyMAcGciZnLO59LgiIh4w/A1/GZABGZABGWiVgZzNOaNLjkt8f3+rk63Zz9HsnWfnWQZkYNsM5PsF5Kze6XFeRLxX21MAZEAGZEAGZKB1BnJW58ze2fEWJ7z1Cd+2HfpznknIgAzIwP5nIGf2To5rI+IxBUABkAEZkAEZkIEhMpAzO2f3kY78qsJPOeFDnHCtfv9bvXPsHMuADGybgZzdh/7OgKdGxN2Gv+EvAzIgAzIgA0NmIGd4zvJzPm5wwoc84du2Q3/OMwkZkAEZ2P8M5Cw/p+NS3+9v+CuAMiADMiADw2cg3x8gZ/rWx4876cOfdM1+/5u9c+wcy4AMbJOBnOlbHc/1hX+GvwIoAzIgAzKwNxnILwjM2X7W4xYnfW9O+jbN0J/xDEIGZEAG9j8DOdvPeDw/IvLnDAsDAxmQARmQARnYnwzkbM8Zv/H4DcNf+ZEBGZABGZCBvcxAzvgnPS7yuf+9POEa/P40eOfSuZQBGThKBvJrAXLWP+F4hcanAMiADMiADMjAXmcgZ/0TDl/8p1kepVn6WPmRARmQgf4ZeMIXA54fEfdrfXvd+lyY/S9M58g5kgEZqM5Azvqc+aeOrzX8DX8ZkAEZkAEZmCIDOfNPHT/tpE9x0qubpfU9e5EBGZCB/hnImX/quEsBUABkQAZkQAZkYIoM5Mw/fnyeEz7FCdfK+7dy58g5kgEZWCoDOfvjRQqAAiADMiADMiADU2UgZ398m5M+1Ulfql16HM9kZEAGZKBvBnL2x5sUAAVABmRABmRABqbKQM7+uNlJn+qka+R9G7lz49zIgAwslYGc/fFuBUABkAEZkAEZkIGpMpCzP/7ISZ/qpC/VLj2OZzIyIAMy0DcDOfvDewD0PUEuHudGBmRABmSgIgPH3wvgQa8AeAVABmRABmRABqbKQM7+Yf7Ct+ZmHQQIECBAoLFAzqqKZ+wVaw6zUQWgceJtjQABAgSOCygABQ1IAXB1ESBAgEB3AQVAAeieUfsjQIAAgQIBBUABKIiVJQkQIECgu4ACoAB0z6j9ESBAgECBgAKgABTEypIECBAg0F1AAVAAumfU/ggQIECgQEABUAAKYmVJAgQIEOguoAAoAN0zan8ECBAgUCCgACgABbGyJAECBAh0F1AAFIDuGbU/AgQIECgQUAAUgIJYWZIAAQIEugsoAApA94zaHwECBAgUCCgACkBBrCxJgAABAt0FFAAFoHtG7Y8AAQIECgQUAAWgIFaWJECAAIHuAgqAAtA9o/ZHgAABAgUCCoACUBArSxIgQIBAdwEFQAHonlH7I0CAAIECAQVAASiIlSUJECBAoLuAAqAAdM+o/REgQIBAgYACoAAUxMqSBAgQINBdQAFQALpn1P4IECBAoEBAAVAACmJlSQIECBDoLqAAKADdM2p/BAgQIFAgoAAoAAWxsiQBAgQIdBdQABSA7hm1PwIECBAoEFAAFICCWFmSAAECBLoLKAAKQPeM2h8BAgQIFAgoAApAQawsSYAAAQLdBRQABaB7Ru2PAAECBAoEFAAFoCBWliRAgACB7gIKgALQPaP2R4AAAQIFAgqAAlAQK0sSIECAQHcBBUAB6J5R+yNAgACBAgEFQAEoiJUlCRAgQKC7gAKgAHTPqP0RIECAQIGAAqAAFMTKkgQIECDQXUABUAC6Z9T+CBAgQKBAQAFQAApiZUkCBAgQ6C6gACgA3TNqfwQIECBQIKAAKAAFsbIkAQIECHQXUAAUgO4ZtT8CBAgQKBBQABSAglhZkgABAgS6CygACkD3jNofAQIECBQIKAAKQEGsLEmAAAEC3QUUAAWge0btjwABAgQKBBQABaAgVpYkQIAAge4CCoAC0D2j9keAAAECBQIKgAJQECtLEiBAgEB3AQVAAeieUfsjQIAAgQIBBUABKIiVJQkQIECgu4ACoAB0z6j9ESBAgECBgAKgABTEypIECBAg0F1AAVAAumfU/ggQIECgQEABUAAKYmVJAgQIEOguoAAoAN0zan8ECBAgUCCgACgABbGyJAECBAh0F1AAFIDuGbU/AgQIECgQUAAUgIJYWZIAAQIEugsoAApA94zaHwECBAgUCCgACkBBrCxJgAABAt0FFAAFoHtG7Y8AAQIECgQUAAWgIFaWJECAAIHuAgqAAtA9o/ZHgAABAgUCCoACUBArSxIgQIBAdwEFQAHonlH7I0CAAIECAQVAASiIlSUJECBAoLuAAqAAdM+o/REgQIBAgYACoAAUxMqSBAgQINBdQAFQALpn1P4IECBAoEBAAVAACmJlSQIECBDoLqAAKADdM2p/BAgQIFAgoAAoAAWxsiQBAgQIdBdQABSA7hm1PwIECBAoEFAAFICCWFmSAAECBLoLKAAKQPeM2h8BAgQIFAgoAApAQawsSYAAAQLdBRQABaB7Ru2PAAECBAoEFAAFoCBWliRAgACB7gIKgALQPaP2R4AAAQIFAgqAAlAQK0sSIECAQHcBBUAB6J5R+yNAgACBAgEFQAEoiJUlCRAgQKC7gAKgAHTPqP0RIECAQIGAAqAAFMTKkgQIECDQXUABUAC6Z9T+CBAgQKBAQAFQAApiZUkCBAgQ6C6gACgA3TNqfwQIECBQIKAAKAAFsbIkAQIECHQXUAAUgO4ZtT8CBAgQKBBQABSAglhZkgABAgS6CygACkD3jNofAQIECBQIKAAKQEGsLEmAAAEC3QUUAAWge0btjwABAgQKBBQABaAgVpYkQIAAge4CCoAC0D2j9keAAAECBQIKgAJQECtLEiBAgEB3AQVAAeieUfsjQIAAgQIBBUABKIiVJQkQIECgu4ACoAB0z6j9ESBAgECBgAKgABTEypIECBAg0F1AAVAAumfU/ggQIECgQEABUAAKYmVJAgQIEOguoAAoAN0zan8ECBAgUCCgACgABbGyJAECBAh0F1AAFIDuGbU/AgQIECgQUAAUgIJYWZIAAQIEugsoAApA94zaHwECBAgUCCgACkBBrCxJgAABAt0FFAAFoHtG7Y8AAQIECgQUAAWgIFaWJECAAIHuAgqAAtA9o/ZHgAABAgUCCoACUBArSxIgQIBAdwEFQAHonlH7I0CAAIECAQVAASiIlSUJECBAoLuAAqAAdM+o/REgQIBAgYACoAAUxMqSBAgQINBdQAFQALpn1P4IECBAoEBAAVAACmJlSQIECBDoLqAAKADdM2p/BAgQIFAgoAAoAAWxsiQBAgQIdBdQABSA7hm1PwIECBAoEFAAFICCWFmSAAECBLoLKAAKQPeM2h8BAgQIFAgoAApAQawsSYAAAQLdBRQABaB7Ru2PAAECBAoEFAAFoCBWliRAgACB7gIKgALQPaP2R4AAAQIFAgqAAlAQK0sSIECAQHcBBUAB6J5R+yNAgACBAgEFQAEoiJUlCRAgQKC7gAKgAHTPqP0RIECAQIGAAqAAFMTKkgQIECDQXUABUAC6Z9T+CBAgQKBAQAFQAApiZUkCBAgQ6C6gACgA3TNqfwQIECBQIKAAKAAFsbIkAQIECHQXUAAUgO4ZtT8CBAgQKBBQABSAglhZkgABAgS6CygACkD3jNofAQIECBQIKAAKQEGsLEmAAAEC3QUUAAWge0btjwABAgQKBBQABaAgVpYkQIAAge4CCoAC0D2j9keAAAECBQIKgAJQECtLEiBAgEB3AQVAAeieUfsjQIAAgQIBBUABKIiVJQkQIECgu4ACoAB0z6j9ESBAgECBgAKgABTEypIECBAg0F1AAVAAumfU/ggQIECgQEABUAAKYmVJAgQIEOguoAAoAN0zan8ECBAgUCCgACgABbGyJAECBAh0F1AAFIDuGbU/AgQIECgQUAAUgIJYWZIAAQIEugsoAApA94zaHwECBAgUCCgACkBBrCxJgAABAt0FFAAFoHtG7Y8AAQIECgQUAAWgIFaWJECAAIHuAgqAAtA9o/ZHgAABAgUCCoACUBArSxIgQIBAdwEFQAHonlH7I0CAAIECAQVAASiIlSUJECBAoLuAAqAAdM+o/REgQIBAgYACoAAUxMqSBAgQINBdQAFQALpn1P4IECBAoEBAAVAACmJlSQIECBDoLqAAKADdM2p/BAgQIFAgoAAoAAWxsiQBAgQIdBdQABSA7hm1PwIECBAoEFAAFICCWFmSAAECBLoLKAAKQPeM2h8BAgQIFAgoAApAQawsSYAAAQLdBRQABaB7Ru2PAAECBAoEFAAFoCBWliRAgACB7gIKgALQPaP2R4AAAQIFAgqAAlAQK0sSIECAQHcBBUAB6J5R+yNAgACBAgEFQAEoiJUlCRAgQKC7gAKgAHTPqP0RIECAQIGAAqAAFMTKkgQIECDQXUABUAC6Z9T+CBAgQKBAQAFQAApiZUkCBAgQ6C6gACgA3TNqfwQIECBQIKAAKAAFsbIkAQIECHQXUAAUgO4ZtT8CBAgQKBBQABSAglhZkgABAgS6CygACkD3jNofAQIECBQIKAAKQEGsLEmAAAEC3QUUAAWge0btjwABAgQKBBQABaAgVpYkQIAAge4CCoAC0D2j9keAAAECBQIKgAJQECtLEiBAgEB3AQVAAeieUfsjQIAAgQIBBUABKIiVJQkQIECgu4ACoAB0z6j9ESBAgECBgAKgABTEypIECBAg0F1AAVAAumfU/ggQIECgQEABUAAKYmVJAgQIEOguoAAoAN0zan8ECBAgUCCgACgABbGyJAECBAh0F1AAFIDuGbU/AgQIECgQUAAUgIJYWZIAAQIEugsoAApA94zaHwECBAgUCCgACkBBrCxJgAABAt0FFAAFoHtG7Y8AAQIECgQUAAWgIFaWJECAAIHuAgqAAtA9o/ZHgAABAgUCCoACUBArSxIgQIBAdwEFQAHonlH7I0CAAIECAQVAASiIlSUJECBAoLuAAqAAdM+o/REgQIBAgYACoAAUxMqSBAgQINBdQAFQALpn1P4IECBAoEBAAVAACmJlSQIECBDoLqAAKADdM2p/BAgQIFAgoAAoAAWxsiQBAgQIdBdQABSA7hm1PwIECBAoEFAAFICCWFmSAAECBLoLKAAKQPeM2h8BAgQIFAgoAApAQawsSYAAAQLdBRQABaB7Ru2PAAECBAoEFAAFoCBWliRAgACB7gIKgALQPaP2R4AAAQIFAgqAAlAQK0sSIECAQHcBBUAB6J5R+yNAgACBAgEFQAEoiJUlCRAgQKC7gAKgAHTPqP0RIECAQIGAAqAAFMTKkgQIECDQXUABUAC6Z9T+CBAgQKBAQAFQAApiZUkCBAgQ6C6gACgA3TNqfwQIECBQIKAAKAAFsbIkAQIECHQXUAAUgO4ZtT8CBAgQKBBQABSAglhZkgABAgS6CygACkD3jNofAQIECBQIKAAKQEGsLEmAAAEC3QUUAAWge0btjwABAgQKBBQABaAgVpYkQIAAge4CCoAC0D2j9keAAAECBQIKgAJQECtLEiBAgEB3AQVAAeieUfsjQIAAgQIBBUABKIiVJQkQIECgu4ACoAB0z6j9ESBAgECBgAKgABTEypIECBAg0F1AAVAAumfU/ggQIECgQEABUAAKYmVJAgQIEOguoAAoAN0zan8ECBAgUCCgACgABbGyJAECBAh0F1AAFIDuGbU/AgQIECgQUAAUgIJYWZIAAQIEugsoAApA94zaHwECBAgUCCgACkBBrCxJgAABAt0FFAAFoHtG7Y8AAQIECgQUgIIC8GlrBoNg4DqQARmQgR1lAOSOIA1nw1kGZEAGZGCkDCgACoAMyIAMyIAMTJgBJ33Ckz5SQ7VXz6hkQAZkoCYDCoACIAMyIAMyIAMTZsBJn/Cka9M1bZorVxmQgZEyoAAoADIgAzIgAzIwYQac9AlP+kgN1V49o5IBGZCBmgwoAAqADMiADMiADEyYASd9wpOuTde0aa5cZUAGRsqAAqAAyIAMyIAMyMCEGXDSJzzpIzVUe/WMSgZkQAZqMqAAKAAyIAMyIAMyMGEGnPQJT7o2XdOmuXKVARkYKQMKgAIgAzIgAzIgAxNmwEmf8KSP1FDt1TMqGZABGajJgAKgAMiADMiADMjAhBlw0ic86dp0TZvmylUGZGCkDCgACoAMyIAMyIAMTJgBJ33Ckz5SQ7VXz6hkQAZkoCYDCoACIAMyIAMyIAMTZsBJn/Cka9M1bbqz62MR8ZcR8a6I+KmIuDEirj3xT/46fy//X/6Z/LOd/y725vzIwG4y4EJ3s5OBPc3AQxHxgYi4PiI+J7Y/8s/mx+TH5hputgxkYD8z4OJ2g5OBPcvAIxHxqxHxvO1n/sY/mWvkWrmmIcBABvYrAy5qNzYZ2KMM/E5EfNnGcX74/5Fr5toGAAMZ2J8MuKDd1GRgDzKQL9V/7+Hn+9YfmY/h0wL7MwAM87nPpZv/Htz8XcRzX8T/FhFft/UIP/ofzMfKx5Q7BjIwdgZcxG5kMjBwBu469jn6y48+0895hXzMfGwDgIEMjJsBF7CbmAwMmoGPR8SV5zy6d/cB+di5BwOAgQyMmQEXrxuYDAyYgfyq/JfubpYfeqXcg+8QGPPmb2g7b27+A978Xbgu3DcdemTv/gNzLzLJQAbGy4AL181LBgbLwB0Rcf7u5/ihV8y95J4MAAYyMFYGXLRuXDIwWAZefuhRXfeBuSc3fwYyMFYGXLRuXDIwUAY+WDfDj7xy7s0AYCAD42TABeumJQMDZeAlRx7TdQvk3tz8GcjAOBlwwbppycAgGbi/2ef+D1aJ/FqA3KMBwEAGxsiAi9UNSwYGycAtByduw//OPbr5M5CBMTLgYnXDkoFBMvCKhgP/4JZyj27+DGRgjAy4WN2wZGCADDwWERcdnLYN/zv3mHs1ABjIQP8MuFDdrGRggAw80HDYb9pS7tXNn4EM9M+AC9XNSgYGyMCHN03bhr+fe3XzZyAD/TPgQnWzkoEBMnBbw0G/aUu5Vzd/BjLQPwM+X+dm5WY9QAbesWnaNvz93KubPwMZ6J2B/Fqd8Pm63ifJReT8ZAbe23DQb9pS7lVuGchA7wwc/7qiv3WxulnJQPsM/Pmmadvw93Ovbv4MZKB3BnL2x++6WN2sZKB9Bu5tOOg3bSn36ubPQAZ6ZyBnf/yKi9XNSgbaZ+DhiDhv08Rt9Pu5x9yrmz8DGeidgZz98RYXq5uVDAyRgRc0GvSbtpJ7dONnIAP9M5CzP653wbphycAQGXjrpqnb6Pdzj27+DGSgfwZy9of37u5/olxMzlFm4O8aDfpNW8k9yisDGeifgeM/W+QrXLBuWDIwTAa+cNPkbfD7uTc3fgYyMEYGcvbHMyLi/1y4blwyMEQG3tZg0G/aQu7NzZ+BDPTPQM78nP3Hjw+6cN24ZGCIDDwUEV9w8sJt9O/cU+7NzZ+BDPTPQM78U8eNLlw3LhkYJgPvPnXl9vlF7smNn4EMjJGBnPmnjitcvG5eMjBMBvI9vL/q1NW7/i9yL7knN38GMjBGBnLmP+7wIzzHOHEuMOcpM3BfRFz2uCt4nf/IPeRe5JKBDIyRgSf90eLeEGiMk+cic55OZiDfc//Cdeb+8UfNx/a+//J4Mo/+PUYWjr8B0MH7hnfwGuPkucicp9MzkJ97P//gxbzAf+dj+ry/LJ6eRb8eIw8b31HUS3ljnEAXmvN0egZ+OyIuXWDon3yIfKx8zNP34Nc8ZKB/BnLGbzx+zEXtpiYDQ2bgzohY4k2C8jHysdzsGcjAeBnIGb/x+MyIeMDF7eYmA0Nm4D8i4juLfmpg/pS/XDsfw42fgQyMl4Gc7Tnjz3jc4AJ3g5OBoTPwNxHxTWe8ys/tf+ZauaabPgMZGDcDOdvPejz1WNO/x8XuZicDw2fgDyPidRHxzLNe9U/8A/kx+bG5hps+AxkYOwM503O2b3Vc66J305OBvcnAIxHxxxFxU0R8S0RcExGffeJTBfnSfv46fy//X/6Z/LP5MW76DGRgPzKQM/2cDt/fux8n3gXsPG7KQP5AED8ITD425cPv70c2cpaf8/EizwA8A5IBGZABGZCBoTOQs/xQx3uc+KFPvAa/Hw3eeXQeZUAGDpOBnOGHPi6JiDuUACVABmRABmRABobKQM7unOFHOj4/Iv7diR/qxB+mKfoYzzBkQAZkYD8ykDM7Z/dOjhdHxMNKgBIgAzIgAzIgA60zkLM6Z/ZOjzc66a1Puua+H83deXQeZUAGjpKBnNUlx9uVACVABmRABmRABlpmIGd02fGUiLjdiW954o/SGH2sZxwyIAMyMHYGcjbnjC49Ljz2U8fepQQoATIgAzIgAzLQIgM5k3M2L3a8OSIedfJbnHzNfezm7vw5fzIgA4fJQM7gnMWrHPne4Z9UApQAGZABGZABGVg0Azl7cwavenyJnx646Ek/TEv0MZ5dyIAMyMD+ZCB/ul/O3hbHZ/niQCVA+5cBGZABGSjPQH6xX87cVscFEfHdEfFRASgPgCa/P03euXQuZUAGtslAztacsTlr2x4XH3vXwB/xtQFKgCIoAzIgAzJw5Azk5/pzpuZsHeZ4dkT8orcQPvLJ36YZ+jOeQciADMjAfmUg39I3Z2jO0mGPLzr2xQq/HhGPaYLKgAzIgAzIgAycMQM5K3Nm5uzcm+N5EfF9EfEHXhU448nX4verxTufzqcMyMDZMpDP9nM25ozMWbnXxzMi4tUnWs6D2qBCIAMyIAMyMFkGcvblM/2chTkTpzw+IyJeHhFvjYhbIuK2iLgjIvLnGfu0geZ8tubs/8uIDMhA1wzkDMtZljMtZ1vOuJx1OfNy9jnOIJBAV0TE10TEt0bEdf5hsOMMPDTZs46uN8o19pU3Z/cUBrvOQM6qnFk5uwz5Mwx4/4vAmgL5k7PWGDwes4/709cMoMcmQIAAgXUEnqMATF+ALl8neh6VAAECBNYUuEoBmL4AXL1mAD02AQIECKwj8EIFYPoC8A3rRM+jEiBAgMCaAt+sAExfAF61ZgA9NgECBAisI/AdCsD0BeAN60TPoxIgQIDAmgI3KADTF4AfXDOAHpsAAQIE1hH4UQVg+gLwE+tEz6MSIECAwJoCP68ATF8AfmnNAHpsAgQIEFhH4J0KwPQF4D3rRM+jEiBAgMCaAu9TAKYvAL+/ZgA9NgECBAisI/CnCsD0BeCv1omeRyVAgACBNQXuVACmLwD3rBlAj02AAAEC6wh8TAGYvgB8fJ3oeVQCBAgQWEvgUsN/+uF/8qcyPmutEHpcAgQIEFhe4KsVAAXgRAa+fvn4eUQCBAgQWEvguxQABeBEBq5fK4QelwABAgSWF7hZAVAATmTgbcvHzyMSIECAwFoC71cAFIATGbh9rRB6XAIECBBYXuCfFAAF4EQGPrJ8/DwiAQIECKwhcHFEPKYAKACnZeAZawTRYxIgQIDAsgIvOO3Gf/Jbwfw7pi4EL1w2gh6NAAECBNYQeI0CMPWwf7Ky94Y1gugxCRAgQGBZgZ9UABSAAxn42WUj6NEIECBAYA2B3zpw83+yZ4R+b65PCdy2RhA9JgECBAgsK3C3AuAVgAMZ+JdlI+jRCBAgQGBpgQsj4pEDN3/P9ud6tv9k5zu/K+SSpcPo8QgQIEBgOYGrDX/P/jdk4CuXi6FHIkCAAIGlBa7bcPN/smeFfm+uVwZeu3QYPR4BAgQILCfgOwDmGurnUuJ+ZrkYeiQCBAgQWFrgL7wC4FMAGzLw10uH0eMRIECAwDIC+XavvgDQKwCbXhXILwR89jJR9CgECBAgsKTAKzc889s0EPz+fGXh25cMpMciQIAAgWUE3q4AePn/LBm4ZZkoehQCBAgQWFLgrrPc/D3jn+8Z/8Fzfu+SgfRYBAgQIFAvcLnh79n/lhm4qj6OHoEAAQIElhJ4/ZY3/4PPCP33fK8K3LBUKD0OAQIECNQL/KYC4BWALTPwe/Vx9AgECBAgsITAsyLioS1v/p7xz/eM/+A5z28V/dwlgukxCBAgQKBW4PsNf8/+zzEDP1QbSasTIECAwBICHzrHm//BZ4T+e75XBf7k6ZT0AAAFC0lEQVR+iWB6DAIECBCoE3i+4e/Z/yEz8OV1sbQyAQIECFQL5A948QyewWEy8AvV4bQ+AQIECNQIXBARH1MAFKBDZuD+iHhKTTStSoAAAQKVAt773zP/wzzzP/1jXlUZUGsTIECAwO4FzouIDx/ymd/pA8Cv5y4RmaHMkoMAAQIEBhG4zvD30v+OMvDqQTJvmwQIEJheID9ve/eObv5eAZj7FYA8//f4WoDp7ykACBAYROB7DH/P/necgTcOkn3bJECAwLQCF0bEv+745u9VAK8CfCQinjbtVeUvToAAgQEEbjL8PfsvyoC3Bx7gBmCLBAjMKXBlRHyy6ObvVQCvAjwYEV8856Xlb02AAIG+Ahf5tj/P/Bcof/kzAi7uexnYGQECBOYTuGWBm79XAbwKkBn4tfkuL39jAgQI9BR4neHv2f/CGcjvNHEQIECAwIoC+dP+PrXwzd8rAV4J+N+IuGbF3HtoAgQITC3w3Ij4B8Pfs/+VMvCPEXH51FegvzwBAgRWEMhn/vetdOP3CoBXAE5m4KMRcfUK+feQBAgQmFLgGyPiE4a/Z/5NMpDfevrSKa9Ef2kCBAgsJHBBRNwYEQ83ufGffBbo314RyExmNjOjDgIECBDYocDLIuJOg9+z/uYZyIxmVh0ECBAgcASBfDb14oj4QPObvlcAvAJwMAOZ2cyuVwSOcAPwoQQIzCNwXkRcFhHXRcS7I+I/DX7P+AfPQGY4s5yZzmxnxh0ECBCYUiCfEX1pRLwmIn4uIt4fER+KiPxpaz6375n0wWfS+/bfmfHMemY+s5/XQF4LeU14tWDKW6K/NIH9F7g0In7Zm/Z4Rj/4M/rKQpJvaJXXSF4rDgIECOyFQH4u9J/d+A1/GdgqA3mt5DXjIECAwNACPxwRj7rxb3Xjr3x2ae2xPr2S10xeOw4CBAgMKZDPYgz/sQaPotDnfOW145WAIW99Nk1gboH8PKaX/fsME4N9zHOR15CvCZj7XupvT2A4gfxiJkOHgQwcPQN5LTkIECAwhEB+O5Mf0Xv0G7/hyTAzkNeSbxEc4tZnkwQI5Pc0G14MZGB3GchrykGAAIH2AvnGJm7+DGRgdxnIa8pBgACB9gL57mZu/gxkYHcZyGvKQYAAgfYCCsDubvyGKMvMgALQ/rZngwQIpIBPARhaistuM+BTAO6tBAgMIeCLAHd78zdMefoiwCFufTZJgIBvAzSwlJbdZcC3AbqnEiAwlIA3AtrdADBM57b0RkBD3fpslgABbwU899BSWnZz/r0VsHspAQJDCvhhQLsZAobpnI5+GNCQtz2bJkDgpIAfBzzn8FJajnbe/Tjgk3cQ/yZAYGiBfCXATwY82kAwUOfxy2vFjwEe+pZn8wQInC6QXxOQX8zkhwTNM8iUlnM713lt5DXix/+efufwawIE9kYgv0Uwv6c539gk393sVv8wmDgDeQ3ktZDXhJ/4tze3OX8RAgQIECBAgAABAgQIECBAgAABAgQIECBAgAABAgQIECBAgAABAgQIECBAgAABAgQIECBAgAABAgQIECBAgAABAgQIECBAgAABAgQIECBAgAABAgQIECBAgAABAgQIECBAgAABAgQIECBAgAABAgQIECBAgAABAgQIECBAgAABAgQIECBAgAABAgQIECBAgAABAgQIECBAgAABAgQIECBAgAABAgQIECBAgAABAgQIECBAgAABAgQIECBAYFGB/weYp6W9gz/P9AAAAABJRU5ErkJggg==;" vertex="1" parent="1">
          <mxGeometry x="400" y="120" width="40" height="40" as="geometry" />
        </mxCell>
        <mxCell id="tM-sLUK_iXSUUSvi_UQe-13" value="" style="shape=image;verticalLabelPosition=bottom;labelBackgroundColor=default;verticalAlign=top;aspect=fixed;imageAspect=0;image=data:image/png,iVBORw0KGgoAAAANSUhEUgAAAgAAAAIACAYAAAD0eNT6AAAAAXNSR0IArs4c6QAAIABJREFUeAHt3WusZWdZB/CnLVjaUolcrEJqvaQ1KmkqXoKKYAwGNCEB02hRAoJKE1MbqvJBEz+Al2g1Kob4QWtAQkI1wYhiUSuaaOItqFT7obbx0grBVkWoQdPaFueZzEymp90ze87Zz1rPu9/fSppOp3Pe/c5v/dd6/nufc/aJcBAgQIAAAQIECBAgQIAAAQIECBAgQIAAAQIECBAgQIAAAQIECBAgQIAAAQIECBAgQIAAAQIECBAgQIAAAQIECBAgQIAAAQIECBAgQIAAAQIECBAgQIAAAQIECBAgQIAAAQIECBAgQIAAAQIECBAgQIAAAQIECBAgQIAAAQIECBAgQIAAAQIECBAgQIAAAQIECBAgQIAAAQIECBAgQIAAAQIECBAgQIAAAQIECBAgQIAAAQIECBAgQIAAAQJlAk+PiCsj4iURcV1E3BQRN0fEuyLiVv8wkAEZkAEZaJyBnFU5s3J25QzLWZYzLWeb4zSBiyPilRHxzoi4OyL+OyI+7R8GMiADMiADe5iBnHE563Lm5ezLGTjV8ZyIeH1EvC8i/mcPT7ACo8TJgAzIgAxsk4GcgTkLcybmbNzL45kR8QMR8ScR8aihr9nLgAzIgAzIwOMykLMxZ2TOypyZwx9Pi4g3R8R/OdGPO9HbNEN/xjMIGZABGZgzAzkzc3bmDB3uOD8iXnvsZY17DX6DXwZkQAZkQAYOlYGcoTlLc6YOcbzs2Bc3fNjJPtTJ1vbnbPvOu/MuAzJwpgzkTM3Z2va4KiJuN/gNfhmQARmQARkoyUDO2Jy1rY6XR8QnnPCSE36mVuj/edYgAzIgA3NlIGdtztwWR37F4iOGv+EvAzIgAzIgA4tkIGduzt7Vjgsj4h1O9iInW8Ofq+E73863DMjANhnIGZyzeNHjsoj4M8Pf8JcBGZABGZCBVTOQszhn8iLHNRFxnxO+6gnfphn6M55ByIAMyMAcGciZnLO59LgiIh4w/A1/GZABGZABGWiVgZzNOaNLjkt8f3+rk63Zz9HsnWfnWQZkYNsM5PsF5Kze6XFeRLxX21MAZEAGZEAGZKB1BnJW58ze2fEWJ7z1Cd+2HfpznknIgAzIwP5nIGf2To5rI+IxBUABkAEZkAEZkIEhMpAzO2f3kY78qsJPOeFDnHCtfv9bvXPsHMuADGybgZzdh/7OgKdGxN2Gv+EvAzIgAzIgA0NmIGd4zvJzPm5wwoc84du2Q3/OMwkZkAEZ2P8M5Cw/p+NS3+9v+CuAMiADMiADw2cg3x8gZ/rWx4876cOfdM1+/5u9c+wcy4AMbJOBnOlbHc/1hX+GvwIoAzIgAzKwNxnILwjM2X7W4xYnfW9O+jbN0J/xDEIGZEAG9j8DOdvPeDw/IvLnDAsDAxmQARmQARnYnwzkbM8Zv/H4DcNf+ZEBGZABGZCBvcxAzvgnPS7yuf+9POEa/P40eOfSuZQBGThKBvJrAXLWP+F4hcanAMiADMiADMjAXmcgZ/0TDl/8p1kepVn6WPmRARmQgf4ZeMIXA54fEfdrfXvd+lyY/S9M58g5kgEZqM5Azvqc+aeOrzX8DX8ZkAEZkAEZmCIDOfNPHT/tpE9x0qubpfU9e5EBGZCB/hnImX/quEsBUABkQAZkQAZkYIoM5Mw/fnyeEz7FCdfK+7dy58g5kgEZWCoDOfvjRQqAAiADMiADMiADU2UgZ398m5M+1Ulfql16HM9kZEAGZKBvBnL2x5sUAAVABmRABmRABqbKQM7+uNlJn+qka+R9G7lz49zIgAwslYGc/fFuBUABkAEZkAEZkIGpMpCzP/7ISZ/qpC/VLj2OZzIyIAMy0DcDOfvDewD0PUEuHudGBmRABmSgIgPH3wvgQa8AeAVABmRABmRABqbKQM7+Yf7Ct+ZmHQQIECBAoLFAzqqKZ+wVaw6zUQWgceJtjQABAgSOCygABQ1IAXB1ESBAgEB3AQVAAeieUfsjQIAAgQIBBUABKIiVJQkQIECgu4ACoAB0z6j9ESBAgECBgAKgABTEypIECBAg0F1AAVAAumfU/ggQIECgQEABUAAKYmVJAgQIEOguoAAoAN0zan8ECBAgUCCgACgABbGyJAECBAh0F1AAFIDuGbU/AgQIECgQUAAUgIJYWZIAAQIEugsoAApA94zaHwECBAgUCCgACkBBrCxJgAABAt0FFAAFoHtG7Y8AAQIECgQUAAWgIFaWJECAAIHuAgqAAtA9o/ZHgAABAgUCCoACUBArSxIgQIBAdwEFQAHonlH7I0CAAIECAQVAASiIlSUJECBAoLuAAqAAdM+o/REgQIBAgYACoAAUxMqSBAgQINBdQAFQALpn1P4IECBAoEBAAVAACmJlSQIECBDoLqAAKADdM2p/BAgQIFAgoAAoAAWxsiQBAgQIdBdQABSA7hm1PwIECBAoEFAAFICCWFmSAAECBLoLKAAKQPeM2h8BAgQIFAgoAApAQawsSYAAAQLdBRQABaB7Ru2PAAECBAoEFAAFoCBWliRAgACB7gIKgALQPaP2R4AAAQIFAgqAAlAQK0sSIECAQHcBBUAB6J5R+yNAgACBAgEFQAEoiJUlCRAgQKC7gAKgAHTPqP0RIECAQIGAAqAAFMTKkgQIECDQXUABUAC6Z9T+CBAgQKBAQAFQAApiZUkCBAgQ6C6gACgA3TNqfwQIECBQIKAAKAAFsbIkAQIECHQXUAAUgO4ZtT8CBAgQKBBQABSAglhZkgABAgS6CygACkD3jNofAQIECBQIKAAKQEGsLEmAAAEC3QUUAAWge0btjwABAgQKBBQABaAgVpYkQIAAge4CCoAC0D2j9keAAAECBQIKgAJQECtLEiBAgEB3AQVAAeieUfsjQIAAgQIBBUABKIiVJQkQIECgu4ACoAB0z6j9ESBAgECBgAKgABTEypIECBAg0F1AAVAAumfU/ggQIECgQEABUAAKYmVJAgQIEOguoAAoAN0zan8ECBAgUCCgACgABbGyJAECBAh0F1AAFIDuGbU/AgQIECgQUAAUgIJYWZIAAQIEugsoAApA94zaHwECBAgUCCgACkBBrCxJgAABAt0FFAAFoHtG7Y8AAQIECgQUAAWgIFaWJECAAIHuAgqAAtA9o/ZHgAABAgUCCoACUBArSxIgQIBAdwEFQAHonlH7I0CAAIECAQVAASiIlSUJECBAoLuAAqAAdM+o/REgQIBAgYACoAAUxMqSBAgQINBdQAFQALpn1P4IECBAoEBAAVAACmJlSQIECBDoLqAAKADdM2p/BAgQIFAgoAAoAAWxsiQBAgQIdBdQABSA7hm1PwIECBAoEFAAFICCWFmSAAECBLoLKAAKQPeM2h8BAgQIFAgoAApAQawsSYAAAQLdBRQABaB7Ru2PAAECBAoEFAAFoCBWliRAgACB7gIKgALQPaP2R4AAAQIFAgqAAlAQK0sSIECAQHcBBUAB6J5R+yNAgACBAgEFQAEoiJUlCRAgQKC7gAKgAHTPqP0RIECAQIGAAqAAFMTKkgQIECDQXUABUAC6Z9T+CBAgQKBAQAFQAApiZUkCBAgQ6C6gACgA3TNqfwQIECBQIKAAKAAFsbIkAQIECHQXUAAUgO4ZtT8CBAgQKBBQABSAglhZkgABAgS6CygACkD3jNofAQIECBQIKAAKQEGsLEmAAAEC3QUUAAWge0btjwABAgQKBBQABaAgVpYkQIAAge4CCoAC0D2j9keAAAECBQIKgAJQECtLEiBAgEB3AQVAAeieUfsjQIAAgQIBBUABKIiVJQkQIECgu4ACoAB0z6j9ESBAgECBgAKgABTEypIECBAg0F1AAVAAumfU/ggQIECgQEABUAAKYmVJAgQIEOguoAAoAN0zan8ECBAgUCCgACgABbGyJAECBAh0F1AAFIDuGbU/AgQIECgQUAAUgIJYWZIAAQIEugsoAApA94zaHwECBAgUCCgACkBBrCxJgAABAt0FFAAFoHtG7Y8AAQIECgQUAAWgIFaWJECAAIHuAgqAAtA9o/ZHgAABAgUCCoACUBArSxIgQIBAdwEFQAHonlH7I0CAAIECAQVAASiIlSUJECBAoLuAAqAAdM+o/REgQIBAgYACoAAUxMqSBAgQINBdQAFQALpn1P4IECBAoEBAAVAACmJlSQIECBDoLqAAKADdM2p/BAgQIFAgoAAoAAWxsiQBAgQIdBdQABSA7hm1PwIECBAoEFAAFICCWFmSAAECBLoLKAAKQPeM2h8BAgQIFAgoAApAQawsSYAAAQLdBRQABaB7Ru2PAAECBAoEFAAFoCBWliRAgACB7gIKgALQPaP2R4AAAQIFAgqAAlAQK0sSIECAQHcBBUAB6J5R+yNAgACBAgEFQAEoiJUlCRAgQKC7gAKgAHTPqP0RIECAQIGAAqAAFMTKkgQIECDQXUABUAC6Z9T+CBAgQKBAQAFQAApiZUkCBAgQ6C6gACgA3TNqfwQIECBQIKAAKAAFsbIkAQIECHQXUAAUgO4ZtT8CBAgQKBBQABSAglhZkgABAgS6CygACkD3jNofAQIECBQIKAAKQEGsLEmAAAEC3QUUAAWge0btjwABAgQKBBQABaAgVpYkQIAAge4CCoAC0D2j9keAAAECBQIKgAJQECtLEiBAgEB3AQVAAeieUfsjQIAAgQIBBUABKIiVJQkQIECgu4ACoAB0z6j9ESBAgECBgAKgABTEypIECBAg0F1AAVAAumfU/ggQIECgQEABUAAKYmVJAgQIEOguoAAoAN0zan8ECBAgUCCgACgABbGyJAECBAh0F1AAFIDuGbU/AgQIECgQUAAUgIJYWZIAAQIEugsoAApA94zaHwECBAgUCCgACkBBrCxJgAABAt0FFAAFoHtG7Y8AAQIECgQUAAWgIFaWJECAAIHuAgqAAtA9o/ZHgAABAgUCCoACUBArSxIgQIBAdwEFQAHonlH7I0CAAIECAQVAASiIlSUJECBAoLuAAqAAdM+o/REgQIBAgYACoAAUxMqSBAgQINBdQAFQALpn1P4IECBAoEBAAVAACmJlSQIECBDoLqAAKADdM2p/BAgQIFAgoAAoAAWxsiQBAgQIdBdQABSA7hm1PwIECBAoEFAAFICCWFmSAAECBLoLKAAKQPeM2h8BAgQIFAgoAApAQawsSYAAAQLdBRQABaB7Ru2PAAECBAoEFAAFoCBWliRAgACB7gIKgALQPaP2R4AAAQIFAgqAAlAQK0sSIECAQHcBBUAB6J5R+yNAgACBAgEFQAEoiJUlCRAgQKC7gAKgAHTPqP0RIECAQIGAAqAAFMTKkgQIECDQXUABUAC6Z9T+CBAgQKBAQAFQAApiZUkCBAgQ6C6gACgA3TNqfwQIECBQIKAAKAAFsbIkAQIECHQXUAAUgO4ZtT8CBAgQKBBQABSAglhZkgABAgS6CygACkD3jNofAQIECBQIKAAKQEGsLEmAAAEC3QUUAAWge0btjwABAgQKBBQABaAgVpYkQIAAge4CCoAC0D2j9keAAAECBQIKgAJQECtLEiBAgEB3AQVAAeieUfsjQIAAgQIBBUABKIiVJQkQIECgu4ACoAB0z6j9ESBAgECBgAKgABTEypIECBAg0F1AAVAAumfU/ggQIECgQEABUAAKYmVJAgQIEOguoAAoAN0zan8ECBAgUCCgACgABbGyJAECBAh0F1AAFIDuGbU/AgQIECgQUAAUgIJYWZIAAQIEugsoAApA94zaHwECBAgUCCgACkBBrCxJgAABAt0FFAAFoHtG7Y8AAQIECgQUAAWgIFaWJECAAIHuAgqAAtA9o/ZHgAABAgUCCoACUBArSxIgQIBAdwEFQAHonlH7I0CAAIECAQVAASiIlSUJECBAoLuAAqAAdM+o/REgQIBAgYACoAAUxMqSBAgQINBdQAFQALpn1P4IECBAoEBAAVAACmJlSQIECBDoLqAAKADdM2p/BAgQIFAgoAAoAAWxsiQBAgQIdBdQABSA7hm1PwIECBAoEFAAFICCWFmSAAECBLoLKAAKQPeM2h8BAgQIFAgoAApAQawsSYAAAQLdBRQABaB7Ru2PAAECBAoEFAAFoCBWliRAgACB7gIKgALQPaP2R4AAAQIFAgqAAlAQK0sSIECAQHcBBUAB6J5R+yNAgACBAgEFQAEoiJUlCRAgQKC7gAKgAHTPqP0RIECAQIGAAqAAFMTKkgQIECDQXUABUAC6Z9T+CBAgQKBAQAFQAApiZUkCBAgQ6C6gACgA3TNqfwQIECBQIKAAKAAFsbIkAQIECHQXUAAUgO4ZtT8CBAgQKBBQABSAglhZkgABAgS6CygACkD3jNofAQIECBQIKAAKQEGsLEmAAAEC3QUUAAWge0btjwABAgQKBBQABaAgVpYkQIAAge4CCoAC0D2j9keAAAECBQIKgAJQECtLEiBAgEB3AQVAAeieUfsjQIAAgQIBBUABKIiVJQkQIECgu4ACoAB0z6j9ESBAgECBgAKgABTEypIECBAg0F1AAVAAumfU/ggQIECgQEABUAAKYmVJAgQIEOguoAAoAN0zan8ECBAgUCCgACgABbGyJAECBAh0F1AAFIDuGbU/AgQIECgQUAAUgIJYWZIAAQIEugsoAApA94zaHwECBAgUCCgACkBBrCxJgAABAt0FFAAFoHtG7Y8AAQIECgQUgIIC8GlrBoNg4DqQARmQgR1lAOSOIA1nw1kGZEAGZGCkDCgACoAMyIAMyIAMTJgBJ33Ckz5SQ7VXz6hkQAZkoCYDCoACIAMyIAMyIAMTZsBJn/Cka9M1bZorVxmQgZEyoAAoADIgAzIgAzIwYQac9AlP+kgN1V49o5IBGZCBmgwoAAqADMiADMiADEyYASd9wpOuTde0aa5cZUAGRsqAAqAAyIAMyIAMyMCEGXDSJzzpIzVUe/WMSgZkQAZqMqAAKAAyIAMyIAMyMGEGnPQJT7o2XdOmuXKVARkYKQMKgAIgAzIgAzIgAxNmwEmf8KSP1FDt1TMqGZABGajJgAKgAMiADMiADMjAhBlw0ic86dp0TZvmylUGZGCkDCgACoAMyIAMyIAMTJgBJ33Ckz5SQ7VXz6hkQAZkoCYDCoACIAMyIAMyIAMTZsBJn/Cka9M1bbqz62MR8ZcR8a6I+KmIuDEirj3xT/46fy//X/6Z/LOd/y725vzIwG4y4EJ3s5OBPc3AQxHxgYi4PiI+J7Y/8s/mx+TH5hputgxkYD8z4OJ2g5OBPcvAIxHxqxHxvO1n/sY/mWvkWrmmIcBABvYrAy5qNzYZ2KMM/E5EfNnGcX74/5Fr5toGAAMZ2J8MuKDd1GRgDzKQL9V/7+Hn+9YfmY/h0wL7MwAM87nPpZv/Htz8XcRzX8T/FhFft/UIP/ofzMfKx5Q7BjIwdgZcxG5kMjBwBu469jn6y48+0895hXzMfGwDgIEMjJsBF7CbmAwMmoGPR8SV5zy6d/cB+di5BwOAgQyMmQEXrxuYDAyYgfyq/JfubpYfeqXcg+8QGPPmb2g7b27+A978Xbgu3DcdemTv/gNzLzLJQAbGy4AL181LBgbLwB0Rcf7u5/ihV8y95J4MAAYyMFYGXLRuXDIwWAZefuhRXfeBuSc3fwYyMFYGXLRuXDIwUAY+WDfDj7xy7s0AYCAD42TABeumJQMDZeAlRx7TdQvk3tz8GcjAOBlwwbppycAgGbi/2ef+D1aJ/FqA3KMBwEAGxsiAi9UNSwYGycAtByduw//OPbr5M5CBMTLgYnXDkoFBMvCKhgP/4JZyj27+DGRgjAy4WN2wZGCADDwWERcdnLYN/zv3mHs1ABjIQP8MuFDdrGRggAw80HDYb9pS7tXNn4EM9M+AC9XNSgYGyMCHN03bhr+fe3XzZyAD/TPgQnWzkoEBMnBbw0G/aUu5Vzd/BjLQPwM+X+dm5WY9QAbesWnaNvz93KubPwMZ6J2B/Fqd8Pm63ifJReT8ZAbe23DQb9pS7lVuGchA7wwc/7qiv3WxulnJQPsM/Pmmadvw93Ovbv4MZKB3BnL2x++6WN2sZKB9Bu5tOOg3bSn36ubPQAZ6ZyBnf/yKi9XNSgbaZ+DhiDhv08Rt9Pu5x9yrmz8DGeidgZz98RYXq5uVDAyRgRc0GvSbtpJ7dONnIAP9M5CzP653wbphycAQGXjrpqnb6Pdzj27+DGSgfwZy9of37u5/olxMzlFm4O8aDfpNW8k9yisDGeifgeM/W+QrXLBuWDIwTAa+cNPkbfD7uTc3fgYyMEYGcvbHMyLi/1y4blwyMEQG3tZg0G/aQu7NzZ+BDPTPQM78nP3Hjw+6cN24ZGCIDDwUEV9w8sJt9O/cU+7NzZ+BDPTPQM78U8eNLlw3LhkYJgPvPnXl9vlF7smNn4EMjJGBnPmnjitcvG5eMjBMBvI9vL/q1NW7/i9yL7knN38GMjBGBnLmP+7wIzzHOHEuMOcpM3BfRFz2uCt4nf/IPeRe5JKBDIyRgSf90eLeEGiMk+cic55OZiDfc//Cdeb+8UfNx/a+//J4Mo/+PUYWjr8B0MH7hnfwGuPkucicp9MzkJ97P//gxbzAf+dj+ry/LJ6eRb8eIw8b31HUS3ljnEAXmvN0egZ+OyIuXWDon3yIfKx8zNP34Nc8ZKB/BnLGbzx+zEXtpiYDQ2bgzohY4k2C8jHysdzsGcjAeBnIGb/x+MyIeMDF7eYmA0Nm4D8i4juLfmpg/pS/XDsfw42fgQyMl4Gc7Tnjz3jc4AJ3g5OBoTPwNxHxTWe8ys/tf+ZauaabPgMZGDcDOdvPejz1WNO/x8XuZicDw2fgDyPidRHxzLNe9U/8A/kx+bG5hps+AxkYOwM503O2b3Vc66J305OBvcnAIxHxxxFxU0R8S0RcExGffeJTBfnSfv46fy//X/6Z/LP5MW76DGRgPzKQM/2cDt/fux8n3gXsPG7KQP5AED8ITD425cPv70c2cpaf8/EizwA8A5IBGZABGZCBoTOQs/xQx3uc+KFPvAa/Hw3eeXQeZUAGDpOBnOGHPi6JiDuUACVABmRABmRABobKQM7unOFHOj4/Iv7diR/qxB+mKfoYzzBkQAZkYD8ykDM7Z/dOjhdHxMNKgBIgAzIgAzIgA60zkLM6Z/ZOjzc66a1Puua+H83deXQeZUAGjpKBnNUlx9uVACVABmRABmRABlpmIGd02fGUiLjdiW954o/SGH2sZxwyIAMyMHYGcjbnjC49Ljz2U8fepQQoATIgAzIgAzLQIgM5k3M2L3a8OSIedfJbnHzNfezm7vw5fzIgA4fJQM7gnMWrHPne4Z9UApQAGZABGZABGVg0Azl7cwavenyJnx646Ek/TEv0MZ5dyIAMyMD+ZCB/ul/O3hbHZ/niQCVA+5cBGZABGSjPQH6xX87cVscFEfHdEfFRASgPgCa/P03euXQuZUAGtslAztacsTlr2x4XH3vXwB/xtQFKgCIoAzIgAzJw5Azk5/pzpuZsHeZ4dkT8orcQPvLJ36YZ+jOeQciADMjAfmUg39I3Z2jO0mGPLzr2xQq/HhGPaYLKgAzIgAzIgAycMQM5K3Nm5uzcm+N5EfF9EfEHXhU448nX4verxTufzqcMyMDZMpDP9nM25ozMWbnXxzMi4tUnWs6D2qBCIAMyIAMyMFkGcvblM/2chTkTpzw+IyJeHhFvjYhbIuK2iLgjIvLnGfu0geZ8tubs/8uIDMhA1wzkDMtZljMtZ1vOuJx1OfNy9jnOIJBAV0TE10TEt0bEdf5hsOMMPDTZs46uN8o19pU3Z/cUBrvOQM6qnFk5uwz5Mwx4/4vAmgL5k7PWGDwes4/709cMoMcmQIAAgXUEnqMATF+ALl8neh6VAAECBNYUuEoBmL4AXL1mAD02AQIECKwj8EIFYPoC8A3rRM+jEiBAgMCaAt+sAExfAF61ZgA9NgECBAisI/AdCsD0BeAN60TPoxIgQIDAmgI3KADTF4AfXDOAHpsAAQIE1hH4UQVg+gLwE+tEz6MSIECAwJoCP68ATF8AfmnNAHpsAgQIEFhH4J0KwPQF4D3rRM+jEiBAgMCaAu9TAKYvAL+/ZgA9NgECBAisI/CnCsD0BeCv1omeRyVAgACBNQXuVACmLwD3rBlAj02AAAEC6wh8TAGYvgB8fJ3oeVQCBAgQWEvgUsN/+uF/8qcyPmutEHpcAgQIEFhe4KsVAAXgRAa+fvn4eUQCBAgQWEvguxQABeBEBq5fK4QelwABAgSWF7hZAVAATmTgbcvHzyMSIECAwFoC71cAFIATGbh9rRB6XAIECBBYXuCfFAAF4EQGPrJ8/DwiAQIECKwhcHFEPKYAKACnZeAZawTRYxIgQIDAsgIvOO3Gf/Jbwfw7pi4EL1w2gh6NAAECBNYQeI0CMPWwf7Ky94Y1gugxCRAgQGBZgZ9UABSAAxn42WUj6NEIECBAYA2B3zpw83+yZ4R+b65PCdy2RhA9JgECBAgsK3C3AuAVgAMZ+JdlI+jRCBAgQGBpgQsj4pEDN3/P9ud6tv9k5zu/K+SSpcPo8QgQIEBgOYGrDX/P/jdk4CuXi6FHIkCAAIGlBa7bcPN/smeFfm+uVwZeu3QYPR4BAgQILCfgOwDmGurnUuJ+ZrkYeiQCBAgQWFrgL7wC4FMAGzLw10uH0eMRIECAwDIC+XavvgDQKwCbXhXILwR89jJR9CgECBAgsKTAKzc889s0EPz+fGXh25cMpMciQIAAgWUE3q4AePn/LBm4ZZkoehQCBAgQWFLgrrPc/D3jn+8Z/8Fzfu+SgfRYBAgQIFAvcLnh79n/lhm4qj6OHoEAAQIElhJ4/ZY3/4PPCP33fK8K3LBUKD0OAQIECNQL/KYC4BWALTPwe/Vx9AgECBAgsITAsyLioS1v/p7xz/eM/+A5z28V/dwlgukxCBAgQKBW4PsNf8/+zzEDP1QbSasTIECAwBICHzrHm//BZ4T+e75XBf7k6ZT0AAAFC0lEQVR+iWB6DAIECBCoE3i+4e/Z/yEz8OV1sbQyAQIECFQL5A948QyewWEy8AvV4bQ+AQIECNQIXBARH1MAFKBDZuD+iHhKTTStSoAAAQKVAt773zP/wzzzP/1jXlUZUGsTIECAwO4FzouIDx/ymd/pA8Cv5y4RmaHMkoMAAQIEBhG4zvD30v+OMvDqQTJvmwQIEJheID9ve/eObv5eAZj7FYA8//f4WoDp7ykACBAYROB7DH/P/necgTcOkn3bJECAwLQCF0bEv+745u9VAK8CfCQinjbtVeUvToAAgQEEbjL8PfsvyoC3Bx7gBmCLBAjMKXBlRHyy6ObvVQCvAjwYEV8856Xlb02AAIG+Ahf5tj/P/Bcof/kzAi7uexnYGQECBOYTuGWBm79XAbwKkBn4tfkuL39jAgQI9BR4neHv2f/CGcjvNHEQIECAwIoC+dP+PrXwzd8rAV4J+N+IuGbF3HtoAgQITC3w3Ij4B8Pfs/+VMvCPEXH51FegvzwBAgRWEMhn/vetdOP3CoBXAE5m4KMRcfUK+feQBAgQmFLgGyPiE4a/Z/5NMpDfevrSKa9Ef2kCBAgsJHBBRNwYEQ83ufGffBbo314RyExmNjOjDgIECBDYocDLIuJOg9+z/uYZyIxmVh0ECBAgcASBfDb14oj4QPObvlcAvAJwMAOZ2cyuVwSOcAPwoQQIzCNwXkRcFhHXRcS7I+I/DX7P+AfPQGY4s5yZzmxnxh0ECBCYUiCfEX1pRLwmIn4uIt4fER+KiPxpaz6375n0wWfS+/bfmfHMemY+s5/XQF4LeU14tWDKW6K/NIH9F7g0In7Zm/Z4Rj/4M/rKQpJvaJXXSF4rDgIECOyFQH4u9J/d+A1/GdgqA3mt5DXjIECAwNACPxwRj7rxb3Xjr3x2ae2xPr2S10xeOw4CBAgMKZDPYgz/sQaPotDnfOW145WAIW99Nk1gboH8PKaX/fsME4N9zHOR15CvCZj7XupvT2A4gfxiJkOHgQwcPQN5LTkIECAwhEB+O5Mf0Xv0G7/hyTAzkNeSbxEc4tZnkwQI5Pc0G14MZGB3GchrykGAAIH2AvnGJm7+DGRgdxnIa8pBgACB9gL57mZu/gxkYHcZyGvKQYAAgfYCCsDubvyGKMvMgALQ/rZngwQIpIBPARhaistuM+BTAO6tBAgMIeCLAHd78zdMefoiwCFufTZJgIBvAzSwlJbdZcC3AbqnEiAwlIA3AtrdADBM57b0RkBD3fpslgABbwU899BSWnZz/r0VsHspAQJDCvhhQLsZAobpnI5+GNCQtz2bJkDgpIAfBzzn8FJajnbe/Tjgk3cQ/yZAYGiBfCXATwY82kAwUOfxy2vFjwEe+pZn8wQInC6QXxOQX8zkhwTNM8iUlnM713lt5DXix/+efufwawIE9kYgv0Uwv6c539gk393sVv8wmDgDeQ3ktZDXhJ/4tze3OX8RAgQIECBAgAABAgQIECBAgAABAgQIECBAgAABAgQIECBAgAABAgQIECBAgAABAgQIECBAgAABAgQIECBAgAABAgQIECBAgAABAgQIECBAgAABAgQIECBAgAABAgQIECBAgAABAgQIECBAgAABAgQIECBAgAABAgQIECBAgAABAgQIECBAgAABAgQIECBAgAABAgQIECBAgAABAgQIECBAgAABAgQIECBAgAABAgQIECBAgAABAgQIECBAYFGB/weYp6W9gz/P9AAAAABJRU5ErkJggg==;" vertex="1" parent="1">
          <mxGeometry x="480" y="160" width="40" height="40" as="geometry" />
        </mxCell>
        <mxCell id="tM-sLUK_iXSUUSvi_UQe-14" value="" style="shape=image;verticalLabelPosition=bottom;labelBackgroundColor=default;verticalAlign=top;aspect=fixed;imageAspect=0;image=data:image/png,iVBORw0KGgoAAAANSUhEUgAAAgAAAAIACAYAAAD0eNT6AAAAAXNSR0IArs4c6QAAIABJREFUeAHt3WusZWdZB/CnLVjaUolcrEJqvaQ1KmkqXoKKYAwGNCEB02hRAoJKE1MbqvJBEz+Al2g1Kob4QWtAQkI1wYhiUSuaaOItqFT7obbx0grBVkWoQdPaFueZzEymp90ze87Zz1rPu9/fSppOp3Pe/c5v/dd6/nufc/aJcBAgQIAAAQIECBAgQIAAAQIECBAgQIAAAQIECBAgQIAAAQIECBAgQIAAAQIECBAgQIAAAQIECBAgQIAAAQIECBAgQIAAAQIECBAgQIAAAQIECBAgQIAAAQIECBAgQIAAAQIECBAgQIAAAQIECBAgQIAAAQIECBAgQIAAAQIECBAgQIAAAQIECBAgQIAAAQIECBAgQIAAAQIECBAgQIAAAQIECBAgQIAAAQIECBAgQIAAAQIECBAgQIAAAQJlAk+PiCsj4iURcV1E3BQRN0fEuyLiVv8wkAEZkAEZaJyBnFU5s3J25QzLWZYzLWeb4zSBiyPilRHxzoi4OyL+OyI+7R8GMiADMiADe5iBnHE563Lm5ezLGTjV8ZyIeH1EvC8i/mcPT7ACo8TJgAzIgAxsk4GcgTkLcybmbNzL45kR8QMR8ScR8aihr9nLgAzIgAzIwOMykLMxZ2TOypyZwx9Pi4g3R8R/OdGPO9HbNEN/xjMIGZABGZgzAzkzc3bmDB3uOD8iXnvsZY17DX6DXwZkQAZkQAYOlYGcoTlLc6YOcbzs2Bc3fNjJPtTJ1vbnbPvOu/MuAzJwpgzkTM3Z2va4KiJuN/gNfhmQARmQARkoyUDO2Jy1rY6XR8QnnPCSE36mVuj/edYgAzIgA3NlIGdtztwWR37F4iOGv+EvAzIgAzIgA4tkIGduzt7Vjgsj4h1O9iInW8Ofq+E73863DMjANhnIGZyzeNHjsoj4M8Pf8JcBGZABGZCBVTOQszhn8iLHNRFxnxO+6gnfphn6M55ByIAMyMAcGciZnLO59LgiIh4w/A1/GZABGZABGWiVgZzNOaNLjkt8f3+rk63Zz9HsnWfnWQZkYNsM5PsF5Kze6XFeRLxX21MAZEAGZEAGZKB1BnJW58ze2fEWJ7z1Cd+2HfpznknIgAzIwP5nIGf2To5rI+IxBUABkAEZkAEZkIEhMpAzO2f3kY78qsJPOeFDnHCtfv9bvXPsHMuADGybgZzdh/7OgKdGxN2Gv+EvAzIgAzIgA0NmIGd4zvJzPm5wwoc84du2Q3/OMwkZkAEZ2P8M5Cw/p+NS3+9v+CuAMiADMiADw2cg3x8gZ/rWx4876cOfdM1+/5u9c+wcy4AMbJOBnOlbHc/1hX+GvwIoAzIgAzKwNxnILwjM2X7W4xYnfW9O+jbN0J/xDEIGZEAG9j8DOdvPeDw/IvLnDAsDAxmQARmQARnYnwzkbM8Zv/H4DcNf+ZEBGZABGZCBvcxAzvgnPS7yuf+9POEa/P40eOfSuZQBGThKBvJrAXLWP+F4hcanAMiADMiADMjAXmcgZ/0TDl/8p1kepVn6WPmRARmQgf4ZeMIXA54fEfdrfXvd+lyY/S9M58g5kgEZqM5Azvqc+aeOrzX8DX8ZkAEZkAEZmCIDOfNPHT/tpE9x0qubpfU9e5EBGZCB/hnImX/quEsBUABkQAZkQAZkYIoM5Mw/fnyeEz7FCdfK+7dy58g5kgEZWCoDOfvjRQqAAiADMiADMiADU2UgZ398m5M+1Ulfql16HM9kZEAGZKBvBnL2x5sUAAVABmRABmRABqbKQM7+uNlJn+qka+R9G7lz49zIgAwslYGc/fFuBUABkAEZkAEZkIGpMpCzP/7ISZ/qpC/VLj2OZzIyIAMy0DcDOfvDewD0PUEuHudGBmRABmSgIgPH3wvgQa8AeAVABmRABmRABqbKQM7+Yf7Ct+ZmHQQIECBAoLFAzqqKZ+wVaw6zUQWgceJtjQABAgSOCygABQ1IAXB1ESBAgEB3AQVAAeieUfsjQIAAgQIBBUABKIiVJQkQIECgu4ACoAB0z6j9ESBAgECBgAKgABTEypIECBAg0F1AAVAAumfU/ggQIECgQEABUAAKYmVJAgQIEOguoAAoAN0zan8ECBAgUCCgACgABbGyJAECBAh0F1AAFIDuGbU/AgQIECgQUAAUgIJYWZIAAQIEugsoAApA94zaHwECBAgUCCgACkBBrCxJgAABAt0FFAAFoHtG7Y8AAQIECgQUAAWgIFaWJECAAIHuAgqAAtA9o/ZHgAABAgUCCoACUBArSxIgQIBAdwEFQAHonlH7I0CAAIECAQVAASiIlSUJECBAoLuAAqAAdM+o/REgQIBAgYACoAAUxMqSBAgQINBdQAFQALpn1P4IECBAoEBAAVAACmJlSQIECBDoLqAAKADdM2p/BAgQIFAgoAAoAAWxsiQBAgQIdBdQABSA7hm1PwIECBAoEFAAFICCWFmSAAECBLoLKAAKQPeM2h8BAgQIFAgoAApAQawsSYAAAQLdBRQABaB7Ru2PAAECBAoEFAAFoCBWliRAgACB7gIKgALQPaP2R4AAAQIFAgqAAlAQK0sSIECAQHcBBUAB6J5R+yNAgACBAgEFQAEoiJUlCRAgQKC7gAKgAHTPqP0RIECAQIGAAqAAFMTKkgQIECDQXUABUAC6Z9T+CBAgQKBAQAFQAApiZUkCBAgQ6C6gACgA3TNqfwQIECBQIKAAKAAFsbIkAQIECHQXUAAUgO4ZtT8CBAgQKBBQABSAglhZkgABAgS6CygACkD3jNofAQIECBQIKAAKQEGsLEmAAAEC3QUUAAWge0btjwABAgQKBBQABaAgVpYkQIAAge4CCoAC0D2j9keAAAECBQIKgAJQECtLEiBAgEB3AQVAAeieUfsjQIAAgQIBBUABKIiVJQkQIECgu4ACoAB0z6j9ESBAgECBgAKgABTEypIECBAg0F1AAVAAumfU/ggQIECgQEABUAAKYmVJAgQIEOguoAAoAN0zan8ECBAgUCCgACgABbGyJAECBAh0F1AAFIDuGbU/AgQIECgQUAAUgIJYWZIAAQIEugsoAApA94zaHwECBAgUCCgACkBBrCxJgAABAt0FFAAFoHtG7Y8AAQIECgQUAAWgIFaWJECAAIHuAgqAAtA9o/ZHgAABAgUCCoACUBArSxIgQIBAdwEFQAHonlH7I0CAAIECAQVAASiIlSUJECBAoLuAAqAAdM+o/REgQIBAgYACoAAUxMqSBAgQINBdQAFQALpn1P4IECBAoEBAAVAACmJlSQIECBDoLqAAKADdM2p/BAgQIFAgoAAoAAWxsiQBAgQIdBdQABSA7hm1PwIECBAoEFAAFICCWFmSAAECBLoLKAAKQPeM2h8BAgQIFAgoAApAQawsSYAAAQLdBRQABaB7Ru2PAAECBAoEFAAFoCBWliRAgACB7gIKgALQPaP2R4AAAQIFAgqAAlAQK0sSIECAQHcBBUAB6J5R+yNAgACBAgEFQAEoiJUlCRAgQKC7gAKgAHTPqP0RIECAQIGAAqAAFMTKkgQIECDQXUABUAC6Z9T+CBAgQKBAQAFQAApiZUkCBAgQ6C6gACgA3TNqfwQIECBQIKAAKAAFsbIkAQIECHQXUAAUgO4ZtT8CBAgQKBBQABSAglhZkgABAgS6CygACkD3jNofAQIECBQIKAAKQEGsLEmAAAEC3QUUAAWge0btjwABAgQKBBQABaAgVpYkQIAAge4CCoAC0D2j9keAAAECBQIKgAJQECtLEiBAgEB3AQVAAeieUfsjQIAAgQIBBUABKIiVJQkQIECgu4ACoAB0z6j9ESBAgECBgAKgABTEypIECBAg0F1AAVAAumfU/ggQIECgQEABUAAKYmVJAgQIEOguoAAoAN0zan8ECBAgUCCgACgABbGyJAECBAh0F1AAFIDuGbU/AgQIECgQUAAUgIJYWZIAAQIEugsoAApA94zaHwECBAgUCCgACkBBrCxJgAABAt0FFAAFoHtG7Y8AAQIECgQUAAWgIFaWJECAAIHuAgqAAtA9o/ZHgAABAgUCCoACUBArSxIgQIBAdwEFQAHonlH7I0CAAIECAQVAASiIlSUJECBAoLuAAqAAdM+o/REgQIBAgYACoAAUxMqSBAgQINBdQAFQALpn1P4IECBAoEBAAVAACmJlSQIECBDoLqAAKADdM2p/BAgQIFAgoAAoAAWxsiQBAgQIdBdQABSA7hm1PwIECBAoEFAAFICCWFmSAAECBLoLKAAKQPeM2h8BAgQIFAgoAApAQawsSYAAAQLdBRQABaB7Ru2PAAECBAoEFAAFoCBWliRAgACB7gIKgALQPaP2R4AAAQIFAgqAAlAQK0sSIECAQHcBBUAB6J5R+yNAgACBAgEFQAEoiJUlCRAgQKC7gAKgAHTPqP0RIECAQIGAAqAAFMTKkgQIECDQXUABUAC6Z9T+CBAgQKBAQAFQAApiZUkCBAgQ6C6gACgA3TNqfwQIECBQIKAAKAAFsbIkAQIECHQXUAAUgO4ZtT8CBAgQKBBQABSAglhZkgABAgS6CygACkD3jNofAQIECBQIKAAKQEGsLEmAAAEC3QUUAAWge0btjwABAgQKBBQABaAgVpYkQIAAge4CCoAC0D2j9keAAAECBQIKgAJQECtLEiBAgEB3AQVAAeieUfsjQIAAgQIBBUABKIiVJQkQIECgu4ACoAB0z6j9ESBAgECBgAKgABTEypIECBAg0F1AAVAAumfU/ggQIECgQEABUAAKYmVJAgQIEOguoAAoAN0zan8ECBAgUCCgACgABbGyJAECBAh0F1AAFIDuGbU/AgQIECgQUAAUgIJYWZIAAQIEugsoAApA94zaHwECBAgUCCgACkBBrCxJgAABAt0FFAAFoHtG7Y8AAQIECgQUAAWgIFaWJECAAIHuAgqAAtA9o/ZHgAABAgUCCoACUBArSxIgQIBAdwEFQAHonlH7I0CAAIECAQVAASiIlSUJECBAoLuAAqAAdM+o/REgQIBAgYACoAAUxMqSBAgQINBdQAFQALpn1P4IECBAoEBAAVAACmJlSQIECBDoLqAAKADdM2p/BAgQIFAgoAAoAAWxsiQBAgQIdBdQABSA7hm1PwIECBAoEFAAFICCWFmSAAECBLoLKAAKQPeM2h8BAgQIFAgoAApAQawsSYAAAQLdBRQABaB7Ru2PAAECBAoEFAAFoCBWliRAgACB7gIKgALQPaP2R4AAAQIFAgqAAlAQK0sSIECAQHcBBUAB6J5R+yNAgACBAgEFQAEoiJUlCRAgQKC7gAKgAHTPqP0RIECAQIGAAqAAFMTKkgQIECDQXUABUAC6Z9T+CBAgQKBAQAFQAApiZUkCBAgQ6C6gACgA3TNqfwQIECBQIKAAKAAFsbIkAQIECHQXUAAUgO4ZtT8CBAgQKBBQABSAglhZkgABAgS6CygACkD3jNofAQIECBQIKAAKQEGsLEmAAAEC3QUUAAWge0btjwABAgQKBBQABaAgVpYkQIAAge4CCoAC0D2j9keAAAECBQIKgAJQECtLEiBAgEB3AQVAAeieUfsjQIAAgQIBBUABKIiVJQkQIECgu4ACoAB0z6j9ESBAgECBgAKgABTEypIECBAg0F1AAVAAumfU/ggQIECgQEABUAAKYmVJAgQIEOguoAAoAN0zan8ECBAgUCCgACgABbGyJAECBAh0F1AAFIDuGbU/AgQIECgQUAAUgIJYWZIAAQIEugsoAApA94zaHwECBAgUCCgACkBBrCxJgAABAt0FFAAFoHtG7Y8AAQIECgQUAAWgIFaWJECAAIHuAgqAAtA9o/ZHgAABAgUCCoACUBArSxIgQIBAdwEFQAHonlH7I0CAAIECAQVAASiIlSUJECBAoLuAAqAAdM+o/REgQIBAgYACoAAUxMqSBAgQINBdQAFQALpn1P4IECBAoEBAAVAACmJlSQIECBDoLqAAKADdM2p/BAgQIFAgoAAoAAWxsiQBAgQIdBdQABSA7hm1PwIECBAoEFAAFICCWFmSAAECBLoLKAAKQPeM2h8BAgQIFAgoAApAQawsSYAAAQLdBRQABaB7Ru2PAAECBAoEFAAFoCBWliRAgACB7gIKgALQPaP2R4AAAQIFAgqAAlAQK0sSIECAQHcBBUAB6J5R+yNAgACBAgEFQAEoiJUlCRAgQKC7gAKgAHTPqP0RIECAQIGAAqAAFMTKkgQIECDQXUABUAC6Z9T+CBAgQKBAQAFQAApiZUkCBAgQ6C6gACgA3TNqfwQIECBQIKAAKAAFsbIkAQIECHQXUAAUgO4ZtT8CBAgQKBBQABSAglhZkgABAgS6CygACkD3jNofAQIECBQIKAAKQEGsLEmAAAEC3QUUAAWge0btjwABAgQKBBQABaAgVpYkQIAAge4CCoAC0D2j9keAAAECBQIKgAJQECtLEiBAgEB3AQVAAeieUfsjQIAAgQIBBUABKIiVJQkQIECgu4ACoAB0z6j9ESBAgECBgAKgABTEypIECBAg0F1AAVAAumfU/ggQIECgQEABUAAKYmVJAgQIEOguoAAoAN0zan8ECBAgUCCgACgABbGyJAECBAh0F1AAFIDuGbU/AgQIECgQUAAUgIJYWZIAAQIEugsoAApA94zaHwECBAgUCCgACkBBrCxJgAABAt0FFAAFoHtG7Y8AAQIECgQUgIIC8GlrBoNg4DqQARmQgR1lAOSOIA1nw1kGZEAGZGCkDCgACoAMyIAMyIAMTJgBJ33Ckz5SQ7VXz6hkQAZkoCYDCoACIAMyIAMyIAMTZsBJn/Cka9M1bZorVxmQgZEyoAAoADIgAzIgAzIwYQac9AlP+kgN1V49o5IBGZCBmgwoAAqADMiADMiADEyYASd9wpOuTde0aa5cZUAGRsqAAqAAyIAMyIAMyMCEGXDSJzzpIzVUe/WMSgZkQAZqMqAAKAAyIAMyIAMyMGEGnPQJT7o2XdOmuXKVARkYKQMKgAIgAzIgAzIgAxNmwEmf8KSP1FDt1TMqGZABGajJgAKgAMiADMiADMjAhBlw0ic86dp0TZvmylUGZGCkDCgACoAMyIAMyIAMTJgBJ33Ckz5SQ7VXz6hkQAZkoCYDCoACIAMyIAMyIAMTZsBJn/Cka9M1bbqz62MR8ZcR8a6I+KmIuDEirj3xT/46fy//X/6Z/LOd/y725vzIwG4y4EJ3s5OBPc3AQxHxgYi4PiI+J7Y/8s/mx+TH5hputgxkYD8z4OJ2g5OBPcvAIxHxqxHxvO1n/sY/mWvkWrmmIcBABvYrAy5qNzYZ2KMM/E5EfNnGcX74/5Fr5toGAAMZ2J8MuKDd1GRgDzKQL9V/7+Hn+9YfmY/h0wL7MwAM87nPpZv/Htz8XcRzX8T/FhFft/UIP/ofzMfKx5Q7BjIwdgZcxG5kMjBwBu469jn6y48+0895hXzMfGwDgIEMjJsBF7CbmAwMmoGPR8SV5zy6d/cB+di5BwOAgQyMmQEXrxuYDAyYgfyq/JfubpYfeqXcg+8QGPPmb2g7b27+A978Xbgu3DcdemTv/gNzLzLJQAbGy4AL181LBgbLwB0Rcf7u5/ihV8y95J4MAAYyMFYGXLRuXDIwWAZefuhRXfeBuSc3fwYyMFYGXLRuXDIwUAY+WDfDj7xy7s0AYCAD42TABeumJQMDZeAlRx7TdQvk3tz8GcjAOBlwwbppycAgGbi/2ef+D1aJ/FqA3KMBwEAGxsiAi9UNSwYGycAtByduw//OPbr5M5CBMTLgYnXDkoFBMvCKhgP/4JZyj27+DGRgjAy4WN2wZGCADDwWERcdnLYN/zv3mHs1ABjIQP8MuFDdrGRggAw80HDYb9pS7tXNn4EM9M+AC9XNSgYGyMCHN03bhr+fe3XzZyAD/TPgQnWzkoEBMnBbw0G/aUu5Vzd/BjLQPwM+X+dm5WY9QAbesWnaNvz93KubPwMZ6J2B/Fqd8Pm63ifJReT8ZAbe23DQb9pS7lVuGchA7wwc/7qiv3WxulnJQPsM/Pmmadvw93Ovbv4MZKB3BnL2x++6WN2sZKB9Bu5tOOg3bSn36ubPQAZ6ZyBnf/yKi9XNSgbaZ+DhiDhv08Rt9Pu5x9yrmz8DGeidgZz98RYXq5uVDAyRgRc0GvSbtpJ7dONnIAP9M5CzP653wbphycAQGXjrpqnb6Pdzj27+DGSgfwZy9of37u5/olxMzlFm4O8aDfpNW8k9yisDGeifgeM/W+QrXLBuWDIwTAa+cNPkbfD7uTc3fgYyMEYGcvbHMyLi/1y4blwyMEQG3tZg0G/aQu7NzZ+BDPTPQM78nP3Hjw+6cN24ZGCIDDwUEV9w8sJt9O/cU+7NzZ+BDPTPQM78U8eNLlw3LhkYJgPvPnXl9vlF7smNn4EMjJGBnPmnjitcvG5eMjBMBvI9vL/q1NW7/i9yL7knN38GMjBGBnLmP+7wIzzHOHEuMOcpM3BfRFz2uCt4nf/IPeRe5JKBDIyRgSf90eLeEGiMk+cic55OZiDfc//Cdeb+8UfNx/a+//J4Mo/+PUYWjr8B0MH7hnfwGuPkucicp9MzkJ97P//gxbzAf+dj+ry/LJ6eRb8eIw8b31HUS3ljnEAXmvN0egZ+OyIuXWDon3yIfKx8zNP34Nc8ZKB/BnLGbzx+zEXtpiYDQ2bgzohY4k2C8jHysdzsGcjAeBnIGb/x+MyIeMDF7eYmA0Nm4D8i4juLfmpg/pS/XDsfw42fgQyMl4Gc7Tnjz3jc4AJ3g5OBoTPwNxHxTWe8ys/tf+ZauaabPgMZGDcDOdvPejz1WNO/x8XuZicDw2fgDyPidRHxzLNe9U/8A/kx+bG5hps+AxkYOwM503O2b3Vc66J305OBvcnAIxHxxxFxU0R8S0RcExGffeJTBfnSfv46fy//X/6Z/LP5MW76DGRgPzKQM/2cDt/fux8n3gXsPG7KQP5AED8ITD425cPv70c2cpaf8/EizwA8A5IBGZABGZCBoTOQs/xQx3uc+KFPvAa/Hw3eeXQeZUAGDpOBnOGHPi6JiDuUACVABmRABmRABobKQM7unOFHOj4/Iv7diR/qxB+mKfoYzzBkQAZkYD8ykDM7Z/dOjhdHxMNKgBIgAzIgAzIgA60zkLM6Z/ZOjzc66a1Puua+H83deXQeZUAGjpKBnNUlx9uVACVABmRABmRABlpmIGd02fGUiLjdiW954o/SGH2sZxwyIAMyMHYGcjbnjC49Ljz2U8fepQQoATIgAzIgAzLQIgM5k3M2L3a8OSIedfJbnHzNfezm7vw5fzIgA4fJQM7gnMWrHPne4Z9UApQAGZABGZABGVg0Azl7cwavenyJnx646Ek/TEv0MZ5dyIAMyMD+ZCB/ul/O3hbHZ/niQCVA+5cBGZABGSjPQH6xX87cVscFEfHdEfFRASgPgCa/P03euXQuZUAGtslAztacsTlr2x4XH3vXwB/xtQFKgCIoAzIgAzJw5Azk5/pzpuZsHeZ4dkT8orcQPvLJ36YZ+jOeQciADMjAfmUg39I3Z2jO0mGPLzr2xQq/HhGPaYLKgAzIgAzIgAycMQM5K3Nm5uzcm+N5EfF9EfEHXhU448nX4verxTufzqcMyMDZMpDP9nM25ozMWbnXxzMi4tUnWs6D2qBCIAMyIAMyMFkGcvblM/2chTkTpzw+IyJeHhFvjYhbIuK2iLgjIvLnGfu0geZ8tubs/8uIDMhA1wzkDMtZljMtZ1vOuJx1OfNy9jnOIJBAV0TE10TEt0bEdf5hsOMMPDTZs46uN8o19pU3Z/cUBrvOQM6qnFk5uwz5Mwx4/4vAmgL5k7PWGDwes4/709cMoMcmQIAAgXUEnqMATF+ALl8neh6VAAECBNYUuEoBmL4AXL1mAD02AQIECKwj8EIFYPoC8A3rRM+jEiBAgMCaAt+sAExfAF61ZgA9NgECBAisI/AdCsD0BeAN60TPoxIgQIDAmgI3KADTF4AfXDOAHpsAAQIE1hH4UQVg+gLwE+tEz6MSIECAwJoCP68ATF8AfmnNAHpsAgQIEFhH4J0KwPQF4D3rRM+jEiBAgMCaAu9TAKYvAL+/ZgA9NgECBAisI/CnCsD0BeCv1omeRyVAgACBNQXuVACmLwD3rBlAj02AAAEC6wh8TAGYvgB8fJ3oeVQCBAgQWEvgUsN/+uF/8qcyPmutEHpcAgQIEFhe4KsVAAXgRAa+fvn4eUQCBAgQWEvguxQABeBEBq5fK4QelwABAgSWF7hZAVAATmTgbcvHzyMSIECAwFoC71cAFIATGbh9rRB6XAIECBBYXuCfFAAF4EQGPrJ8/DwiAQIECKwhcHFEPKYAKACnZeAZawTRYxIgQIDAsgIvOO3Gf/Jbwfw7pi4EL1w2gh6NAAECBNYQeI0CMPWwf7Ky94Y1gugxCRAgQGBZgZ9UABSAAxn42WUj6NEIECBAYA2B3zpw83+yZ4R+b65PCdy2RhA9JgECBAgsK3C3AuAVgAMZ+JdlI+jRCBAgQGBpgQsj4pEDN3/P9ud6tv9k5zu/K+SSpcPo8QgQIEBgOYGrDX/P/jdk4CuXi6FHIkCAAIGlBa7bcPN/smeFfm+uVwZeu3QYPR4BAgQILCfgOwDmGurnUuJ+ZrkYeiQCBAgQWFrgL7wC4FMAGzLw10uH0eMRIECAwDIC+XavvgDQKwCbXhXILwR89jJR9CgECBAgsKTAKzc889s0EPz+fGXh25cMpMciQIAAgWUE3q4AePn/LBm4ZZkoehQCBAgQWFLgrrPc/D3jn+8Z/8Fzfu+SgfRYBAgQIFAvcLnh79n/lhm4qj6OHoEAAQIElhJ4/ZY3/4PPCP33fK8K3LBUKD0OAQIECNQL/KYC4BWALTPwe/Vx9AgECBAgsITAsyLioS1v/p7xz/eM/+A5z28V/dwlgukxCBAgQKBW4PsNf8/+zzEDP1QbSasTIECAwBICHzrHm//BZ4T+e75XBf7k6ZT0AAAFC0lEQVR+iWB6DAIECBCoE3i+4e/Z/yEz8OV1sbQyAQIECFQL5A948QyewWEy8AvV4bQ+AQIECNQIXBARH1MAFKBDZuD+iHhKTTStSoAAAQKVAt773zP/wzzzP/1jXlUZUGsTIECAwO4FzouIDx/ymd/pA8Cv5y4RmaHMkoMAAQIEBhG4zvD30v+OMvDqQTJvmwQIEJheID9ve/eObv5eAZj7FYA8//f4WoDp7ykACBAYROB7DH/P/necgTcOkn3bJECAwLQCF0bEv+745u9VAK8CfCQinjbtVeUvToAAgQEEbjL8PfsvyoC3Bx7gBmCLBAjMKXBlRHyy6ObvVQCvAjwYEV8856Xlb02AAIG+Ahf5tj/P/Bcof/kzAi7uexnYGQECBOYTuGWBm79XAbwKkBn4tfkuL39jAgQI9BR4neHv2f/CGcjvNHEQIECAwIoC+dP+PrXwzd8rAV4J+N+IuGbF3HtoAgQITC3w3Ij4B8Pfs/+VMvCPEXH51FegvzwBAgRWEMhn/vetdOP3CoBXAE5m4KMRcfUK+feQBAgQmFLgGyPiE4a/Z/5NMpDfevrSKa9Ef2kCBAgsJHBBRNwYEQ83ufGffBbo314RyExmNjOjDgIECBDYocDLIuJOg9+z/uYZyIxmVh0ECBAgcASBfDb14oj4QPObvlcAvAJwMAOZ2cyuVwSOcAPwoQQIzCNwXkRcFhHXRcS7I+I/DX7P+AfPQGY4s5yZzmxnxh0ECBCYUiCfEX1pRLwmIn4uIt4fER+KiPxpaz6375n0wWfS+/bfmfHMemY+s5/XQF4LeU14tWDKW6K/NIH9F7g0In7Zm/Z4Rj/4M/rKQpJvaJXXSF4rDgIECOyFQH4u9J/d+A1/GdgqA3mt5DXjIECAwNACPxwRj7rxb3Xjr3x2ae2xPr2S10xeOw4CBAgMKZDPYgz/sQaPotDnfOW145WAIW99Nk1gboH8PKaX/fsME4N9zHOR15CvCZj7XupvT2A4gfxiJkOHgQwcPQN5LTkIECAwhEB+O5Mf0Xv0G7/hyTAzkNeSbxEc4tZnkwQI5Pc0G14MZGB3GchrykGAAIH2AvnGJm7+DGRgdxnIa8pBgACB9gL57mZu/gxkYHcZyGvKQYAAgfYCCsDubvyGKMvMgALQ/rZngwQIpIBPARhaistuM+BTAO6tBAgMIeCLAHd78zdMefoiwCFufTZJgIBvAzSwlJbdZcC3AbqnEiAwlIA3AtrdADBM57b0RkBD3fpslgABbwU899BSWnZz/r0VsHspAQJDCvhhQLsZAobpnI5+GNCQtz2bJkDgpIAfBzzn8FJajnbe/Tjgk3cQ/yZAYGiBfCXATwY82kAwUOfxy2vFjwEe+pZn8wQInC6QXxOQX8zkhwTNM8iUlnM713lt5DXix/+efufwawIE9kYgv0Uwv6c539gk393sVv8wmDgDeQ3ktZDXhJ/4tze3OX8RAgQIECBAgAABAgQIECBAgAABAgQIECBAgAABAgQIECBAgAABAgQIECBAgAABAgQIECBAgAABAgQIECBAgAABAgQIECBAgAABAgQIECBAgAABAgQIECBAgAABAgQIECBAgAABAgQIECBAgAABAgQIECBAgAABAgQIECBAgAABAgQIECBAgAABAgQIECBAgAABAgQIECBAgAABAgQIECBAgAABAgQIECBAgAABAgQIECBAgAABAgQIECBAYFGB/weYp6W9gz/P9AAAAABJRU5ErkJggg==;" vertex="1" parent="1">
          <mxGeometry x="480" y="360" width="40" height="40" as="geometry" />
        </mxCell>
        <mxCell id="tM-sLUK_iXSUUSvi_UQe-15" value="" style="shape=image;verticalLabelPosition=bottom;labelBackgroundColor=default;verticalAlign=top;aspect=fixed;imageAspect=0;image=data:image/png,iVBORw0KGgoAAAANSUhEUgAAAgAAAAIACAYAAAD0eNT6AAAAAXNSR0IArs4c6QAAIABJREFUeAHt3WusZWdZB/CnLVjaUolcrEJqvaQ1KmkqXoKKYAwGNCEB02hRAoJKE1MbqvJBEz+Al2g1Kob4QWtAQkI1wYhiUSuaaOItqFT7obbx0grBVkWoQdPaFueZzEymp90ze87Zz1rPu9/fSppOp3Pe/c5v/dd6/nufc/aJcBAgQIAAAQIECBAgQIAAAQIECBAgQIAAAQIECBAgQIAAAQIECBAgQIAAAQIECBAgQIAAAQIECBAgQIAAAQIECBAgQIAAAQIECBAgQIAAAQIECBAgQIAAAQIECBAgQIAAAQIECBAgQIAAAQIECBAgQIAAAQIECBAgQIAAAQIECBAgQIAAAQIECBAgQIAAAQIECBAgQIAAAQIECBAgQIAAAQIECBAgQIAAAQIECBAgQIAAAQIECBAgQIAAAQJlAk+PiCsj4iURcV1E3BQRN0fEuyLiVv8wkAEZkAEZaJyBnFU5s3J25QzLWZYzLWeb4zSBiyPilRHxzoi4OyL+OyI+7R8GMiADMiADe5iBnHE563Lm5ezLGTjV8ZyIeH1EvC8i/mcPT7ACo8TJgAzIgAxsk4GcgTkLcybmbNzL45kR8QMR8ScR8aihr9nLgAzIgAzIwOMykLMxZ2TOypyZwx9Pi4g3R8R/OdGPO9HbNEN/xjMIGZABGZgzAzkzc3bmDB3uOD8iXnvsZY17DX6DXwZkQAZkQAYOlYGcoTlLc6YOcbzs2Bc3fNjJPtTJ1vbnbPvOu/MuAzJwpgzkTM3Z2va4KiJuN/gNfhmQARmQARkoyUDO2Jy1rY6XR8QnnPCSE36mVuj/edYgAzIgA3NlIGdtztwWR37F4iOGv+EvAzIgAzIgA4tkIGduzt7Vjgsj4h1O9iInW8Ofq+E73863DMjANhnIGZyzeNHjsoj4M8Pf8JcBGZABGZCBVTOQszhn8iLHNRFxnxO+6gnfphn6M55ByIAMyMAcGciZnLO59LgiIh4w/A1/GZABGZABGWiVgZzNOaNLjkt8f3+rk63Zz9HsnWfnWQZkYNsM5PsF5Kze6XFeRLxX21MAZEAGZEAGZKB1BnJW58ze2fEWJ7z1Cd+2HfpznknIgAzIwP5nIGf2To5rI+IxBUABkAEZkAEZkIEhMpAzO2f3kY78qsJPOeFDnHCtfv9bvXPsHMuADGybgZzdh/7OgKdGxN2Gv+EvAzIgAzIgA0NmIGd4zvJzPm5wwoc84du2Q3/OMwkZkAEZ2P8M5Cw/p+NS3+9v+CuAMiADMiADw2cg3x8gZ/rWx4876cOfdM1+/5u9c+wcy4AMbJOBnOlbHc/1hX+GvwIoAzIgAzKwNxnILwjM2X7W4xYnfW9O+jbN0J/xDEIGZEAG9j8DOdvPeDw/IvLnDAsDAxmQARmQARnYnwzkbM8Zv/H4DcNf+ZEBGZABGZCBvcxAzvgnPS7yuf+9POEa/P40eOfSuZQBGThKBvJrAXLWP+F4hcanAMiADMiADMjAXmcgZ/0TDl/8p1kepVn6WPmRARmQgf4ZeMIXA54fEfdrfXvd+lyY/S9M58g5kgEZqM5Azvqc+aeOrzX8DX8ZkAEZkAEZmCIDOfNPHT/tpE9x0qubpfU9e5EBGZCB/hnImX/quEsBUABkQAZkQAZkYIoM5Mw/fnyeEz7FCdfK+7dy58g5kgEZWCoDOfvjRQqAAiADMiADMiADU2UgZ398m5M+1Ulfql16HM9kZEAGZKBvBnL2x5sUAAVABmRABmRABqbKQM7+uNlJn+qka+R9G7lz49zIgAwslYGc/fFuBUABkAEZkAEZkIGpMpCzP/7ISZ/qpC/VLj2OZzIyIAMy0DcDOfvDewD0PUEuHudGBmRABmSgIgPH3wvgQa8AeAVABmRABmRABqbKQM7+Yf7Ct+ZmHQQIECBAoLFAzqqKZ+wVaw6zUQWgceJtjQABAgSOCygABQ1IAXB1ESBAgEB3AQVAAeieUfsjQIAAgQIBBUABKIiVJQkQIECgu4ACoAB0z6j9ESBAgECBgAKgABTEypIECBAg0F1AAVAAumfU/ggQIECgQEABUAAKYmVJAgQIEOguoAAoAN0zan8ECBAgUCCgACgABbGyJAECBAh0F1AAFIDuGbU/AgQIECgQUAAUgIJYWZIAAQIEugsoAApA94zaHwECBAgUCCgACkBBrCxJgAABAt0FFAAFoHtG7Y8AAQIECgQUAAWgIFaWJECAAIHuAgqAAtA9o/ZHgAABAgUCCoACUBArSxIgQIBAdwEFQAHonlH7I0CAAIECAQVAASiIlSUJECBAoLuAAqAAdM+o/REgQIBAgYACoAAUxMqSBAgQINBdQAFQALpn1P4IECBAoEBAAVAACmJlSQIECBDoLqAAKADdM2p/BAgQIFAgoAAoAAWxsiQBAgQIdBdQABSA7hm1PwIECBAoEFAAFICCWFmSAAECBLoLKAAKQPeM2h8BAgQIFAgoAApAQawsSYAAAQLdBRQABaB7Ru2PAAECBAoEFAAFoCBWliRAgACB7gIKgALQPaP2R4AAAQIFAgqAAlAQK0sSIECAQHcBBUAB6J5R+yNAgACBAgEFQAEoiJUlCRAgQKC7gAKgAHTPqP0RIECAQIGAAqAAFMTKkgQIECDQXUABUAC6Z9T+CBAgQKBAQAFQAApiZUkCBAgQ6C6gACgA3TNqfwQIECBQIKAAKAAFsbIkAQIECHQXUAAUgO4ZtT8CBAgQKBBQABSAglhZkgABAgS6CygACkD3jNofAQIECBQIKAAKQEGsLEmAAAEC3QUUAAWge0btjwABAgQKBBQABaAgVpYkQIAAge4CCoAC0D2j9keAAAECBQIKgAJQECtLEiBAgEB3AQVAAeieUfsjQIAAgQIBBUABKIiVJQkQIECgu4ACoAB0z6j9ESBAgECBgAKgABTEypIECBAg0F1AAVAAumfU/ggQIECgQEABUAAKYmVJAgQIEOguoAAoAN0zan8ECBAgUCCgACgABbGyJAECBAh0F1AAFIDuGbU/AgQIECgQUAAUgIJYWZIAAQIEugsoAApA94zaHwECBAgUCCgACkBBrCxJgAABAt0FFAAFoHtG7Y8AAQIECgQUAAWgIFaWJECAAIHuAgqAAtA9o/ZHgAABAgUCCoACUBArSxIgQIBAdwEFQAHonlH7I0CAAIECAQVAASiIlSUJECBAoLuAAqAAdM+o/REgQIBAgYACoAAUxMqSBAgQINBdQAFQALpn1P4IECBAoEBAAVAACmJlSQIECBDoLqAAKADdM2p/BAgQIFAgoAAoAAWxsiQBAgQIdBdQABSA7hm1PwIECBAoEFAAFICCWFmSAAECBLoLKAAKQPeM2h8BAgQIFAgoAApAQawsSYAAAQLdBRQABaB7Ru2PAAECBAoEFAAFoCBWliRAgACB7gIKgALQPaP2R4AAAQIFAgqAAlAQK0sSIECAQHcBBUAB6J5R+yNAgACBAgEFQAEoiJUlCRAgQKC7gAKgAHTPqP0RIECAQIGAAqAAFMTKkgQIECDQXUABUAC6Z9T+CBAgQKBAQAFQAApiZUkCBAgQ6C6gACgA3TNqfwQIECBQIKAAKAAFsbIkAQIECHQXUAAUgO4ZtT8CBAgQKBBQABSAglhZkgABAgS6CygACkD3jNofAQIECBQIKAAKQEGsLEmAAAEC3QUUAAWge0btjwABAgQKBBQABaAgVpYkQIAAge4CCoAC0D2j9keAAAECBQIKgAJQECtLEiBAgEB3AQVAAeieUfsjQIAAgQIBBUABKIiVJQkQIECgu4ACoAB0z6j9ESBAgECBgAKgABTEypIECBAg0F1AAVAAumfU/ggQIECgQEABUAAKYmVJAgQIEOguoAAoAN0zan8ECBAgUCCgACgABbGyJAECBAh0F1AAFIDuGbU/AgQIECgQUAAUgIJYWZIAAQIEugsoAApA94zaHwECBAgUCCgACkBBrCxJgAABAt0FFAAFoHtG7Y8AAQIECgQUAAWgIFaWJECAAIHuAgqAAtA9o/ZHgAABAgUCCoACUBArSxIgQIBAdwEFQAHonlH7I0CAAIECAQVAASiIlSUJECBAoLuAAqAAdM+o/REgQIBAgYACoAAUxMqSBAgQINBdQAFQALpn1P4IECBAoEBAAVAACmJlSQIECBDoLqAAKADdM2p/BAgQIFAgoAAoAAWxsiQBAgQIdBdQABSA7hm1PwIECBAoEFAAFICCWFmSAAECBLoLKAAKQPeM2h8BAgQIFAgoAApAQawsSYAAAQLdBRQABaB7Ru2PAAECBAoEFAAFoCBWliRAgACB7gIKgALQPaP2R4AAAQIFAgqAAlAQK0sSIECAQHcBBUAB6J5R+yNAgACBAgEFQAEoiJUlCRAgQKC7gAKgAHTPqP0RIECAQIGAAqAAFMTKkgQIECDQXUABUAC6Z9T+CBAgQKBAQAFQAApiZUkCBAgQ6C6gACgA3TNqfwQIECBQIKAAKAAFsbIkAQIECHQXUAAUgO4ZtT8CBAgQKBBQABSAglhZkgABAgS6CygACkD3jNofAQIECBQIKAAKQEGsLEmAAAEC3QUUAAWge0btjwABAgQKBBQABaAgVpYkQIAAge4CCoAC0D2j9keAAAECBQIKgAJQECtLEiBAgEB3AQVAAeieUfsjQIAAgQIBBUABKIiVJQkQIECgu4ACoAB0z6j9ESBAgECBgAKgABTEypIECBAg0F1AAVAAumfU/ggQIECgQEABUAAKYmVJAgQIEOguoAAoAN0zan8ECBAgUCCgACgABbGyJAECBAh0F1AAFIDuGbU/AgQIECgQUAAUgIJYWZIAAQIEugsoAApA94zaHwECBAgUCCgACkBBrCxJgAABAt0FFAAFoHtG7Y8AAQIECgQUAAWgIFaWJECAAIHuAgqAAtA9o/ZHgAABAgUCCoACUBArSxIgQIBAdwEFQAHonlH7I0CAAIECAQVAASiIlSUJECBAoLuAAqAAdM+o/REgQIBAgYACoAAUxMqSBAgQINBdQAFQALpn1P4IECBAoEBAAVAACmJlSQIECBDoLqAAKADdM2p/BAgQIFAgoAAoAAWxsiQBAgQIdBdQABSA7hm1PwIECBAoEFAAFICCWFmSAAECBLoLKAAKQPeM2h8BAgQIFAgoAApAQawsSYAAAQLdBRQABaB7Ru2PAAECBAoEFAAFoCBWliRAgACB7gIKgALQPaP2R4AAAQIFAgqAAlAQK0sSIECAQHcBBUAB6J5R+yNAgACBAgEFQAEoiJUlCRAgQKC7gAKgAHTPqP0RIECAQIGAAqAAFMTKkgQIECDQXUABUAC6Z9T+CBAgQKBAQAFQAApiZUkCBAgQ6C6gACgA3TNqfwQIECBQIKAAKAAFsbIkAQIECHQXUAAUgO4ZtT8CBAgQKBBQABSAglhZkgABAgS6CygACkD3jNofAQIECBQIKAAKQEGsLEmAAAEC3QUUAAWge0btjwABAgQKBBQABaAgVpYkQIAAge4CCoAC0D2j9keAAAECBQIKgAJQECtLEiBAgEB3AQVAAeieUfsjQIAAgQIBBUABKIiVJQkQIECgu4ACoAB0z6j9ESBAgECBgAKgABTEypIECBAg0F1AAVAAumfU/ggQIECgQEABUAAKYmVJAgQIEOguoAAoAN0zan8ECBAgUCCgACgABbGyJAECBAh0F1AAFIDuGbU/AgQIECgQUAAUgIJYWZIAAQIEugsoAApA94zaHwECBAgUCCgACkBBrCxJgAABAt0FFAAFoHtG7Y8AAQIECgQUAAWgIFaWJECAAIHuAgqAAtA9o/ZHgAABAgUCCoACUBArSxIgQIBAdwEFQAHonlH7I0CAAIECAQVAASiIlSUJECBAoLuAAqAAdM+o/REgQIBAgYACoAAUxMqSBAgQINBdQAFQALpn1P4IECBAoEBAAVAACmJlSQIECBDoLqAAKADdM2p/BAgQIFAgoAAoAAWxsiQBAgQIdBdQABSA7hm1PwIECBAoEFAAFICCWFmSAAECBLoLKAAKQPeM2h8BAgQIFAgoAApAQawsSYAAAQLdBRQABaB7Ru2PAAECBAoEFAAFoCBWliRAgACB7gIKgALQPaP2R4AAAQIFAgqAAlAQK0sSIECAQHcBBUAB6J5R+yNAgACBAgEFQAEoiJUlCRAgQKC7gAKgAHTPqP0RIECAQIGAAqAAFMTKkgQIECDQXUABUAC6Z9T+CBAgQKBAQAFQAApiZUkCBAgQ6C6gACgA3TNqfwQIECBQIKAAKAAFsbIkAQIECHQXUAAUgO4ZtT8CBAgQKBBQABSAglhZkgABAgS6CygACkD3jNofAQIECBQIKAAKQEGsLEmAAAEC3QUUAAWge0btjwABAgQKBBQABaAgVpYkQIAAge4CCoAC0D2j9keAAAECBQIKgAJQECtLEiBAgEB3AQVAAeieUfsjQIAAgQIBBUABKIiVJQkQIECgu4ACoAB0z6j9ESBAgECBgAKgABTEypIECBAg0F1AAVAAumfU/ggQIECgQEABUAAKYmVJAgQIEOguoAAoAN0zan8ECBAgUCCgACgABbGyJAECBAh0F1AAFIDuGbU/AgQIECgQUAAUgIJYWZIAAQIEugsoAApA94zaHwECBAgUCCgACkBBrCxJgAABAt0FFAAFoHtG7Y8AAQIECgQUgIIC8GlrBoNg4DqQARmQgR1lAOSOIA1nw1kGZEAGZGCkDCgACoAMyIAMyIAMTJgBJ33Ckz5SQ7VXz6hkQAZkoCYDCoACIAMyIAMyIAMTZsBJn/Cka9M1bZorVxmQgZEyoAAoADIgAzIgAzIwYQac9AlP+kgN1V49o5IBGZCBmgwoAAqADMiADMiADEyYASd9wpOuTde0aa5cZUAGRsqAAqAAyIAMyIAMyMCEGXDSJzzpIzVUe/WMSgZkQAZqMqAAKAAyIAMyIAMyMGEGnPQJT7o2XdOmuXKVARkYKQMKgAIgAzIgAzIgAxNmwEmf8KSP1FDt1TMqGZABGajJgAKgAMiADMiADMjAhBlw0ic86dp0TZvmylUGZGCkDCgACoAMyIAMyIAMTJgBJ33Ckz5SQ7VXz6hkQAZkoCYDCoACIAMyIAMyIAMTZsBJn/Cka9M1bbqz62MR8ZcR8a6I+KmIuDEirj3xT/46fy//X/6Z/LOd/y725vzIwG4y4EJ3s5OBPc3AQxHxgYi4PiI+J7Y/8s/mx+TH5hputgxkYD8z4OJ2g5OBPcvAIxHxqxHxvO1n/sY/mWvkWrmmIcBABvYrAy5qNzYZ2KMM/E5EfNnGcX74/5Fr5toGAAMZ2J8MuKDd1GRgDzKQL9V/7+Hn+9YfmY/h0wL7MwAM87nPpZv/Htz8XcRzX8T/FhFft/UIP/ofzMfKx5Q7BjIwdgZcxG5kMjBwBu469jn6y48+0895hXzMfGwDgIEMjJsBF7CbmAwMmoGPR8SV5zy6d/cB+di5BwOAgQyMmQEXrxuYDAyYgfyq/JfubpYfeqXcg+8QGPPmb2g7b27+A978Xbgu3DcdemTv/gNzLzLJQAbGy4AL181LBgbLwB0Rcf7u5/ihV8y95J4MAAYyMFYGXLRuXDIwWAZefuhRXfeBuSc3fwYyMFYGXLRuXDIwUAY+WDfDj7xy7s0AYCAD42TABeumJQMDZeAlRx7TdQvk3tz8GcjAOBlwwbppycAgGbi/2ef+D1aJ/FqA3KMBwEAGxsiAi9UNSwYGycAtByduw//OPbr5M5CBMTLgYnXDkoFBMvCKhgP/4JZyj27+DGRgjAy4WN2wZGCADDwWERcdnLYN/zv3mHs1ABjIQP8MuFDdrGRggAw80HDYb9pS7tXNn4EM9M+AC9XNSgYGyMCHN03bhr+fe3XzZyAD/TPgQnWzkoEBMnBbw0G/aUu5Vzd/BjLQPwM+X+dm5WY9QAbesWnaNvz93KubPwMZ6J2B/Fqd8Pm63ifJReT8ZAbe23DQb9pS7lVuGchA7wwc/7qiv3WxulnJQPsM/Pmmadvw93Ovbv4MZKB3BnL2x++6WN2sZKB9Bu5tOOg3bSn36ubPQAZ6ZyBnf/yKi9XNSgbaZ+DhiDhv08Rt9Pu5x9yrmz8DGeidgZz98RYXq5uVDAyRgRc0GvSbtpJ7dONnIAP9M5CzP653wbphycAQGXjrpqnb6Pdzj27+DGSgfwZy9of37u5/olxMzlFm4O8aDfpNW8k9yisDGeifgeM/W+QrXLBuWDIwTAa+cNPkbfD7uTc3fgYyMEYGcvbHMyLi/1y4blwyMEQG3tZg0G/aQu7NzZ+BDPTPQM78nP3Hjw+6cN24ZGCIDDwUEV9w8sJt9O/cU+7NzZ+BDPTPQM78U8eNLlw3LhkYJgPvPnXl9vlF7smNn4EMjJGBnPmnjitcvG5eMjBMBvI9vL/q1NW7/i9yL7knN38GMjBGBnLmP+7wIzzHOHEuMOcpM3BfRFz2uCt4nf/IPeRe5JKBDIyRgSf90eLeEGiMk+cic55OZiDfc//Cdeb+8UfNx/a+//J4Mo/+PUYWjr8B0MH7hnfwGuPkucicp9MzkJ97P//gxbzAf+dj+ry/LJ6eRb8eIw8b31HUS3ljnEAXmvN0egZ+OyIuXWDon3yIfKx8zNP34Nc8ZKB/BnLGbzx+zEXtpiYDQ2bgzohY4k2C8jHysdzsGcjAeBnIGb/x+MyIeMDF7eYmA0Nm4D8i4juLfmpg/pS/XDsfw42fgQyMl4Gc7Tnjz3jc4AJ3g5OBoTPwNxHxTWe8ys/tf+ZauaabPgMZGDcDOdvPejz1WNO/x8XuZicDw2fgDyPidRHxzLNe9U/8A/kx+bG5hps+AxkYOwM503O2b3Vc66J305OBvcnAIxHxxxFxU0R8S0RcExGffeJTBfnSfv46fy//X/6Z/LP5MW76DGRgPzKQM/2cDt/fux8n3gXsPG7KQP5AED8ITD425cPv70c2cpaf8/EizwA8A5IBGZABGZCBoTOQs/xQx3uc+KFPvAa/Hw3eeXQeZUAGDpOBnOGHPi6JiDuUACVABmRABmRABobKQM7unOFHOj4/Iv7diR/qxB+mKfoYzzBkQAZkYD8ykDM7Z/dOjhdHxMNKgBIgAzIgAzIgA60zkLM6Z/ZOjzc66a1Puua+H83deXQeZUAGjpKBnNUlx9uVACVABmRABmRABlpmIGd02fGUiLjdiW954o/SGH2sZxwyIAMyMHYGcjbnjC49Ljz2U8fepQQoATIgAzIgAzLQIgM5k3M2L3a8OSIedfJbnHzNfezm7vw5fzIgA4fJQM7gnMWrHPne4Z9UApQAGZABGZABGVg0Azl7cwavenyJnx646Ek/TEv0MZ5dyIAMyMD+ZCB/ul/O3hbHZ/niQCVA+5cBGZABGSjPQH6xX87cVscFEfHdEfFRASgPgCa/P03euXQuZUAGtslAztacsTlr2x4XH3vXwB/xtQFKgCIoAzIgAzJw5Azk5/pzpuZsHeZ4dkT8orcQPvLJ36YZ+jOeQciADMjAfmUg39I3Z2jO0mGPLzr2xQq/HhGPaYLKgAzIgAzIgAycMQM5K3Nm5uzcm+N5EfF9EfEHXhU448nX4verxTufzqcMyMDZMpDP9nM25ozMWbnXxzMi4tUnWs6D2qBCIAMyIAMyMFkGcvblM/2chTkTpzw+IyJeHhFvjYhbIuK2iLgjIvLnGfu0geZ8tubs/8uIDMhA1wzkDMtZljMtZ1vOuJx1OfNy9jnOIJBAV0TE10TEt0bEdf5hsOMMPDTZs46uN8o19pU3Z/cUBrvOQM6qnFk5uwz5Mwx4/4vAmgL5k7PWGDwes4/709cMoMcmQIAAgXUEnqMATF+ALl8neh6VAAECBNYUuEoBmL4AXL1mAD02AQIECKwj8EIFYPoC8A3rRM+jEiBAgMCaAt+sAExfAF61ZgA9NgECBAisI/AdCsD0BeAN60TPoxIgQIDAmgI3KADTF4AfXDOAHpsAAQIE1hH4UQVg+gLwE+tEz6MSIECAwJoCP68ATF8AfmnNAHpsAgQIEFhH4J0KwPQF4D3rRM+jEiBAgMCaAu9TAKYvAL+/ZgA9NgECBAisI/CnCsD0BeCv1omeRyVAgACBNQXuVACmLwD3rBlAj02AAAEC6wh8TAGYvgB8fJ3oeVQCBAgQWEvgUsN/+uF/8qcyPmutEHpcAgQIEFhe4KsVAAXgRAa+fvn4eUQCBAgQWEvguxQABeBEBq5fK4QelwABAgSWF7hZAVAATmTgbcvHzyMSIECAwFoC71cAFIATGbh9rRB6XAIECBBYXuCfFAAF4EQGPrJ8/DwiAQIECKwhcHFEPKYAKACnZeAZawTRYxIgQIDAsgIvOO3Gf/Jbwfw7pi4EL1w2gh6NAAECBNYQeI0CMPWwf7Ky94Y1gugxCRAgQGBZgZ9UABSAAxn42WUj6NEIECBAYA2B3zpw83+yZ4R+b65PCdy2RhA9JgECBAgsK3C3AuAVgAMZ+JdlI+jRCBAgQGBpgQsj4pEDN3/P9ud6tv9k5zu/K+SSpcPo8QgQIEBgOYGrDX/P/jdk4CuXi6FHIkCAAIGlBa7bcPN/smeFfm+uVwZeu3QYPR4BAgQILCfgOwDmGurnUuJ+ZrkYeiQCBAgQWFrgL7wC4FMAGzLw10uH0eMRIECAwDIC+XavvgDQKwCbXhXILwR89jJR9CgECBAgsKTAKzc889s0EPz+fGXh25cMpMciQIAAgWUE3q4AePn/LBm4ZZkoehQCBAgQWFLgrrPc/D3jn+8Z/8Fzfu+SgfRYBAgQIFAvcLnh79n/lhm4qj6OHoEAAQIElhJ4/ZY3/4PPCP33fK8K3LBUKD0OAQIECNQL/KYC4BWALTPwe/Vx9AgECBAgsITAsyLioS1v/p7xz/eM/+A5z28V/dwlgukxCBAgQKBW4PsNf8/+zzEDP1QbSasTIECAwBICHzrHm//BZ4T+e75XBf7k6ZT0AAAFC0lEQVR+iWB6DAIECBCoE3i+4e/Z/yEz8OV1sbQyAQIECFQL5A948QyewWEy8AvV4bQ+AQIECNQIXBARH1MAFKBDZuD+iHhKTTStSoAAAQKVAt773zP/wzzzP/1jXlUZUGsTIECAwO4FzouIDx/ymd/pA8Cv5y4RmaHMkoMAAQIEBhG4zvD30v+OMvDqQTJvmwQIEJheID9ve/eObv5eAZj7FYA8//f4WoDp7ykACBAYROB7DH/P/necgTcOkn3bJECAwLQCF0bEv+745u9VAK8CfCQinjbtVeUvToAAgQEEbjL8PfsvyoC3Bx7gBmCLBAjMKXBlRHyy6ObvVQCvAjwYEV8856Xlb02AAIG+Ahf5tj/P/Bcof/kzAi7uexnYGQECBOYTuGWBm79XAbwKkBn4tfkuL39jAgQI9BR4neHv2f/CGcjvNHEQIECAwIoC+dP+PrXwzd8rAV4J+N+IuGbF3HtoAgQITC3w3Ij4B8Pfs/+VMvCPEXH51FegvzwBAgRWEMhn/vetdOP3CoBXAE5m4KMRcfUK+feQBAgQmFLgGyPiE4a/Z/5NMpDfevrSKa9Ef2kCBAgsJHBBRNwYEQ83ufGffBbo314RyExmNjOjDgIECBDYocDLIuJOg9+z/uYZyIxmVh0ECBAgcASBfDb14oj4QPObvlcAvAJwMAOZ2cyuVwSOcAPwoQQIzCNwXkRcFhHXRcS7I+I/DX7P+AfPQGY4s5yZzmxnxh0ECBCYUiCfEX1pRLwmIn4uIt4fER+KiPxpaz6375n0wWfS+/bfmfHMemY+s5/XQF4LeU14tWDKW6K/NIH9F7g0In7Zm/Z4Rj/4M/rKQpJvaJXXSF4rDgIECOyFQH4u9J/d+A1/GdgqA3mt5DXjIECAwNACPxwRj7rxb3Xjr3x2ae2xPr2S10xeOw4CBAgMKZDPYgz/sQaPotDnfOW145WAIW99Nk1gboH8PKaX/fsME4N9zHOR15CvCZj7XupvT2A4gfxiJkOHgQwcPQN5LTkIECAwhEB+O5Mf0Xv0G7/hyTAzkNeSbxEc4tZnkwQI5Pc0G14MZGB3GchrykGAAIH2AvnGJm7+DGRgdxnIa8pBgACB9gL57mZu/gxkYHcZyGvKQYAAgfYCCsDubvyGKMvMgALQ/rZngwQIpIBPARhaistuM+BTAO6tBAgMIeCLAHd78zdMefoiwCFufTZJgIBvAzSwlJbdZcC3AbqnEiAwlIA3AtrdADBM57b0RkBD3fpslgABbwU899BSWnZz/r0VsHspAQJDCvhhQLsZAobpnI5+GNCQtz2bJkDgpIAfBzzn8FJajnbe/Tjgk3cQ/yZAYGiBfCXATwY82kAwUOfxy2vFjwEe+pZn8wQInC6QXxOQX8zkhwTNM8iUlnM713lt5DXix/+efufwawIE9kYgv0Uwv6c539gk393sVv8wmDgDeQ3ktZDXhJ/4tze3OX8RAgQIECBAgAABAgQIECBAgAABAgQIECBAgAABAgQIECBAgAABAgQIECBAgAABAgQIECBAgAABAgQIECBAgAABAgQIECBAgAABAgQIECBAgAABAgQIECBAgAABAgQIECBAgAABAgQIECBAgAABAgQIECBAgAABAgQIECBAgAABAgQIECBAgAABAgQIECBAgAABAgQIECBAgAABAgQIECBAgAABAgQIECBAgAABAgQIECBAgAABAgQIECBAYFGB/weYp6W9gz/P9AAAAABJRU5ErkJggg==;" vertex="1" parent="1">
          <mxGeometry x="520" y="320" width="40" height="40" as="geometry" />
        </mxCell>
        <mxCell id="tM-sLUK_iXSUUSvi_UQe-16" value="" style="shape=image;verticalLabelPosition=bottom;labelBackgroundColor=default;verticalAlign=top;aspect=fixed;imageAspect=0;image=data:image/png,iVBORw0KGgoAAAANSUhEUgAAAgAAAAIACAYAAAD0eNT6AAAAAXNSR0IArs4c6QAAIABJREFUeAHt3WusZWdZB/CnLVjaUolcrEJqvaQ1KmkqXoKKYAwGNCEB02hRAoJKE1MbqvJBEz+Al2g1Kob4QWtAQkI1wYhiUSuaaOItqFT7obbx0grBVkWoQdPaFueZzEymp90ze87Zz1rPu9/fSppOp3Pe/c5v/dd6/nufc/aJcBAgQIAAAQIECBAgQIAAAQIECBAgQIAAAQIECBAgQIAAAQIECBAgQIAAAQIECBAgQIAAAQIECBAgQIAAAQIECBAgQIAAAQIECBAgQIAAAQIECBAgQIAAAQIECBAgQIAAAQIECBAgQIAAAQIECBAgQIAAAQIECBAgQIAAAQIECBAgQIAAAQIECBAgQIAAAQIECBAgQIAAAQIECBAgQIAAAQIECBAgQIAAAQIECBAgQIAAAQIECBAgQIAAAQJlAk+PiCsj4iURcV1E3BQRN0fEuyLiVv8wkAEZkAEZaJyBnFU5s3J25QzLWZYzLWeb4zSBiyPilRHxzoi4OyL+OyI+7R8GMiADMiADe5iBnHE563Lm5ezLGTjV8ZyIeH1EvC8i/mcPT7ACo8TJgAzIgAxsk4GcgTkLcybmbNzL45kR8QMR8ScR8aihr9nLgAzIgAzIwOMykLMxZ2TOypyZwx9Pi4g3R8R/OdGPO9HbNEN/xjMIGZABGZgzAzkzc3bmDB3uOD8iXnvsZY17DX6DXwZkQAZkQAYOlYGcoTlLc6YOcbzs2Bc3fNjJPtTJ1vbnbPvOu/MuAzJwpgzkTM3Z2va4KiJuN/gNfhmQARmQARkoyUDO2Jy1rY6XR8QnnPCSE36mVuj/edYgAzIgA3NlIGdtztwWR37F4iOGv+EvAzIgAzIgA4tkIGduzt7Vjgsj4h1O9iInW8Ofq+E73863DMjANhnIGZyzeNHjsoj4M8Pf8JcBGZABGZCBVTOQszhn8iLHNRFxnxO+6gnfphn6M55ByIAMyMAcGciZnLO59LgiIh4w/A1/GZABGZABGWiVgZzNOaNLjkt8f3+rk63Zz9HsnWfnWQZkYNsM5PsF5Kze6XFeRLxX21MAZEAGZEAGZKB1BnJW58ze2fEWJ7z1Cd+2HfpznknIgAzIwP5nIGf2To5rI+IxBUABkAEZkAEZkIEhMpAzO2f3kY78qsJPOeFDnHCtfv9bvXPsHMuADGybgZzdh/7OgKdGxN2Gv+EvAzIgAzIgA0NmIGd4zvJzPm5wwoc84du2Q3/OMwkZkAEZ2P8M5Cw/p+NS3+9v+CuAMiADMiADw2cg3x8gZ/rWx4876cOfdM1+/5u9c+wcy4AMbJOBnOlbHc/1hX+GvwIoAzIgAzKwNxnILwjM2X7W4xYnfW9O+jbN0J/xDEIGZEAG9j8DOdvPeDw/IvLnDAsDAxmQARmQARnYnwzkbM8Zv/H4DcNf+ZEBGZABGZCBvcxAzvgnPS7yuf+9POEa/P40eOfSuZQBGThKBvJrAXLWP+F4hcanAMiADMiADMjAXmcgZ/0TDl/8p1kepVn6WPmRARmQgf4ZeMIXA54fEfdrfXvd+lyY/S9M58g5kgEZqM5Azvqc+aeOrzX8DX8ZkAEZkAEZmCIDOfNPHT/tpE9x0qubpfU9e5EBGZCB/hnImX/quEsBUABkQAZkQAZkYIoM5Mw/fnyeEz7FCdfK+7dy58g5kgEZWCoDOfvjRQqAAiADMiADMiADU2UgZ398m5M+1Ulfql16HM9kZEAGZKBvBnL2x5sUAAVABmRABmRABqbKQM7+uNlJn+qka+R9G7lz49zIgAwslYGc/fFuBUABkAEZkAEZkIGpMpCzP/7ISZ/qpC/VLj2OZzIyIAMy0DcDOfvDewD0PUEuHudGBmRABmSgIgPH3wvgQa8AeAVABmRABmRABqbKQM7+Yf7Ct+ZmHQQIECBAoLFAzqqKZ+wVaw6zUQWgceJtjQABAgSOCygABQ1IAXB1ESBAgEB3AQVAAeieUfsjQIAAgQIBBUABKIiVJQkQIECgu4ACoAB0z6j9ESBAgECBgAKgABTEypIECBAg0F1AAVAAumfU/ggQIECgQEABUAAKYmVJAgQIEOguoAAoAN0zan8ECBAgUCCgACgABbGyJAECBAh0F1AAFIDuGbU/AgQIECgQUAAUgIJYWZIAAQIEugsoAApA94zaHwECBAgUCCgACkBBrCxJgAABAt0FFAAFoHtG7Y8AAQIECgQUAAWgIFaWJECAAIHuAgqAAtA9o/ZHgAABAgUCCoACUBArSxIgQIBAdwEFQAHonlH7I0CAAIECAQVAASiIlSUJECBAoLuAAqAAdM+o/REgQIBAgYACoAAUxMqSBAgQINBdQAFQALpn1P4IECBAoEBAAVAACmJlSQIECBDoLqAAKADdM2p/BAgQIFAgoAAoAAWxsiQBAgQIdBdQABSA7hm1PwIECBAoEFAAFICCWFmSAAECBLoLKAAKQPeM2h8BAgQIFAgoAApAQawsSYAAAQLdBRQABaB7Ru2PAAECBAoEFAAFoCBWliRAgACB7gIKgALQPaP2R4AAAQIFAgqAAlAQK0sSIECAQHcBBUAB6J5R+yNAgACBAgEFQAEoiJUlCRAgQKC7gAKgAHTPqP0RIECAQIGAAqAAFMTKkgQIECDQXUABUAC6Z9T+CBAgQKBAQAFQAApiZUkCBAgQ6C6gACgA3TNqfwQIECBQIKAAKAAFsbIkAQIECHQXUAAUgO4ZtT8CBAgQKBBQABSAglhZkgABAgS6CygACkD3jNofAQIECBQIKAAKQEGsLEmAAAEC3QUUAAWge0btjwABAgQKBBQABaAgVpYkQIAAge4CCoAC0D2j9keAAAECBQIKgAJQECtLEiBAgEB3AQVAAeieUfsjQIAAgQIBBUABKIiVJQkQIECgu4ACoAB0z6j9ESBAgECBgAKgABTEypIECBAg0F1AAVAAumfU/ggQIECgQEABUAAKYmVJAgQIEOguoAAoAN0zan8ECBAgUCCgACgABbGyJAECBAh0F1AAFIDuGbU/AgQIECgQUAAUgIJYWZIAAQIEugsoAApA94zaHwECBAgUCCgACkBBrCxJgAABAt0FFAAFoHtG7Y8AAQIECgQUAAWgIFaWJECAAIHuAgqAAtA9o/ZHgAABAgUCCoACUBArSxIgQIBAdwEFQAHonlH7I0CAAIECAQVAASiIlSUJECBAoLuAAqAAdM+o/REgQIBAgYACoAAUxMqSBAgQINBdQAFQALpn1P4IECBAoEBAAVAACmJlSQIECBDoLqAAKADdM2p/BAgQIFAgoAAoAAWxsiQBAgQIdBdQABSA7hm1PwIECBAoEFAAFICCWFmSAAECBLoLKAAKQPeM2h8BAgQIFAgoAApAQawsSYAAAQLdBRQABaB7Ru2PAAECBAoEFAAFoCBWliRAgACB7gIKgALQPaP2R4AAAQIFAgqAAlAQK0sSIECAQHcBBUAB6J5R+yNAgACBAgEFQAEoiJUlCRAgQKC7gAKgAHTPqP0RIECAQIGAAqAAFMTKkgQIECDQXUABUAC6Z9T+CBAgQKBAQAFQAApiZUkCBAgQ6C6gACgA3TNqfwQIECBQIKAAKAAFsbIkAQIECHQXUAAUgO4ZtT8CBAgQKBBQABSAglhZkgABAgS6CygACkD3jNofAQIECBQIKAAKQEGsLEmAAAEC3QUUAAWge0btjwABAgQKBBQABaAgVpYkQIAAge4CCoAC0D2j9keAAAECBQIKgAJQECtLEiBAgEB3AQVAAeieUfsjQIAAgQIBBUABKIiVJQkQIECgu4ACoAB0z6j9ESBAgECBgAKgABTEypIECBAg0F1AAVAAumfU/ggQIECgQEABUAAKYmVJAgQIEOguoAAoAN0zan8ECBAgUCCgACgABbGyJAECBAh0F1AAFIDuGbU/AgQIECgQUAAUgIJYWZIAAQIEugsoAApA94zaHwECBAgUCCgACkBBrCxJgAABAt0FFAAFoHtG7Y8AAQIECgQUAAWgIFaWJECAAIHuAgqAAtA9o/ZHgAABAgUCCoACUBArSxIgQIBAdwEFQAHonlH7I0CAAIECAQVAASiIlSUJECBAoLuAAqAAdM+o/REgQIBAgYACoAAUxMqSBAgQINBdQAFQALpn1P4IECBAoEBAAVAACmJlSQIECBDoLqAAKADdM2p/BAgQIFAgoAAoAAWxsiQBAgQIdBdQABSA7hm1PwIECBAoEFAAFICCWFmSAAECBLoLKAAKQPeM2h8BAgQIFAgoAApAQawsSYAAAQLdBRQABaB7Ru2PAAECBAoEFAAFoCBWliRAgACB7gIKgALQPaP2R4AAAQIFAgqAAlAQK0sSIECAQHcBBUAB6J5R+yNAgACBAgEFQAEoiJUlCRAgQKC7gAKgAHTPqP0RIECAQIGAAqAAFMTKkgQIECDQXUABUAC6Z9T+CBAgQKBAQAFQAApiZUkCBAgQ6C6gACgA3TNqfwQIECBQIKAAKAAFsbIkAQIECHQXUAAUgO4ZtT8CBAgQKBBQABSAglhZkgABAgS6CygACkD3jNofAQIECBQIKAAKQEGsLEmAAAEC3QUUAAWge0btjwABAgQKBBQABaAgVpYkQIAAge4CCoAC0D2j9keAAAECBQIKgAJQECtLEiBAgEB3AQVAAeieUfsjQIAAgQIBBUABKIiVJQkQIECgu4ACoAB0z6j9ESBAgECBgAKgABTEypIECBAg0F1AAVAAumfU/ggQIECgQEABUAAKYmVJAgQIEOguoAAoAN0zan8ECBAgUCCgACgABbGyJAECBAh0F1AAFIDuGbU/AgQIECgQUAAUgIJYWZIAAQIEugsoAApA94zaHwECBAgUCCgACkBBrCxJgAABAt0FFAAFoHtG7Y8AAQIECgQUAAWgIFaWJECAAIHuAgqAAtA9o/ZHgAABAgUCCoACUBArSxIgQIBAdwEFQAHonlH7I0CAAIECAQVAASiIlSUJECBAoLuAAqAAdM+o/REgQIBAgYACoAAUxMqSBAgQINBdQAFQALpn1P4IECBAoEBAAVAACmJlSQIECBDoLqAAKADdM2p/BAgQIFAgoAAoAAWxsiQBAgQIdBdQABSA7hm1PwIECBAoEFAAFICCWFmSAAECBLoLKAAKQPeM2h8BAgQIFAgoAApAQawsSYAAAQLdBRQABaB7Ru2PAAECBAoEFAAFoCBWliRAgACB7gIKgALQPaP2R4AAAQIFAgqAAlAQK0sSIECAQHcBBUAB6J5R+yNAgACBAgEFQAEoiJUlCRAgQKC7gAKgAHTPqP0RIECAQIGAAqAAFMTKkgQIECDQXUABUAC6Z9T+CBAgQKBAQAFQAApiZUkCBAgQ6C6gACgA3TNqfwQIECBQIKAAKAAFsbIkAQIECHQXUAAUgO4ZtT8CBAgQKBBQABSAglhZkgABAgS6CygACkD3jNofAQIECBQIKAAKQEGsLEmAAAEC3QUUAAWge0btjwABAgQKBBQABaAgVpYkQIAAge4CCoAC0D2j9keAAAECBQIKgAJQECtLEiBAgEB3AQVAAeieUfsjQIAAgQIBBUABKIiVJQkQIECgu4ACoAB0z6j9ESBAgECBgAKgABTEypIECBAg0F1AAVAAumfU/ggQIECgQEABUAAKYmVJAgQIEOguoAAoAN0zan8ECBAgUCCgACgABbGyJAECBAh0F1AAFIDuGbU/AgQIECgQUAAUgIJYWZIAAQIEugsoAApA94zaHwECBAgUCCgACkBBrCxJgAABAt0FFAAFoHtG7Y8AAQIECgQUAAWgIFaWJECAAIHuAgqAAtA9o/ZHgAABAgUCCoACUBArSxIgQIBAdwEFQAHonlH7I0CAAIECAQVAASiIlSUJECBAoLuAAqAAdM+o/REgQIBAgYACoAAUxMqSBAgQINBdQAFQALpn1P4IECBAoEBAAVAACmJlSQIECBDoLqAAKADdM2p/BAgQIFAgoAAoAAWxsiQBAgQIdBdQABSA7hm1PwIECBAoEFAAFICCWFmSAAECBLoLKAAKQPeM2h8BAgQIFAgoAApAQawsSYAAAQLdBRQABaB7Ru2PAAECBAoEFAAFoCBWliRAgACB7gIKgALQPaP2R4AAAQIFAgqAAlAQK0sSIECAQHcBBUAB6J5R+yNAgACBAgEFQAEoiJUlCRAgQKC7gAKgAHTPqP0RIECAQIGAAqAAFMTKkgQIECDQXUABUAC6Z9T+CBAgQKBAQAFQAApiZUkCBAgQ6C6gACgA3TNqfwQIECBQIKAAKAAFsbIkAQIECHQXUAAUgO4ZtT8CBAgQKBBQABSAglhZkgABAgS6CygACkD3jNofAQIECBQIKAAKQEGsLEmAAAEC3QUUAAWge0btjwABAgQKBBQABaAgVpYkQIAAge4CCoAC0D2j9keAAAECBQIKgAJQECtLEiBAgEB3AQVAAeieUfsjQIAAgQIBBUABKIiVJQkQIECgu4ACoAB0z6j9ESBAgECBgAKgABTEypIECBAg0F1AAVAAumfU/ggQIECgQEABUAAKYmVJAgQIEOguoAAoAN0zan8ECBAgUCCgACgABbGyJAECBAh0F1AAFIDuGbU/AgQIECgQUAAUgIJYWZIAAQIEugsoAApA94zaHwECBAgUCCgACkBBrCxJgAABAt0FFAAFoHtG7Y8AAQIECgQUgIIC8GlrBoNg4DqQARmQgR1lAOSOIA1nw1kGZEAGZGCkDCgACoAMyIAMyIAMTJgBJ33Ckz5SQ7VXz6hkQAZkoCYDCoACIAMyIAMyIAMTZsBJn/Cka9M1bZorVxmQgZEyoAAoADIgAzIgAzIwYQac9AlP+kgN1V49o5IBGZCBmgwoAAqADMiADMiADEyYASd9wpOuTde0aa5cZUAGRsqAAqAAyIAMyIAMyMCEGXDSJzzpIzVUe/WMSgZkQAZqMqAAKAAyIAMyIAMyMGEGnPQJT7o2XdOmuXKVARkYKQMKgAIgAzIgAzIgAxNmwEmf8KSP1FDt1TMqGZABGajJgAKgAMiADMiADMjAhBlw0ic86dp0TZvmylUGZGCkDCgACoAMyIAMyIAMTJgBJ33Ckz5SQ7VXz6hkQAZkoCYDCoACIAMyIAMyIAMTZsBJn/Cka9M1bbqz62MR8ZcR8a6I+KmIuDEirj3xT/46fy//X/6Z/LOd/y725vzIwG4y4EJ3s5OBPc3AQxHxgYi4PiI+J7Y/8s/mx+TH5hputgxkYD8z4OJ2g5OBPcvAIxHxqxHxvO1n/sY/mWvkWrmmIcBABvYrAy5qNzYZ2KMM/E5EfNnGcX74/5Fr5toGAAMZ2J8MuKDd1GRgDzKQL9V/7+Hn+9YfmY/h0wL7MwAM87nPpZv/Htz8XcRzX8T/FhFft/UIP/ofzMfKx5Q7BjIwdgZcxG5kMjBwBu469jn6y48+0895hXzMfGwDgIEMjJsBF7CbmAwMmoGPR8SV5zy6d/cB+di5BwOAgQyMmQEXrxuYDAyYgfyq/JfubpYfeqXcg+8QGPPmb2g7b27+A978Xbgu3DcdemTv/gNzLzLJQAbGy4AL181LBgbLwB0Rcf7u5/ihV8y95J4MAAYyMFYGXLRuXDIwWAZefuhRXfeBuSc3fwYyMFYGXLRuXDIwUAY+WDfDj7xy7s0AYCAD42TABeumJQMDZeAlRx7TdQvk3tz8GcjAOBlwwbppycAgGbi/2ef+D1aJ/FqA3KMBwEAGxsiAi9UNSwYGycAtByduw//OPbr5M5CBMTLgYnXDkoFBMvCKhgP/4JZyj27+DGRgjAy4WN2wZGCADDwWERcdnLYN/zv3mHs1ABjIQP8MuFDdrGRggAw80HDYb9pS7tXNn4EM9M+AC9XNSgYGyMCHN03bhr+fe3XzZyAD/TPgQnWzkoEBMnBbw0G/aUu5Vzd/BjLQPwM+X+dm5WY9QAbesWnaNvz93KubPwMZ6J2B/Fqd8Pm63ifJReT8ZAbe23DQb9pS7lVuGchA7wwc/7qiv3WxulnJQPsM/Pmmadvw93Ovbv4MZKB3BnL2x++6WN2sZKB9Bu5tOOg3bSn36ubPQAZ6ZyBnf/yKi9XNSgbaZ+DhiDhv08Rt9Pu5x9yrmz8DGeidgZz98RYXq5uVDAyRgRc0GvSbtpJ7dONnIAP9M5CzP653wbphycAQGXjrpqnb6Pdzj27+DGSgfwZy9of37u5/olxMzlFm4O8aDfpNW8k9yisDGeifgeM/W+QrXLBuWDIwTAa+cNPkbfD7uTc3fgYyMEYGcvbHMyLi/1y4blwyMEQG3tZg0G/aQu7NzZ+BDPTPQM78nP3Hjw+6cN24ZGCIDDwUEV9w8sJt9O/cU+7NzZ+BDPTPQM78U8eNLlw3LhkYJgPvPnXl9vlF7smNn4EMjJGBnPmnjitcvG5eMjBMBvI9vL/q1NW7/i9yL7knN38GMjBGBnLmP+7wIzzHOHEuMOcpM3BfRFz2uCt4nf/IPeRe5JKBDIyRgSf90eLeEGiMk+cic55OZiDfc//Cdeb+8UfNx/a+//J4Mo/+PUYWjr8B0MH7hnfwGuPkucicp9MzkJ97P//gxbzAf+dj+ry/LJ6eRb8eIw8b31HUS3ljnEAXmvN0egZ+OyIuXWDon3yIfKx8zNP34Nc8ZKB/BnLGbzx+zEXtpiYDQ2bgzohY4k2C8jHysdzsGcjAeBnIGb/x+MyIeMDF7eYmA0Nm4D8i4juLfmpg/pS/XDsfw42fgQyMl4Gc7Tnjz3jc4AJ3g5OBoTPwNxHxTWe8ys/tf+ZauaabPgMZGDcDOdvPejz1WNO/x8XuZicDw2fgDyPidRHxzLNe9U/8A/kx+bG5hps+AxkYOwM503O2b3Vc66J305OBvcnAIxHxxxFxU0R8S0RcExGffeJTBfnSfv46fy//X/6Z/LP5MW76DGRgPzKQM/2cDt/fux8n3gXsPG7KQP5AED8ITD425cPv70c2cpaf8/EizwA8A5IBGZABGZCBoTOQs/xQx3uc+KFPvAa/Hw3eeXQeZUAGDpOBnOGHPi6JiDuUACVABmRABmRABobKQM7unOFHOj4/Iv7diR/qxB+mKfoYzzBkQAZkYD8ykDM7Z/dOjhdHxMNKgBIgAzIgAzIgA60zkLM6Z/ZOjzc66a1Puua+H83deXQeZUAGjpKBnNUlx9uVACVABmRABmRABlpmIGd02fGUiLjdiW954o/SGH2sZxwyIAMyMHYGcjbnjC49Ljz2U8fepQQoATIgAzIgAzLQIgM5k3M2L3a8OSIedfJbnHzNfezm7vw5fzIgA4fJQM7gnMWrHPne4Z9UApQAGZABGZABGVg0Azl7cwavenyJnx646Ek/TEv0MZ5dyIAMyMD+ZCB/ul/O3hbHZ/niQCVA+5cBGZABGSjPQH6xX87cVscFEfHdEfFRASgPgCa/P03euXQuZUAGtslAztacsTlr2x4XH3vXwB/xtQFKgCIoAzIgAzJw5Azk5/pzpuZsHeZ4dkT8orcQPvLJ36YZ+jOeQciADMjAfmUg39I3Z2jO0mGPLzr2xQq/HhGPaYLKgAzIgAzIgAycMQM5K3Nm5uzcm+N5EfF9EfEHXhU448nX4verxTufzqcMyMDZMpDP9nM25ozMWbnXxzMi4tUnWs6D2qBCIAMyIAMyMFkGcvblM/2chTkTpzw+IyJeHhFvjYhbIuK2iLgjIvLnGfu0geZ8tubs/8uIDMhA1wzkDMtZljMtZ1vOuJx1OfNy9jnOIJBAV0TE10TEt0bEdf5hsOMMPDTZs46uN8o19pU3Z/cUBrvOQM6qnFk5uwz5Mwx4/4vAmgL5k7PWGDwes4/709cMoMcmQIAAgXUEnqMATF+ALl8neh6VAAECBNYUuEoBmL4AXL1mAD02AQIECKwj8EIFYPoC8A3rRM+jEiBAgMCaAt+sAExfAF61ZgA9NgECBAisI/AdCsD0BeAN60TPoxIgQIDAmgI3KADTF4AfXDOAHpsAAQIE1hH4UQVg+gLwE+tEz6MSIECAwJoCP68ATF8AfmnNAHpsAgQIEFhH4J0KwPQF4D3rRM+jEiBAgMCaAu9TAKYvAL+/ZgA9NgECBAisI/CnCsD0BeCv1omeRyVAgACBNQXuVACmLwD3rBlAj02AAAEC6wh8TAGYvgB8fJ3oeVQCBAgQWEvgUsN/+uF/8qcyPmutEHpcAgQIEFhe4KsVAAXgRAa+fvn4eUQCBAgQWEvguxQABeBEBq5fK4QelwABAgSWF7hZAVAATmTgbcvHzyMSIECAwFoC71cAFIATGbh9rRB6XAIECBBYXuCfFAAF4EQGPrJ8/DwiAQIECKwhcHFEPKYAKACnZeAZawTRYxIgQIDAsgIvOO3Gf/Jbwfw7pi4EL1w2gh6NAAECBNYQeI0CMPWwf7Ky94Y1gugxCRAgQGBZgZ9UABSAAxn42WUj6NEIECBAYA2B3zpw83+yZ4R+b65PCdy2RhA9JgECBAgsK3C3AuAVgAMZ+JdlI+jRCBAgQGBpgQsj4pEDN3/P9ud6tv9k5zu/K+SSpcPo8QgQIEBgOYGrDX/P/jdk4CuXi6FHIkCAAIGlBa7bcPN/smeFfm+uVwZeu3QYPR4BAgQILCfgOwDmGurnUuJ+ZrkYeiQCBAgQWFrgL7wC4FMAGzLw10uH0eMRIECAwDIC+XavvgDQKwCbXhXILwR89jJR9CgECBAgsKTAKzc889s0EPz+fGXh25cMpMciQIAAgWUE3q4AePn/LBm4ZZkoehQCBAgQWFLgrrPc/D3jn+8Z/8Fzfu+SgfRYBAgQIFAvcLnh79n/lhm4qj6OHoEAAQIElhJ4/ZY3/4PPCP33fK8K3LBUKD0OAQIECNQL/KYC4BWALTPwe/Vx9AgECBAgsITAsyLioS1v/p7xz/eM/+A5z28V/dwlgukxCBAgQKBW4PsNf8/+zzEDP1QbSasTIECAwBICHzrHm//BZ4T+e75XBf7k6ZT0AAAFC0lEQVR+iWB6DAIECBCoE3i+4e/Z/yEz8OV1sbQyAQIECFQL5A948QyewWEy8AvV4bQ+AQIECNQIXBARH1MAFKBDZuD+iHhKTTStSoAAAQKVAt773zP/wzzzP/1jXlUZUGsTIECAwO4FzouIDx/ymd/pA8Cv5y4RmaHMkoMAAQIEBhG4zvD30v+OMvDqQTJvmwQIEJheID9ve/eObv5eAZj7FYA8//f4WoDp7ykACBAYROB7DH/P/necgTcOkn3bJECAwLQCF0bEv+745u9VAK8CfCQinjbtVeUvToAAgQEEbjL8PfsvyoC3Bx7gBmCLBAjMKXBlRHyy6ObvVQCvAjwYEV8856Xlb02AAIG+Ahf5tj/P/Bcof/kzAi7uexnYGQECBOYTuGWBm79XAbwKkBn4tfkuL39jAgQI9BR4neHv2f/CGcjvNHEQIECAwIoC+dP+PrXwzd8rAV4J+N+IuGbF3HtoAgQITC3w3Ij4B8Pfs/+VMvCPEXH51FegvzwBAgRWEMhn/vetdOP3CoBXAE5m4KMRcfUK+feQBAgQmFLgGyPiE4a/Z/5NMpDfevrSKa9Ef2kCBAgsJHBBRNwYEQ83ufGffBbo314RyExmNjOjDgIECBDYocDLIuJOg9+z/uYZyIxmVh0ECBAgcASBfDb14oj4QPObvlcAvAJwMAOZ2cyuVwSOcAPwoQQIzCNwXkRcFhHXRcS7I+I/DX7P+AfPQGY4s5yZzmxnxh0ECBCYUiCfEX1pRLwmIn4uIt4fER+KiPxpaz6375n0wWfS+/bfmfHMemY+s5/XQF4LeU14tWDKW6K/NIH9F7g0In7Zm/Z4Rj/4M/rKQpJvaJXXSF4rDgIECOyFQH4u9J/d+A1/GdgqA3mt5DXjIECAwNACPxwRj7rxb3Xjr3x2ae2xPr2S10xeOw4CBAgMKZDPYgz/sQaPotDnfOW145WAIW99Nk1gboH8PKaX/fsME4N9zHOR15CvCZj7XupvT2A4gfxiJkOHgQwcPQN5LTkIECAwhEB+O5Mf0Xv0G7/hyTAzkNeSbxEc4tZnkwQI5Pc0G14MZGB3GchrykGAAIH2AvnGJm7+DGRgdxnIa8pBgACB9gL57mZu/gxkYHcZyGvKQYAAgfYCCsDubvyGKMvMgALQ/rZngwQIpIBPARhaistuM+BTAO6tBAgMIeCLAHd78zdMefoiwCFufTZJgIBvAzSwlJbdZcC3AbqnEiAwlIA3AtrdADBM57b0RkBD3fpslgABbwU899BSWnZz/r0VsHspAQJDCvhhQLsZAobpnI5+GNCQtz2bJkDgpIAfBzzn8FJajnbe/Tjgk3cQ/yZAYGiBfCXATwY82kAwUOfxy2vFjwEe+pZn8wQInC6QXxOQX8zkhwTNM8iUlnM713lt5DXix/+efufwawIE9kYgv0Uwv6c539gk393sVv8wmDgDeQ3ktZDXhJ/4tze3OX8RAgQIECBAgAABAgQIECBAgAABAgQIECBAgAABAgQIECBAgAABAgQIECBAgAABAgQIECBAgAABAgQIECBAgAABAgQIECBAgAABAgQIECBAgAABAgQIECBAgAABAgQIECBAgAABAgQIECBAgAABAgQIECBAgAABAgQIECBAgAABAgQIECBAgAABAgQIECBAgAABAgQIECBAgAABAgQIECBAgAABAgQIECBAgAABAgQIECBAgAABAgQIECBAYFGB/weYp6W9gz/P9AAAAABJRU5ErkJggg==;" vertex="1" parent="1">
          <mxGeometry x="520" y="240" width="40" height="40" as="geometry" />
        </mxCell>
        <mxCell id="tM-sLUK_iXSUUSvi_UQe-17" value="" style="shape=image;verticalLabelPosition=bottom;labelBackgroundColor=default;verticalAlign=top;aspect=fixed;imageAspect=0;image=data:image/png,iVBORw0KGgoAAAANSUhEUgAAAgAAAAIACAYAAAD0eNT6AAAAAXNSR0IArs4c6QAAIABJREFUeAHt3WusZWdZB/CnLVjaUolcrEJqvaQ1KmkqXoKKYAwGNCEB02hRAoJKE1MbqvJBEz+Al2g1Kob4QWtAQkI1wYhiUSuaaOItqFT7obbx0grBVkWoQdPaFueZzEymp90ze87Zz1rPu9/fSppOp3Pe/c5v/dd6/nufc/aJcBAgQIAAAQIECBAgQIAAAQIECBAgQIAAAQIECBAgQIAAAQIECBAgQIAAAQIECBAgQIAAAQIECBAgQIAAAQIECBAgQIAAAQIECBAgQIAAAQIECBAgQIAAAQIECBAgQIAAAQIECBAgQIAAAQIECBAgQIAAAQIECBAgQIAAAQIECBAgQIAAAQIECBAgQIAAAQIECBAgQIAAAQIECBAgQIAAAQIECBAgQIAAAQIECBAgQIAAAQIECBAgQIAAAQJlAk+PiCsj4iURcV1E3BQRN0fEuyLiVv8wkAEZkAEZaJyBnFU5s3J25QzLWZYzLWeb4zSBiyPilRHxzoi4OyL+OyI+7R8GMiADMiADe5iBnHE563Lm5ezLGTjV8ZyIeH1EvC8i/mcPT7ACo8TJgAzIgAxsk4GcgTkLcybmbNzL45kR8QMR8ScR8aihr9nLgAzIgAzIwOMykLMxZ2TOypyZwx9Pi4g3R8R/OdGPO9HbNEN/xjMIGZABGZgzAzkzc3bmDB3uOD8iXnvsZY17DX6DXwZkQAZkQAYOlYGcoTlLc6YOcbzs2Bc3fNjJPtTJ1vbnbPvOu/MuAzJwpgzkTM3Z2va4KiJuN/gNfhmQARmQARkoyUDO2Jy1rY6XR8QnnPCSE36mVuj/edYgAzIgA3NlIGdtztwWR37F4iOGv+EvAzIgAzIgA4tkIGduzt7Vjgsj4h1O9iInW8Ofq+E73863DMjANhnIGZyzeNHjsoj4M8Pf8JcBGZABGZCBVTOQszhn8iLHNRFxnxO+6gnfphn6M55ByIAMyMAcGciZnLO59LgiIh4w/A1/GZABGZABGWiVgZzNOaNLjkt8f3+rk63Zz9HsnWfnWQZkYNsM5PsF5Kze6XFeRLxX21MAZEAGZEAGZKB1BnJW58ze2fEWJ7z1Cd+2HfpznknIgAzIwP5nIGf2To5rI+IxBUABkAEZkAEZkIEhMpAzO2f3kY78qsJPOeFDnHCtfv9bvXPsHMuADGybgZzdh/7OgKdGxN2Gv+EvAzIgAzIgA0NmIGd4zvJzPm5wwoc84du2Q3/OMwkZkAEZ2P8M5Cw/p+NS3+9v+CuAMiADMiADw2cg3x8gZ/rWx4876cOfdM1+/5u9c+wcy4AMbJOBnOlbHc/1hX+GvwIoAzIgAzKwNxnILwjM2X7W4xYnfW9O+jbN0J/xDEIGZEAG9j8DOdvPeDw/IvLnDAsDAxmQARmQARnYnwzkbM8Zv/H4DcNf+ZEBGZABGZCBvcxAzvgnPS7yuf+9POEa/P40eOfSuZQBGThKBvJrAXLWP+F4hcanAMiADMiADMjAXmcgZ/0TDl/8p1kepVn6WPmRARmQgf4ZeMIXA54fEfdrfXvd+lyY/S9M58g5kgEZqM5Azvqc+aeOrzX8DX8ZkAEZkAEZmCIDOfNPHT/tpE9x0qubpfU9e5EBGZCB/hnImX/quEsBUABkQAZkQAZkYIoM5Mw/fnyeEz7FCdfK+7dy58g5kgEZWCoDOfvjRQqAAiADMiADMiADU2UgZ398m5M+1Ulfql16HM9kZEAGZKBvBnL2x5sUAAVABmRABmRABqbKQM7+uNlJn+qka+R9G7lz49zIgAwslYGc/fFuBUABkAEZkAEZkIGpMpCzP/7ISZ/qpC/VLj2OZzIyIAMy0DcDOfvDewD0PUEuHudGBmRABmSgIgPH3wvgQa8AeAVABmRABmRABqbKQM7+Yf7Ct+ZmHQQIECBAoLFAzqqKZ+wVaw6zUQWgceJtjQABAgSOCygABQ1IAXB1ESBAgEB3AQVAAeieUfsjQIAAgQIBBUABKIiVJQkQIECgu4ACoAB0z6j9ESBAgECBgAKgABTEypIECBAg0F1AAVAAumfU/ggQIECgQEABUAAKYmVJAgQIEOguoAAoAN0zan8ECBAgUCCgACgABbGyJAECBAh0F1AAFIDuGbU/AgQIECgQUAAUgIJYWZIAAQIEugsoAApA94zaHwECBAgUCCgACkBBrCxJgAABAt0FFAAFoHtG7Y8AAQIECgQUAAWgIFaWJECAAIHuAgqAAtA9o/ZHgAABAgUCCoACUBArSxIgQIBAdwEFQAHonlH7I0CAAIECAQVAASiIlSUJECBAoLuAAqAAdM+o/REgQIBAgYACoAAUxMqSBAgQINBdQAFQALpn1P4IECBAoEBAAVAACmJlSQIECBDoLqAAKADdM2p/BAgQIFAgoAAoAAWxsiQBAgQIdBdQABSA7hm1PwIECBAoEFAAFICCWFmSAAECBLoLKAAKQPeM2h8BAgQIFAgoAApAQawsSYAAAQLdBRQABaB7Ru2PAAECBAoEFAAFoCBWliRAgACB7gIKgALQPaP2R4AAAQIFAgqAAlAQK0sSIECAQHcBBUAB6J5R+yNAgACBAgEFQAEoiJUlCRAgQKC7gAKgAHTPqP0RIECAQIGAAqAAFMTKkgQIECDQXUABUAC6Z9T+CBAgQKBAQAFQAApiZUkCBAgQ6C6gACgA3TNqfwQIECBQIKAAKAAFsbIkAQIECHQXUAAUgO4ZtT8CBAgQKBBQABSAglhZkgABAgS6CygACkD3jNofAQIECBQIKAAKQEGsLEmAAAEC3QUUAAWge0btjwABAgQKBBQABaAgVpYkQIAAge4CCoAC0D2j9keAAAECBQIKgAJQECtLEiBAgEB3AQVAAeieUfsjQIAAgQIBBUABKIiVJQkQIECgu4ACoAB0z6j9ESBAgECBgAKgABTEypIECBAg0F1AAVAAumfU/ggQIECgQEABUAAKYmVJAgQIEOguoAAoAN0zan8ECBAgUCCgACgABbGyJAECBAh0F1AAFIDuGbU/AgQIECgQUAAUgIJYWZIAAQIEugsoAApA94zaHwECBAgUCCgACkBBrCxJgAABAt0FFAAFoHtG7Y8AAQIECgQUAAWgIFaWJECAAIHuAgqAAtA9o/ZHgAABAgUCCoACUBArSxIgQIBAdwEFQAHonlH7I0CAAIECAQVAASiIlSUJECBAoLuAAqAAdM+o/REgQIBAgYACoAAUxMqSBAgQINBdQAFQALpn1P4IECBAoEBAAVAACmJlSQIECBDoLqAAKADdM2p/BAgQIFAgoAAoAAWxsiQBAgQIdBdQABSA7hm1PwIECBAoEFAAFICCWFmSAAECBLoLKAAKQPeM2h8BAgQIFAgoAApAQawsSYAAAQLdBRQABaB7Ru2PAAECBAoEFAAFoCBWliRAgACB7gIKgALQPaP2R4AAAQIFAgqAAlAQK0sSIECAQHcBBUAB6J5R+yNAgACBAgEFQAEoiJUlCRAgQKC7gAKgAHTPqP0RIECAQIGAAqAAFMTKkgQIECDQXUABUAC6Z9T+CBAgQKBAQAFQAApiZUkCBAgQ6C6gACgA3TNqfwQIECBQIKAAKAAFsbIkAQIECHQXUAAUgO4ZtT8CBAgQKBBQABSAglhZkgABAgS6CygACkD3jNofAQIECBQIKAAKQEGsLEmAAAEC3QUUAAWge0btjwABAgQKBBQABaAgVpYkQIAAge4CCoAC0D2j9keAAAECBQIKgAJQECtLEiBAgEB3AQVAAeieUfsjQIAAgQIBBUABKIiVJQkQIECgu4ACoAB0z6j9ESBAgECBgAKgABTEypIECBAg0F1AAVAAumfU/ggQIECgQEABUAAKYmVJAgQIEOguoAAoAN0zan8ECBAgUCCgACgABbGyJAECBAh0F1AAFIDuGbU/AgQIECgQUAAUgIJYWZIAAQIEugsoAApA94zaHwECBAgUCCgACkBBrCxJgAABAt0FFAAFoHtG7Y8AAQIECgQUAAWgIFaWJECAAIHuAgqAAtA9o/ZHgAABAgUCCoACUBArSxIgQIBAdwEFQAHonlH7I0CAAIECAQVAASiIlSUJECBAoLuAAqAAdM+o/REgQIBAgYACoAAUxMqSBAgQINBdQAFQALpn1P4IECBAoEBAAVAACmJlSQIECBDoLqAAKADdM2p/BAgQIFAgoAAoAAWxsiQBAgQIdBdQABSA7hm1PwIECBAoEFAAFICCWFmSAAECBLoLKAAKQPeM2h8BAgQIFAgoAApAQawsSYAAAQLdBRQABaB7Ru2PAAECBAoEFAAFoCBWliRAgACB7gIKgALQPaP2R4AAAQIFAgqAAlAQK0sSIECAQHcBBUAB6J5R+yNAgACBAgEFQAEoiJUlCRAgQKC7gAKgAHTPqP0RIECAQIGAAqAAFMTKkgQIECDQXUABUAC6Z9T+CBAgQKBAQAFQAApiZUkCBAgQ6C6gACgA3TNqfwQIECBQIKAAKAAFsbIkAQIECHQXUAAUgO4ZtT8CBAgQKBBQABSAglhZkgABAgS6CygACkD3jNofAQIECBQIKAAKQEGsLEmAAAEC3QUUAAWge0btjwABAgQKBBQABaAgVpYkQIAAge4CCoAC0D2j9keAAAECBQIKgAJQECtLEiBAgEB3AQVAAeieUfsjQIAAgQIBBUABKIiVJQkQIECgu4ACoAB0z6j9ESBAgECBgAKgABTEypIECBAg0F1AAVAAumfU/ggQIECgQEABUAAKYmVJAgQIEOguoAAoAN0zan8ECBAgUCCgACgABbGyJAECBAh0F1AAFIDuGbU/AgQIECgQUAAUgIJYWZIAAQIEugsoAApA94zaHwECBAgUCCgACkBBrCxJgAABAt0FFAAFoHtG7Y8AAQIECgQUAAWgIFaWJECAAIHuAgqAAtA9o/ZHgAABAgUCCoACUBArSxIgQIBAdwEFQAHonlH7I0CAAIECAQVAASiIlSUJECBAoLuAAqAAdM+o/REgQIBAgYACoAAUxMqSBAgQINBdQAFQALpn1P4IECBAoEBAAVAACmJlSQIECBDoLqAAKADdM2p/BAgQIFAgoAAoAAWxsiQBAgQIdBdQABSA7hm1PwIECBAoEFAAFICCWFmSAAECBLoLKAAKQPeM2h8BAgQIFAgoAApAQawsSYAAAQLdBRQABaB7Ru2PAAECBAoEFAAFoCBWliRAgACB7gIKgALQPaP2R4AAAQIFAgqAAlAQK0sSIECAQHcBBUAB6J5R+yNAgACBAgEFQAEoiJUlCRAgQKC7gAKgAHTPqP0RIECAQIGAAqAAFMTKkgQIECDQXUABUAC6Z9T+CBAgQKBAQAFQAApiZUkCBAgQ6C6gACgA3TNqfwQIECBQIKAAKAAFsbIkAQIECHQXUAAUgO4ZtT8CBAgQKBBQABSAglhZkgABAgS6CygACkD3jNofAQIECBQIKAAKQEGsLEmAAAEC3QUUAAWge0btjwABAgQKBBQABaAgVpYkQIAAge4CCoAC0D2j9keAAAECBQIKgAJQECtLEiBAgEB3AQVAAeieUfsjQIAAgQIBBUABKIiVJQkQIECgu4ACoAB0z6j9ESBAgECBgAKgABTEypIECBAg0F1AAVAAumfU/ggQIECgQEABUAAKYmVJAgQIEOguoAAoAN0zan8ECBAgUCCgACgABbGyJAECBAh0F1AAFIDuGbU/AgQIECgQUAAUgIJYWZIAAQIEugsoAApA94zaHwECBAgUCCgACkBBrCxJgAABAt0FFAAFoHtG7Y8AAQIECgQUAAWgIFaWJECAAIHuAgqAAtA9o/ZHgAABAgUCCoACUBArSxIgQIBAdwEFQAHonlH7I0CAAIECAQVAASiIlSUJECBAoLuAAqAAdM+o/REgQIBAgYACoAAUxMqSBAgQINBdQAFQALpn1P4IECBAoEBAAVAACmJlSQIECBDoLqAAKADdM2p/BAgQIFAgoAAoAAWxsiQBAgQIdBdQABSA7hm1PwIECBAoEFAAFICCWFmSAAECBLoLKAAKQPeM2h8BAgQIFAgoAApAQawsSYAAAQLdBRQABaB7Ru2PAAECBAoEFAAFoCBWliRAgACB7gIKgALQPaP2R4AAAQIFAgqAAlAQK0sSIECAQHcBBUAB6J5R+yNAgACBAgEFQAEoiJUlCRAgQKC7gAKgAHTPqP0RIECAQIGAAqAAFMTKkgQIECDQXUABUAC6Z9T+CBAgQKBAQAFQAApiZUkCBAgQ6C6gACgA3TNqfwQIECBQIKAAKAAFsbIkAQIECHQXUAAUgO4ZtT8CBAgQKBBQABSAglhZkgABAgS6CygACkD3jNofAQIECBQIKAAKQEGsLEmAAAEC3QUUAAWge0btjwABAgQKBBQABaAgVpYkQIAAge4CCoAC0D2j9keAAAECBQIKgAJQECtLEiBAgEB3AQVAAeieUfsjQIAAgQIBBUABKIiVJQkQIECgu4ACoAB0z6j9ESBAgECBgAKgABTEypIECBAg0F1AAVAAumfU/ggQIECgQEABUAAKYmVJAgQIEOguoAAoAN0zan8ECBAgUCCgACgABbGyJAECBAh0F1AAFIDuGbU/AgQIECgQUAAUgIJYWZIAAQIEugsoAApA94zaHwECBAgUCCgACkBBrCxJgAABAt0FFAAFoHtG7Y8AAQIECgQUgIIC8GlrBoNg4DqQARmQgR1lAOSOIA1nw1kGZEAGZGCkDCgACoAMyIAMyIAMTJgBJ33Ckz5SQ7VXz6hkQAZkoCYDCoACIAMyIAMyIAMTZsBJn/Cka9M1bZorVxmQgZEyoAAoADIgAzIgAzIwYQac9AlP+kgN1V49o5IBGZCBmgwoAAqADMiADMiADEyYASd9wpOuTde0aa5cZUAGRsqAAqAAyIAMyIAMyMCEGXDSJzzpIzVUe/WMSgZkQAZqMqAAKAAyIAMyIAMyMGEGnPQJT7o2XdOmuXKVARkYKQMKgAIgAzIgAzIgAxNmwEmf8KSP1FDt1TMqGZABGajJgAKgAMiADMiADMjAhBlw0ic86dp0TZvmylUGZGCkDCgACoAMyIAMyIAMTJgBJ33Ckz5SQ7VXz6hkQAZkoCYDCoACIAMyIAMyIAMTZsBJn/Cka9M1bbqz62MR8ZcR8a6I+KmIuDEirj3xT/46fy//X/6Z/LOd/y725vzIwG4y4EJ3s5OBPc3AQxHxgYi4PiI+J7Y/8s/mx+TH5hputgxkYD8z4OJ2g5OBPcvAIxHxqxHxvO1n/sY/mWvkWrmmIcBABvYrAy5qNzYZ2KMM/E5EfNnGcX74/5Fr5toGAAMZ2J8MuKDd1GRgDzKQL9V/7+Hn+9YfmY/h0wL7MwAM87nPpZv/Htz8XcRzX8T/FhFft/UIP/ofzMfKx5Q7BjIwdgZcxG5kMjBwBu469jn6y48+0895hXzMfGwDgIEMjJsBF7CbmAwMmoGPR8SV5zy6d/cB+di5BwOAgQyMmQEXrxuYDAyYgfyq/JfubpYfeqXcg+8QGPPmb2g7b27+A978Xbgu3DcdemTv/gNzLzLJQAbGy4AL181LBgbLwB0Rcf7u5/ihV8y95J4MAAYyMFYGXLRuXDIwWAZefuhRXfeBuSc3fwYyMFYGXLRuXDIwUAY+WDfDj7xy7s0AYCAD42TABeumJQMDZeAlRx7TdQvk3tz8GcjAOBlwwbppycAgGbi/2ef+D1aJ/FqA3KMBwEAGxsiAi9UNSwYGycAtByduw//OPbr5M5CBMTLgYnXDkoFBMvCKhgP/4JZyj27+DGRgjAy4WN2wZGCADDwWERcdnLYN/zv3mHs1ABjIQP8MuFDdrGRggAw80HDYb9pS7tXNn4EM9M+AC9XNSgYGyMCHN03bhr+fe3XzZyAD/TPgQnWzkoEBMnBbw0G/aUu5Vzd/BjLQPwM+X+dm5WY9QAbesWnaNvz93KubPwMZ6J2B/Fqd8Pm63ifJReT8ZAbe23DQb9pS7lVuGchA7wwc/7qiv3WxulnJQPsM/Pmmadvw93Ovbv4MZKB3BnL2x++6WN2sZKB9Bu5tOOg3bSn36ubPQAZ6ZyBnf/yKi9XNSgbaZ+DhiDhv08Rt9Pu5x9yrmz8DGeidgZz98RYXq5uVDAyRgRc0GvSbtpJ7dONnIAP9M5CzP653wbphycAQGXjrpqnb6Pdzj27+DGSgfwZy9of37u5/olxMzlFm4O8aDfpNW8k9yisDGeifgeM/W+QrXLBuWDIwTAa+cNPkbfD7uTc3fgYyMEYGcvbHMyLi/1y4blwyMEQG3tZg0G/aQu7NzZ+BDPTPQM78nP3Hjw+6cN24ZGCIDDwUEV9w8sJt9O/cU+7NzZ+BDPTPQM78U8eNLlw3LhkYJgPvPnXl9vlF7smNn4EMjJGBnPmnjitcvG5eMjBMBvI9vL/q1NW7/i9yL7knN38GMjBGBnLmP+7wIzzHOHEuMOcpM3BfRFz2uCt4nf/IPeRe5JKBDIyRgSf90eLeEGiMk+cic55OZiDfc//Cdeb+8UfNx/a+//J4Mo/+PUYWjr8B0MH7hnfwGuPkucicp9MzkJ97P//gxbzAf+dj+ry/LJ6eRb8eIw8b31HUS3ljnEAXmvN0egZ+OyIuXWDon3yIfKx8zNP34Nc8ZKB/BnLGbzx+zEXtpiYDQ2bgzohY4k2C8jHysdzsGcjAeBnIGb/x+MyIeMDF7eYmA0Nm4D8i4juLfmpg/pS/XDsfw42fgQyMl4Gc7Tnjz3jc4AJ3g5OBoTPwNxHxTWe8ys/tf+ZauaabPgMZGDcDOdvPejz1WNO/x8XuZicDw2fgDyPidRHxzLNe9U/8A/kx+bG5hps+AxkYOwM503O2b3Vc66J305OBvcnAIxHxxxFxU0R8S0RcExGffeJTBfnSfv46fy//X/6Z/LP5MW76DGRgPzKQM/2cDt/fux8n3gXsPG7KQP5AED8ITD425cPv70c2cpaf8/EizwA8A5IBGZABGZCBoTOQs/xQx3uc+KFPvAa/Hw3eeXQeZUAGDpOBnOGHPi6JiDuUACVABmRABmRABobKQM7unOFHOj4/Iv7diR/qxB+mKfoYzzBkQAZkYD8ykDM7Z/dOjhdHxMNKgBIgAzIgAzIgA60zkLM6Z/ZOjzc66a1Puua+H83deXQeZUAGjpKBnNUlx9uVACVABmRABmRABlpmIGd02fGUiLjdiW954o/SGH2sZxwyIAMyMHYGcjbnjC49Ljz2U8fepQQoATIgAzIgAzLQIgM5k3M2L3a8OSIedfJbnHzNfezm7vw5fzIgA4fJQM7gnMWrHPne4Z9UApQAGZABGZABGVg0Azl7cwavenyJnx646Ek/TEv0MZ5dyIAMyMD+ZCB/ul/O3hbHZ/niQCVA+5cBGZABGSjPQH6xX87cVscFEfHdEfFRASgPgCa/P03euXQuZUAGtslAztacsTlr2x4XH3vXwB/xtQFKgCIoAzIgAzJw5Azk5/pzpuZsHeZ4dkT8orcQPvLJ36YZ+jOeQciADMjAfmUg39I3Z2jO0mGPLzr2xQq/HhGPaYLKgAzIgAzIgAycMQM5K3Nm5uzcm+N5EfF9EfEHXhU448nX4verxTufzqcMyMDZMpDP9nM25ozMWbnXxzMi4tUnWs6D2qBCIAMyIAMyMFkGcvblM/2chTkTpzw+IyJeHhFvjYhbIuK2iLgjIvLnGfu0geZ8tubs/8uIDMhA1wzkDMtZljMtZ1vOuJx1OfNy9jnOIJBAV0TE10TEt0bEdf5hsOMMPDTZs46uN8o19pU3Z/cUBrvOQM6qnFk5uwz5Mwx4/4vAmgL5k7PWGDwes4/709cMoMcmQIAAgXUEnqMATF+ALl8neh6VAAECBNYUuEoBmL4AXL1mAD02AQIECKwj8EIFYPoC8A3rRM+jEiBAgMCaAt+sAExfAF61ZgA9NgECBAisI/AdCsD0BeAN60TPoxIgQIDAmgI3KADTF4AfXDOAHpsAAQIE1hH4UQVg+gLwE+tEz6MSIECAwJoCP68ATF8AfmnNAHpsAgQIEFhH4J0KwPQF4D3rRM+jEiBAgMCaAu9TAKYvAL+/ZgA9NgECBAisI/CnCsD0BeCv1omeRyVAgACBNQXuVACmLwD3rBlAj02AAAEC6wh8TAGYvgB8fJ3oeVQCBAgQWEvgUsN/+uF/8qcyPmutEHpcAgQIEFhe4KsVAAXgRAa+fvn4eUQCBAgQWEvguxQABeBEBq5fK4QelwABAgSWF7hZAVAATmTgbcvHzyMSIECAwFoC71cAFIATGbh9rRB6XAIECBBYXuCfFAAF4EQGPrJ8/DwiAQIECKwhcHFEPKYAKACnZeAZawTRYxIgQIDAsgIvOO3Gf/Jbwfw7pi4EL1w2gh6NAAECBNYQeI0CMPWwf7Ky94Y1gugxCRAgQGBZgZ9UABSAAxn42WUj6NEIECBAYA2B3zpw83+yZ4R+b65PCdy2RhA9JgECBAgsK3C3AuAVgAMZ+JdlI+jRCBAgQGBpgQsj4pEDN3/P9ud6tv9k5zu/K+SSpcPo8QgQIEBgOYGrDX/P/jdk4CuXi6FHIkCAAIGlBa7bcPN/smeFfm+uVwZeu3QYPR4BAgQILCfgOwDmGurnUuJ+ZrkYeiQCBAgQWFrgL7wC4FMAGzLw10uH0eMRIECAwDIC+XavvgDQKwCbXhXILwR89jJR9CgECBAgsKTAKzc889s0EPz+fGXh25cMpMciQIAAgWUE3q4AePn/LBm4ZZkoehQCBAgQWFLgrrPc/D3jn+8Z/8Fzfu+SgfRYBAgQIFAvcLnh79n/lhm4qj6OHoEAAQIElhJ4/ZY3/4PPCP33fK8K3LBUKD0OAQIECNQL/KYC4BWALTPwe/Vx9AgECBAgsITAsyLioS1v/p7xz/eM/+A5z28V/dwlgukxCBAgQKBW4PsNf8/+zzEDP1QbSasTIECAwBICHzrHm//BZ4T+e75XBf7k6ZT0AAAFC0lEQVR+iWB6DAIECBCoE3i+4e/Z/yEz8OV1sbQyAQIECFQL5A948QyewWEy8AvV4bQ+AQIECNQIXBARH1MAFKBDZuD+iHhKTTStSoAAAQKVAt773zP/wzzzP/1jXlUZUGsTIECAwO4FzouIDx/ymd/pA8Cv5y4RmaHMkoMAAQIEBhG4zvD30v+OMvDqQTJvmwQIEJheID9ve/eObv5eAZj7FYA8//f4WoDp7ykACBAYROB7DH/P/necgTcOkn3bJECAwLQCF0bEv+745u9VAK8CfCQinjbtVeUvToAAgQEEbjL8PfsvyoC3Bx7gBmCLBAjMKXBlRHyy6ObvVQCvAjwYEV8856Xlb02AAIG+Ahf5tj/P/Bcof/kzAi7uexnYGQECBOYTuGWBm79XAbwKkBn4tfkuL39jAgQI9BR4neHv2f/CGcjvNHEQIECAwIoC+dP+PrXwzd8rAV4J+N+IuGbF3HtoAgQITC3w3Ij4B8Pfs/+VMvCPEXH51FegvzwBAgRWEMhn/vetdOP3CoBXAE5m4KMRcfUK+feQBAgQmFLgGyPiE4a/Z/5NMpDfevrSKa9Ef2kCBAgsJHBBRNwYEQ83ufGffBbo314RyExmNjOjDgIECBDYocDLIuJOg9+z/uYZyIxmVh0ECBAgcASBfDb14oj4QPObvlcAvAJwMAOZ2cyuVwSOcAPwoQQIzCNwXkRcFhHXRcS7I+I/DX7P+AfPQGY4s5yZzmxnxh0ECBCYUiCfEX1pRLwmIn4uIt4fER+KiPxpaz6375n0wWfS+/bfmfHMemY+s5/XQF4LeU14tWDKW6K/NIH9F7g0In7Zm/Z4Rj/4M/rKQpJvaJXXSF4rDgIECOyFQH4u9J/d+A1/GdgqA3mt5DXjIECAwNACPxwRj7rxb3Xjr3x2ae2xPr2S10xeOw4CBAgMKZDPYgz/sQaPotDnfOW145WAIW99Nk1gboH8PKaX/fsME4N9zHOR15CvCZj7XupvT2A4gfxiJkOHgQwcPQN5LTkIECAwhEB+O5Mf0Xv0G7/hyTAzkNeSbxEc4tZnkwQI5Pc0G14MZGB3GchrykGAAIH2AvnGJm7+DGRgdxnIa8pBgACB9gL57mZu/gxkYHcZyGvKQYAAgfYCCsDubvyGKMvMgALQ/rZngwQIpIBPARhaistuM+BTAO6tBAgMIeCLAHd78zdMefoiwCFufTZJgIBvAzSwlJbdZcC3AbqnEiAwlIA3AtrdADBM57b0RkBD3fpslgABbwU899BSWnZz/r0VsHspAQJDCvhhQLsZAobpnI5+GNCQtz2bJkDgpIAfBzzn8FJajnbe/Tjgk3cQ/yZAYGiBfCXATwY82kAwUOfxy2vFjwEe+pZn8wQInC6QXxOQX8zkhwTNM8iUlnM713lt5DXix/+efufwawIE9kYgv0Uwv6c539gk393sVv8wmDgDeQ3ktZDXhJ/4tze3OX8RAgQIECBAgAABAgQIECBAgAABAgQIECBAgAABAgQIECBAgAABAgQIECBAgAABAgQIECBAgAABAgQIECBAgAABAgQIECBAgAABAgQIECBAgAABAgQIECBAgAABAgQIECBAgAABAgQIECBAgAABAgQIECBAgAABAgQIECBAgAABAgQIECBAgAABAgQIECBAgAABAgQIECBAgAABAgQIECBAgAABAgQIECBAgAABAgQIECBAgAABAgQIECBAYFGB/weYp6W9gz/P9AAAAABJRU5ErkJggg==;" vertex="1" parent="1">
          <mxGeometry x="320" y="360" width="40" height="40" as="geometry" />
        </mxCell>
        <mxCell id="tM-sLUK_iXSUUSvi_UQe-18" value="" style="shape=image;verticalLabelPosition=bottom;labelBackgroundColor=default;verticalAlign=top;aspect=fixed;imageAspect=0;image=data:image/png,iVBORw0KGgoAAAANSUhEUgAAAgAAAAIACAYAAAD0eNT6AAAAAXNSR0IArs4c6QAAIABJREFUeAHt3WusZWdZB/CnLVjaUolcrEJqvaQ1KmkqXoKKYAwGNCEB02hRAoJKE1MbqvJBEz+Al2g1Kob4QWtAQkI1wYhiUSuaaOItqFT7obbx0grBVkWoQdPaFueZzEymp90ze87Zz1rPu9/fSppOp3Pe/c5v/dd6/nufc/aJcBAgQIAAAQIECBAgQIAAAQIECBAgQIAAAQIECBAgQIAAAQIECBAgQIAAAQIECBAgQIAAAQIECBAgQIAAAQIECBAgQIAAAQIECBAgQIAAAQIECBAgQIAAAQIECBAgQIAAAQIECBAgQIAAAQIECBAgQIAAAQIECBAgQIAAAQIECBAgQIAAAQIECBAgQIAAAQIECBAgQIAAAQIECBAgQIAAAQIECBAgQIAAAQIECBAgQIAAAQIECBAgQIAAAQJlAk+PiCsj4iURcV1E3BQRN0fEuyLiVv8wkAEZkAEZaJyBnFU5s3J25QzLWZYzLWeb4zSBiyPilRHxzoi4OyL+OyI+7R8GMiADMiADe5iBnHE563Lm5ezLGTjV8ZyIeH1EvC8i/mcPT7ACo8TJgAzIgAxsk4GcgTkLcybmbNzL45kR8QMR8ScR8aihr9nLgAzIgAzIwOMykLMxZ2TOypyZwx9Pi4g3R8R/OdGPO9HbNEN/xjMIGZABGZgzAzkzc3bmDB3uOD8iXnvsZY17DX6DXwZkQAZkQAYOlYGcoTlLc6YOcbzs2Bc3fNjJPtTJ1vbnbPvOu/MuAzJwpgzkTM3Z2va4KiJuN/gNfhmQARmQARkoyUDO2Jy1rY6XR8QnnPCSE36mVuj/edYgAzIgA3NlIGdtztwWR37F4iOGv+EvAzIgAzIgA4tkIGduzt7Vjgsj4h1O9iInW8Ofq+E73863DMjANhnIGZyzeNHjsoj4M8Pf8JcBGZABGZCBVTOQszhn8iLHNRFxnxO+6gnfphn6M55ByIAMyMAcGciZnLO59LgiIh4w/A1/GZABGZABGWiVgZzNOaNLjkt8f3+rk63Zz9HsnWfnWQZkYNsM5PsF5Kze6XFeRLxX21MAZEAGZEAGZKB1BnJW58ze2fEWJ7z1Cd+2HfpznknIgAzIwP5nIGf2To5rI+IxBUABkAEZkAEZkIEhMpAzO2f3kY78qsJPOeFDnHCtfv9bvXPsHMuADGybgZzdh/7OgKdGxN2Gv+EvAzIgAzIgA0NmIGd4zvJzPm5wwoc84du2Q3/OMwkZkAEZ2P8M5Cw/p+NS3+9v+CuAMiADMiADw2cg3x8gZ/rWx4876cOfdM1+/5u9c+wcy4AMbJOBnOlbHc/1hX+GvwIoAzIgAzKwNxnILwjM2X7W4xYnfW9O+jbN0J/xDEIGZEAG9j8DOdvPeDw/IvLnDAsDAxmQARmQARnYnwzkbM8Zv/H4DcNf+ZEBGZABGZCBvcxAzvgnPS7yuf+9POEa/P40eOfSuZQBGThKBvJrAXLWP+F4hcanAMiADMiADMjAXmcgZ/0TDl/8p1kepVn6WPmRARmQgf4ZeMIXA54fEfdrfXvd+lyY/S9M58g5kgEZqM5Azvqc+aeOrzX8DX8ZkAEZkAEZmCIDOfNPHT/tpE9x0qubpfU9e5EBGZCB/hnImX/quEsBUABkQAZkQAZkYIoM5Mw/fnyeEz7FCdfK+7dy58g5kgEZWCoDOfvjRQqAAiADMiADMiADU2UgZ398m5M+1Ulfql16HM9kZEAGZKBvBnL2x5sUAAVABmRABmRABqbKQM7+uNlJn+qka+R9G7lz49zIgAwslYGc/fFuBUABkAEZkAEZkIGpMpCzP/7ISZ/qpC/VLj2OZzIyIAMy0DcDOfvDewD0PUEuHudGBmRABmSgIgPH3wvgQa8AeAVABmRABmRABqbKQM7+Yf7Ct+ZmHQQIECBAoLFAzqqKZ+wVaw6zUQWgceJtjQABAgSOCygABQ1IAXB1ESBAgEB3AQVAAeieUfsjQIAAgQIBBUABKIiVJQkQIECgu4ACoAB0z6j9ESBAgECBgAKgABTEypIECBAg0F1AAVAAumfU/ggQIECgQEABUAAKYmVJAgQIEOguoAAoAN0zan8ECBAgUCCgACgABbGyJAECBAh0F1AAFIDuGbU/AgQIECgQUAAUgIJYWZIAAQIEugsoAApA94zaHwECBAgUCCgACkBBrCxJgAABAt0FFAAFoHtG7Y8AAQIECgQUAAWgIFaWJECAAIHuAgqAAtA9o/ZHgAABAgUCCoACUBArSxIgQIBAdwEFQAHonlH7I0CAAIECAQVAASiIlSUJECBAoLuAAqAAdM+o/REgQIBAgYACoAAUxMqSBAgQINBdQAFQALpn1P4IECBAoEBAAVAACmJlSQIECBDoLqAAKADdM2p/BAgQIFAgoAAoAAWxsiQBAgQIdBdQABSA7hm1PwIECBAoEFAAFICCWFmSAAECBLoLKAAKQPeM2h8BAgQIFAgoAApAQawsSYAAAQLdBRQABaB7Ru2PAAECBAoEFAAFoCBWliRAgACB7gIKgALQPaP2R4AAAQIFAgqAAlAQK0sSIECAQHcBBUAB6J5R+yNAgACBAgEFQAEoiJUlCRAgQKC7gAKgAHTPqP0RIECAQIGAAqAAFMTKkgQIECDQXUABUAC6Z9T+CBAgQKBAQAFQAApiZUkCBAgQ6C6gACgA3TNqfwQIECBQIKAAKAAFsbIkAQIECHQXUAAUgO4ZtT8CBAgQKBBQABSAglhZkgABAgS6CygACkD3jNofAQIECBQIKAAKQEGsLEmAAAEC3QUUAAWge0btjwABAgQKBBQABaAgVpYkQIAAge4CCoAC0D2j9keAAAECBQIKgAJQECtLEiBAgEB3AQVAAeieUfsjQIAAgQIBBUABKIiVJQkQIECgu4ACoAB0z6j9ESBAgECBgAKgABTEypIECBAg0F1AAVAAumfU/ggQIECgQEABUAAKYmVJAgQIEOguoAAoAN0zan8ECBAgUCCgACgABbGyJAECBAh0F1AAFIDuGbU/AgQIECgQUAAUgIJYWZIAAQIEugsoAApA94zaHwECBAgUCCgACkBBrCxJgAABAt0FFAAFoHtG7Y8AAQIECgQUAAWgIFaWJECAAIHuAgqAAtA9o/ZHgAABAgUCCoACUBArSxIgQIBAdwEFQAHonlH7I0CAAIECAQVAASiIlSUJECBAoLuAAqAAdM+o/REgQIBAgYACoAAUxMqSBAgQINBdQAFQALpn1P4IECBAoEBAAVAACmJlSQIECBDoLqAAKADdM2p/BAgQIFAgoAAoAAWxsiQBAgQIdBdQABSA7hm1PwIECBAoEFAAFICCWFmSAAECBLoLKAAKQPeM2h8BAgQIFAgoAApAQawsSYAAAQLdBRQABaB7Ru2PAAECBAoEFAAFoCBWliRAgACB7gIKgALQPaP2R4AAAQIFAgqAAlAQK0sSIECAQHcBBUAB6J5R+yNAgACBAgEFQAEoiJUlCRAgQKC7gAKgAHTPqP0RIECAQIGAAqAAFMTKkgQIECDQXUABUAC6Z9T+CBAgQKBAQAFQAApiZUkCBAgQ6C6gACgA3TNqfwQIECBQIKAAKAAFsbIkAQIECHQXUAAUgO4ZtT8CBAgQKBBQABSAglhZkgABAgS6CygACkD3jNofAQIECBQIKAAKQEGsLEmAAAEC3QUUAAWge0btjwABAgQKBBQABaAgVpYkQIAAge4CCoAC0D2j9keAAAECBQIKgAJQECtLEiBAgEB3AQVAAeieUfsjQIAAgQIBBUABKIiVJQkQIECgu4ACoAB0z6j9ESBAgECBgAKgABTEypIECBAg0F1AAVAAumfU/ggQIECgQEABUAAKYmVJAgQIEOguoAAoAN0zan8ECBAgUCCgACgABbGyJAECBAh0F1AAFIDuGbU/AgQIECgQUAAUgIJYWZIAAQIEugsoAApA94zaHwECBAgUCCgACkBBrCxJgAABAt0FFAAFoHtG7Y8AAQIECgQUAAWgIFaWJECAAIHuAgqAAtA9o/ZHgAABAgUCCoACUBArSxIgQIBAdwEFQAHonlH7I0CAAIECAQVAASiIlSUJECBAoLuAAqAAdM+o/REgQIBAgYACoAAUxMqSBAgQINBdQAFQALpn1P4IECBAoEBAAVAACmJlSQIECBDoLqAAKADdM2p/BAgQIFAgoAAoAAWxsiQBAgQIdBdQABSA7hm1PwIECBAoEFAAFICCWFmSAAECBLoLKAAKQPeM2h8BAgQIFAgoAApAQawsSYAAAQLdBRQABaB7Ru2PAAECBAoEFAAFoCBWliRAgACB7gIKgALQPaP2R4AAAQIFAgqAAlAQK0sSIECAQHcBBUAB6J5R+yNAgACBAgEFQAEoiJUlCRAgQKC7gAKgAHTPqP0RIECAQIGAAqAAFMTKkgQIECDQXUABUAC6Z9T+CBAgQKBAQAFQAApiZUkCBAgQ6C6gACgA3TNqfwQIECBQIKAAKAAFsbIkAQIECHQXUAAUgO4ZtT8CBAgQKBBQABSAglhZkgABAgS6CygACkD3jNofAQIECBQIKAAKQEGsLEmAAAEC3QUUAAWge0btjwABAgQKBBQABaAgVpYkQIAAge4CCoAC0D2j9keAAAECBQIKgAJQECtLEiBAgEB3AQVAAeieUfsjQIAAgQIBBUABKIiVJQkQIECgu4ACoAB0z6j9ESBAgECBgAKgABTEypIECBAg0F1AAVAAumfU/ggQIECgQEABUAAKYmVJAgQIEOguoAAoAN0zan8ECBAgUCCgACgABbGyJAECBAh0F1AAFIDuGbU/AgQIECgQUAAUgIJYWZIAAQIEugsoAApA94zaHwECBAgUCCgACkBBrCxJgAABAt0FFAAFoHtG7Y8AAQIECgQUAAWgIFaWJECAAIHuAgqAAtA9o/ZHgAABAgUCCoACUBArSxIgQIBAdwEFQAHonlH7I0CAAIECAQVAASiIlSUJECBAoLuAAqAAdM+o/REgQIBAgYACoAAUxMqSBAgQINBdQAFQALpn1P4IECBAoEBAAVAACmJlSQIECBDoLqAAKADdM2p/BAgQIFAgoAAoAAWxsiQBAgQIdBdQABSA7hm1PwIECBAoEFAAFICCWFmSAAECBLoLKAAKQPeM2h8BAgQIFAgoAApAQawsSYAAAQLdBRQABaB7Ru2PAAECBAoEFAAFoCBWliRAgACB7gIKgALQPaP2R4AAAQIFAgqAAlAQK0sSIECAQHcBBUAB6J5R+yNAgACBAgEFQAEoiJUlCRAgQKC7gAKgAHTPqP0RIECAQIGAAqAAFMTKkgQIECDQXUABUAC6Z9T+CBAgQKBAQAFQAApiZUkCBAgQ6C6gACgA3TNqfwQIECBQIKAAKAAFsbIkAQIECHQXUAAUgO4ZtT8CBAgQKBBQABSAglhZkgABAgS6CygACkD3jNofAQIECBQIKAAKQEGsLEmAAAEC3QUUAAWge0btjwABAgQKBBQABaAgVpYkQIAAge4CCoAC0D2j9keAAAECBQIKgAJQECtLEiBAgEB3AQVAAeieUfsjQIAAgQIBBUABKIiVJQkQIECgu4ACoAB0z6j9ESBAgECBgAKgABTEypIECBAg0F1AAVAAumfU/ggQIECgQEABUAAKYmVJAgQIEOguoAAoAN0zan8ECBAgUCCgACgABbGyJAECBAh0F1AAFIDuGbU/AgQIECgQUAAUgIJYWZIAAQIEugsoAApA94zaHwECBAgUCCgACkBBrCxJgAABAt0FFAAFoHtG7Y8AAQIECgQUAAWgIFaWJECAAIHuAgqAAtA9o/ZHgAABAgUCCoACUBArSxIgQIBAdwEFQAHonlH7I0CAAIECAQVAASiIlSUJECBAoLuAAqAAdM+o/REgQIBAgYACoAAUxMqSBAgQINBdQAFQALpn1P4IECBAoEBAAVAACmJlSQIECBDoLqAAKADdM2p/BAgQIFAgoAAoAAWxsiQBAgQIdBdQABSA7hm1PwIECBAoEFAAFICCWFmSAAECBLoLKAAKQPeM2h8BAgQIFAgoAApAQawsSYAAAQLdBRQABaB7Ru2PAAECBAoEFAAFoCBWliRAgACB7gIKgALQPaP2R4AAAQIFAgqAAlAQK0sSIECAQHcBBUAB6J5R+yNAgACBAgEFQAEoiJUlCRAgQKC7gAKgAHTPqP0RIECAQIGAAqAAFMTKkgQIECDQXUABUAC6Z9T+CBAgQKBAQAFQAApiZUkCBAgQ6C6gACgA3TNqfwQIECBQIKAAKAAFsbIkAQIECHQXUAAUgO4ZtT8CBAgQKBBQABSAglhZkgABAgS6CygACkD3jNofAQIECBQIKAAKQEGsLEmAAAEC3QUUAAWge0btjwABAgQKBBQABaAgVpYkQIAAge4CCoAC0D2j9keAAAECBQIKgAJQECtLEiBAgEB3AQVAAeieUfsjQIAAgQIBBUABKIiVJQkQIECgu4ACoAB0z6j9ESBAgECBgAKgABTEypIECBAg0F1AAVAAumfU/ggQIECgQEABUAAKYmVJAgQIEOguoAAoAN0zan8ECBAgUCCgACgABbGyJAECBAh0F1AAFIDuGbU/AgQIECgQUAAUgIJYWZIAAQIEugsoAApA94zaHwECBAgUCCgACkBBrCxJgAABAt0FFAAFoHtG7Y8AAQIECgQUgIIC8GlrBoNg4DqQARmQgR1lAOSOIA1nw1kGZEAGZGCkDCgACoAMyIAMyIAMTJgBJ33Ckz5SQ7VXz6hkQAZkoCYDCoACIAMyIAMyIAMTZsBJn/Cka9M1bZorVxmQgZEyoAAoADIgAzIgAzIwYQac9AlP+kgN1V49o5IBGZCBmgwoAAqADMiADMiADEyYASd9wpOuTde0aa5cZUAGRsqAAqAAyIAMyIAMyMCEGXDSJzzpIzVUe/WMSgZkQAZqMqAAKAAyIAMyIAMyMGEGnPQJT7o2XdOmuXKVARkYKQMKgAIgAzIgAzIgAxNmwEmf8KSP1FDt1TMqGZABGajJgAKgAMiADMiADMjAhBlw0ic86dp0TZvmylUGZGCkDCgACoAMyIAMyIAMTJgBJ33Ckz5SQ7VXz6hkQAZkoCYDCoACIAMyIAMyIAMTZsBJn/Cka9M1bbqz62MR8ZcR8a6I+KmIuDEirj3xT/46fy//X/6Z/LOd/y725vzIwG4y4EJ3s5OBPc3AQxHxgYi4PiI+J7Y/8s/mx+TH5hputgxkYD8z4OJ2g5OBPcvAIxHxqxHxvO1n/sY/mWvkWrmmIcBABvYrAy5qNzYZ2KMM/E5EfNnGcX74/5Fr5toGAAMZ2J8MuKDd1GRgDzKQL9V/7+Hn+9YfmY/h0wL7MwAM87nPpZv/Htz8XcRzX8T/FhFft/UIP/ofzMfKx5Q7BjIwdgZcxG5kMjBwBu469jn6y48+0895hXzMfGwDgIEMjJsBF7CbmAwMmoGPR8SV5zy6d/cB+di5BwOAgQyMmQEXrxuYDAyYgfyq/JfubpYfeqXcg+8QGPPmb2g7b27+A978Xbgu3DcdemTv/gNzLzLJQAbGy4AL181LBgbLwB0Rcf7u5/ihV8y95J4MAAYyMFYGXLRuXDIwWAZefuhRXfeBuSc3fwYyMFYGXLRuXDIwUAY+WDfDj7xy7s0AYCAD42TABeumJQMDZeAlRx7TdQvk3tz8GcjAOBlwwbppycAgGbi/2ef+D1aJ/FqA3KMBwEAGxsiAi9UNSwYGycAtByduw//OPbr5M5CBMTLgYnXDkoFBMvCKhgP/4JZyj27+DGRgjAy4WN2wZGCADDwWERcdnLYN/zv3mHs1ABjIQP8MuFDdrGRggAw80HDYb9pS7tXNn4EM9M+AC9XNSgYGyMCHN03bhr+fe3XzZyAD/TPgQnWzkoEBMnBbw0G/aUu5Vzd/BjLQPwM+X+dm5WY9QAbesWnaNvz93KubPwMZ6J2B/Fqd8Pm63ifJReT8ZAbe23DQb9pS7lVuGchA7wwc/7qiv3WxulnJQPsM/Pmmadvw93Ovbv4MZKB3BnL2x++6WN2sZKB9Bu5tOOg3bSn36ubPQAZ6ZyBnf/yKi9XNSgbaZ+DhiDhv08Rt9Pu5x9yrmz8DGeidgZz98RYXq5uVDAyRgRc0GvSbtpJ7dONnIAP9M5CzP653wbphycAQGXjrpqnb6Pdzj27+DGSgfwZy9of37u5/olxMzlFm4O8aDfpNW8k9yisDGeifgeM/W+QrXLBuWDIwTAa+cNPkbfD7uTc3fgYyMEYGcvbHMyLi/1y4blwyMEQG3tZg0G/aQu7NzZ+BDPTPQM78nP3Hjw+6cN24ZGCIDDwUEV9w8sJt9O/cU+7NzZ+BDPTPQM78U8eNLlw3LhkYJgPvPnXl9vlF7smNn4EMjJGBnPmnjitcvG5eMjBMBvI9vL/q1NW7/i9yL7knN38GMjBGBnLmP+7wIzzHOHEuMOcpM3BfRFz2uCt4nf/IPeRe5JKBDIyRgSf90eLeEGiMk+cic55OZiDfc//Cdeb+8UfNx/a+//J4Mo/+PUYWjr8B0MH7hnfwGuPkucicp9MzkJ97P//gxbzAf+dj+ry/LJ6eRb8eIw8b31HUS3ljnEAXmvN0egZ+OyIuXWDon3yIfKx8zNP34Nc8ZKB/BnLGbzx+zEXtpiYDQ2bgzohY4k2C8jHysdzsGcjAeBnIGb/x+MyIeMDF7eYmA0Nm4D8i4juLfmpg/pS/XDsfw42fgQyMl4Gc7Tnjz3jc4AJ3g5OBoTPwNxHxTWe8ys/tf+ZauaabPgMZGDcDOdvPejz1WNO/x8XuZicDw2fgDyPidRHxzLNe9U/8A/kx+bG5hps+AxkYOwM503O2b3Vc66J305OBvcnAIxHxxxFxU0R8S0RcExGffeJTBfnSfv46fy//X/6Z/LP5MW76DGRgPzKQM/2cDt/fux8n3gXsPG7KQP5AED8ITD425cPv70c2cpaf8/EizwA8A5IBGZABGZCBoTOQs/xQx3uc+KFPvAa/Hw3eeXQeZUAGDpOBnOGHPi6JiDuUACVABmRABmRABobKQM7unOFHOj4/Iv7diR/qxB+mKfoYzzBkQAZkYD8ykDM7Z/dOjhdHxMNKgBIgAzIgAzIgA60zkLM6Z/ZOjzc66a1Puua+H83deXQeZUAGjpKBnNUlx9uVACVABmRABmRABlpmIGd02fGUiLjdiW954o/SGH2sZxwyIAMyMHYGcjbnjC49Ljz2U8fepQQoATIgAzIgAzLQIgM5k3M2L3a8OSIedfJbnHzNfezm7vw5fzIgA4fJQM7gnMWrHPne4Z9UApQAGZABGZABGVg0Azl7cwavenyJnx646Ek/TEv0MZ5dyIAMyMD+ZCB/ul/O3hbHZ/niQCVA+5cBGZABGSjPQH6xX87cVscFEfHdEfFRASgPgCa/P03euXQuZUAGtslAztacsTlr2x4XH3vXwB/xtQFKgCIoAzIgAzJw5Azk5/pzpuZsHeZ4dkT8orcQPvLJ36YZ+jOeQciADMjAfmUg39I3Z2jO0mGPLzr2xQq/HhGPaYLKgAzIgAzIgAycMQM5K3Nm5uzcm+N5EfF9EfEHXhU448nX4verxTufzqcMyMDZMpDP9nM25ozMWbnXxzMi4tUnWs6D2qBCIAMyIAMyMFkGcvblM/2chTkTpzw+IyJeHhFvjYhbIuK2iLgjIvLnGfu0geZ8tubs/8uIDMhA1wzkDMtZljMtZ1vOuJx1OfNy9jnOIJBAV0TE10TEt0bEdf5hsOMMPDTZs46uN8o19pU3Z/cUBrvOQM6qnFk5uwz5Mwx4/4vAmgL5k7PWGDwes4/709cMoMcmQIAAgXUEnqMATF+ALl8neh6VAAECBNYUuEoBmL4AXL1mAD02AQIECKwj8EIFYPoC8A3rRM+jEiBAgMCaAt+sAExfAF61ZgA9NgECBAisI/AdCsD0BeAN60TPoxIgQIDAmgI3KADTF4AfXDOAHpsAAQIE1hH4UQVg+gLwE+tEz6MSIECAwJoCP68ATF8AfmnNAHpsAgQIEFhH4J0KwPQF4D3rRM+jEiBAgMCaAu9TAKYvAL+/ZgA9NgECBAisI/CnCsD0BeCv1omeRyVAgACBNQXuVACmLwD3rBlAj02AAAEC6wh8TAGYvgB8fJ3oeVQCBAgQWEvgUsN/+uF/8qcyPmutEHpcAgQIEFhe4KsVAAXgRAa+fvn4eUQCBAgQWEvguxQABeBEBq5fK4QelwABAgSWF7hZAVAATmTgbcvHzyMSIECAwFoC71cAFIATGbh9rRB6XAIECBBYXuCfFAAF4EQGPrJ8/DwiAQIECKwhcHFEPKYAKACnZeAZawTRYxIgQIDAsgIvOO3Gf/Jbwfw7pi4EL1w2gh6NAAECBNYQeI0CMPWwf7Ky94Y1gugxCRAgQGBZgZ9UABSAAxn42WUj6NEIECBAYA2B3zpw83+yZ4R+b65PCdy2RhA9JgECBAgsK3C3AuAVgAMZ+JdlI+jRCBAgQGBpgQsj4pEDN3/P9ud6tv9k5zu/K+SSpcPo8QgQIEBgOYGrDX/P/jdk4CuXi6FHIkCAAIGlBa7bcPN/smeFfm+uVwZeu3QYPR4BAgQILCfgOwDmGurnUuJ+ZrkYeiQCBAgQWFrgL7wC4FMAGzLw10uH0eMRIECAwDIC+XavvgDQKwCbXhXILwR89jJR9CgECBAgsKTAKzc889s0EPz+fGXh25cMpMciQIAAgWUE3q4AePn/LBm4ZZkoehQCBAgQWFLgrrPc/D3jn+8Z/8Fzfu+SgfRYBAgQIFAvcLnh79n/lhm4qj6OHoEAAQIElhJ4/ZY3/4PPCP33fK8K3LBUKD0OAQIECNQL/KYC4BWALTPwe/Vx9AgECBAgsITAsyLioS1v/p7xz/eM/+A5z28V/dwlgukxCBAgQKBW4PsNf8/+zzEDP1QbSasTIECAwBICHzrHm//BZ4T+e75XBf7k6ZT0AAAFC0lEQVR+iWB6DAIECBCoE3i+4e/Z/yEz8OV1sbQyAQIECFQL5A948QyewWEy8AvV4bQ+AQIECNQIXBARH1MAFKBDZuD+iHhKTTStSoAAAQKVAt773zP/wzzzP/1jXlUZUGsTIECAwO4FzouIDx/ymd/pA8Cv5y4RmaHMkoMAAQIEBhG4zvD30v+OMvDqQTJvmwQIEJheID9ve/eObv5eAZj7FYA8//f4WoDp7ykACBAYROB7DH/P/necgTcOkn3bJECAwLQCF0bEv+745u9VAK8CfCQinjbtVeUvToAAgQEEbjL8PfsvyoC3Bx7gBmCLBAjMKXBlRHyy6ObvVQCvAjwYEV8856Xlb02AAIG+Ahf5tj/P/Bcof/kzAi7uexnYGQECBOYTuGWBm79XAbwKkBn4tfkuL39jAgQI9BR4neHv2f/CGcjvNHEQIECAwIoC+dP+PrXwzd8rAV4J+N+IuGbF3HtoAgQITC3w3Ij4B8Pfs/+VMvCPEXH51FegvzwBAgRWEMhn/vetdOP3CoBXAE5m4KMRcfUK+feQBAgQmFLgGyPiE4a/Z/5NMpDfevrSKa9Ef2kCBAgsJHBBRNwYEQ83ufGffBbo314RyExmNjOjDgIECBDYocDLIuJOg9+z/uYZyIxmVh0ECBAgcASBfDb14oj4QPObvlcAvAJwMAOZ2cyuVwSOcAPwoQQIzCNwXkRcFhHXRcS7I+I/DX7P+AfPQGY4s5yZzmxnxh0ECBCYUiCfEX1pRLwmIn4uIt4fER+KiPxpaz6375n0wWfS+/bfmfHMemY+s5/XQF4LeU14tWDKW6K/NIH9F7g0In7Zm/Z4Rj/4M/rKQpJvaJXXSF4rDgIECOyFQH4u9J/d+A1/GdgqA3mt5DXjIECAwNACPxwRj7rxb3Xjr3x2ae2xPr2S10xeOw4CBAgMKZDPYgz/sQaPotDnfOW145WAIW99Nk1gboH8PKaX/fsME4N9zHOR15CvCZj7XupvT2A4gfxiJkOHgQwcPQN5LTkIECAwhEB+O5Mf0Xv0G7/hyTAzkNeSbxEc4tZnkwQI5Pc0G14MZGB3GchrykGAAIH2AvnGJm7+DGRgdxnIa8pBgACB9gL57mZu/gxkYHcZyGvKQYAAgfYCCsDubvyGKMvMgALQ/rZngwQIpIBPARhaistuM+BTAO6tBAgMIeCLAHd78zdMefoiwCFufTZJgIBvAzSwlJbdZcC3AbqnEiAwlIA3AtrdADBM57b0RkBD3fpslgABbwU899BSWnZz/r0VsHspAQJDCvhhQLsZAobpnI5+GNCQtz2bJkDgpIAfBzzn8FJajnbe/Tjgk3cQ/yZAYGiBfCXATwY82kAwUOfxy2vFjwEe+pZn8wQInC6QXxOQX8zkhwTNM8iUlnM713lt5DXix/+efufwawIE9kYgv0Uwv6c539gk393sVv8wmDgDeQ3ktZDXhJ/4tze3OX8RAgQIECBAgAABAgQIECBAgAABAgQIECBAgAABAgQIECBAgAABAgQIECBAgAABAgQIECBAgAABAgQIECBAgAABAgQIECBAgAABAgQIECBAgAABAgQIECBAgAABAgQIECBAgAABAgQIECBAgAABAgQIECBAgAABAgQIECBAgAABAgQIECBAgAABAgQIECBAgAABAgQIECBAgAABAgQIECBAgAABAgQIECBAgAABAgQIECBAgAABAgQIECBAYFGB/weYp6W9gz/P9AAAAABJRU5ErkJggg==;" vertex="1" parent="1">
          <mxGeometry x="280" y="320" width="40" height="40" as="geometry" />
        </mxCell>
        <mxCell id="tM-sLUK_iXSUUSvi_UQe-19" value="" style="shape=image;verticalLabelPosition=bottom;labelBackgroundColor=default;verticalAlign=top;aspect=fixed;imageAspect=0;image=data:image/png,iVBORw0KGgoAAAANSUhEUgAAAgAAAAIACAYAAAD0eNT6AAAAAXNSR0IArs4c6QAAIABJREFUeAHt3WusZWdZB/CnLVjaUolcrEJqvaQ1KmkqXoKKYAwGNCEB02hRAoJKE1MbqvJBEz+Al2g1Kob4QWtAQkI1wYhiUSuaaOItqFT7obbx0grBVkWoQdPaFueZzEymp90ze87Zz1rPu9/fSppOp3Pe/c5v/dd6/nufc/aJcBAgQIAAAQIECBAgQIAAAQIECBAgQIAAAQIECBAgQIAAAQIECBAgQIAAAQIECBAgQIAAAQIECBAgQIAAAQIECBAgQIAAAQIECBAgQIAAAQIECBAgQIAAAQIECBAgQIAAAQIECBAgQIAAAQIECBAgQIAAAQIECBAgQIAAAQIECBAgQIAAAQIECBAgQIAAAQIECBAgQIAAAQIECBAgQIAAAQIECBAgQIAAAQIECBAgQIAAAQIECBAgQIAAAQJlAk+PiCsj4iURcV1E3BQRN0fEuyLiVv8wkAEZkAEZaJyBnFU5s3J25QzLWZYzLWeb4zSBiyPilRHxzoi4OyL+OyI+7R8GMiADMiADe5iBnHE563Lm5ezLGTjV8ZyIeH1EvC8i/mcPT7ACo8TJgAzIgAxsk4GcgTkLcybmbNzL45kR8QMR8ScR8aihr9nLgAzIgAzIwOMykLMxZ2TOypyZwx9Pi4g3R8R/OdGPO9HbNEN/xjMIGZABGZgzAzkzc3bmDB3uOD8iXnvsZY17DX6DXwZkQAZkQAYOlYGcoTlLc6YOcbzs2Bc3fNjJPtTJ1vbnbPvOu/MuAzJwpgzkTM3Z2va4KiJuN/gNfhmQARmQARkoyUDO2Jy1rY6XR8QnnPCSE36mVuj/edYgAzIgA3NlIGdtztwWR37F4iOGv+EvAzIgAzIgA4tkIGduzt7Vjgsj4h1O9iInW8Ofq+E73863DMjANhnIGZyzeNHjsoj4M8Pf8JcBGZABGZCBVTOQszhn8iLHNRFxnxO+6gnfphn6M55ByIAMyMAcGciZnLO59LgiIh4w/A1/GZABGZABGWiVgZzNOaNLjkt8f3+rk63Zz9HsnWfnWQZkYNsM5PsF5Kze6XFeRLxX21MAZEAGZEAGZKB1BnJW58ze2fEWJ7z1Cd+2HfpznknIgAzIwP5nIGf2To5rI+IxBUABkAEZkAEZkIEhMpAzO2f3kY78qsJPOeFDnHCtfv9bvXPsHMuADGybgZzdh/7OgKdGxN2Gv+EvAzIgAzIgA0NmIGd4zvJzPm5wwoc84du2Q3/OMwkZkAEZ2P8M5Cw/p+NS3+9v+CuAMiADMiADw2cg3x8gZ/rWx4876cOfdM1+/5u9c+wcy4AMbJOBnOlbHc/1hX+GvwIoAzIgAzKwNxnILwjM2X7W4xYnfW9O+jbN0J/xDEIGZEAG9j8DOdvPeDw/IvLnDAsDAxmQARmQARnYnwzkbM8Zv/H4DcNf+ZEBGZABGZCBvcxAzvgnPS7yuf+9POEa/P40eOfSuZQBGThKBvJrAXLWP+F4hcanAMiADMiADMjAXmcgZ/0TDl/8p1kepVn6WPmRARmQgf4ZeMIXA54fEfdrfXvd+lyY/S9M58g5kgEZqM5Azvqc+aeOrzX8DX8ZkAEZkAEZmCIDOfNPHT/tpE9x0qubpfU9e5EBGZCB/hnImX/quEsBUABkQAZkQAZkYIoM5Mw/fnyeEz7FCdfK+7dy58g5kgEZWCoDOfvjRQqAAiADMiADMiADU2UgZ398m5M+1Ulfql16HM9kZEAGZKBvBnL2x5sUAAVABmRABmRABqbKQM7+uNlJn+qka+R9G7lz49zIgAwslYGc/fFuBUABkAEZkAEZkIGpMpCzP/7ISZ/qpC/VLj2OZzIyIAMy0DcDOfvDewD0PUEuHudGBmRABmSgIgPH3wvgQa8AeAVABmRABmRABqbKQM7+Yf7Ct+ZmHQQIECBAoLFAzqqKZ+wVaw6zUQWgceJtjQABAgSOCygABQ1IAXB1ESBAgEB3AQVAAeieUfsjQIAAgQIBBUABKIiVJQkQIECgu4ACoAB0z6j9ESBAgECBgAKgABTEypIECBAg0F1AAVAAumfU/ggQIECgQEABUAAKYmVJAgQIEOguoAAoAN0zan8ECBAgUCCgACgABbGyJAECBAh0F1AAFIDuGbU/AgQIECgQUAAUgIJYWZIAAQIEugsoAApA94zaHwECBAgUCCgACkBBrCxJgAABAt0FFAAFoHtG7Y8AAQIECgQUAAWgIFaWJECAAIHuAgqAAtA9o/ZHgAABAgUCCoACUBArSxIgQIBAdwEFQAHonlH7I0CAAIECAQVAASiIlSUJECBAoLuAAqAAdM+o/REgQIBAgYACoAAUxMqSBAgQINBdQAFQALpn1P4IECBAoEBAAVAACmJlSQIECBDoLqAAKADdM2p/BAgQIFAgoAAoAAWxsiQBAgQIdBdQABSA7hm1PwIECBAoEFAAFICCWFmSAAECBLoLKAAKQPeM2h8BAgQIFAgoAApAQawsSYAAAQLdBRQABaB7Ru2PAAECBAoEFAAFoCBWliRAgACB7gIKgALQPaP2R4AAAQIFAgqAAlAQK0sSIECAQHcBBUAB6J5R+yNAgACBAgEFQAEoiJUlCRAgQKC7gAKgAHTPqP0RIECAQIGAAqAAFMTKkgQIECDQXUABUAC6Z9T+CBAgQKBAQAFQAApiZUkCBAgQ6C6gACgA3TNqfwQIECBQIKAAKAAFsbIkAQIECHQXUAAUgO4ZtT8CBAgQKBBQABSAglhZkgABAgS6CygACkD3jNofAQIECBQIKAAKQEGsLEmAAAEC3QUUAAWge0btjwABAgQKBBQABaAgVpYkQIAAge4CCoAC0D2j9keAAAECBQIKgAJQECtLEiBAgEB3AQVAAeieUfsjQIAAgQIBBUABKIiVJQkQIECgu4ACoAB0z6j9ESBAgECBgAKgABTEypIECBAg0F1AAVAAumfU/ggQIECgQEABUAAKYmVJAgQIEOguoAAoAN0zan8ECBAgUCCgACgABbGyJAECBAh0F1AAFIDuGbU/AgQIECgQUAAUgIJYWZIAAQIEugsoAApA94zaHwECBAgUCCgACkBBrCxJgAABAt0FFAAFoHtG7Y8AAQIECgQUAAWgIFaWJECAAIHuAgqAAtA9o/ZHgAABAgUCCoACUBArSxIgQIBAdwEFQAHonlH7I0CAAIECAQVAASiIlSUJECBAoLuAAqAAdM+o/REgQIBAgYACoAAUxMqSBAgQINBdQAFQALpn1P4IECBAoEBAAVAACmJlSQIECBDoLqAAKADdM2p/BAgQIFAgoAAoAAWxsiQBAgQIdBdQABSA7hm1PwIECBAoEFAAFICCWFmSAAECBLoLKAAKQPeM2h8BAgQIFAgoAApAQawsSYAAAQLdBRQABaB7Ru2PAAECBAoEFAAFoCBWliRAgACB7gIKgALQPaP2R4AAAQIFAgqAAlAQK0sSIECAQHcBBUAB6J5R+yNAgACBAgEFQAEoiJUlCRAgQKC7gAKgAHTPqP0RIECAQIGAAqAAFMTKkgQIECDQXUABUAC6Z9T+CBAgQKBAQAFQAApiZUkCBAgQ6C6gACgA3TNqfwQIECBQIKAAKAAFsbIkAQIECHQXUAAUgO4ZtT8CBAgQKBBQABSAglhZkgABAgS6CygACkD3jNofAQIECBQIKAAKQEGsLEmAAAEC3QUUAAWge0btjwABAgQKBBQABaAgVpYkQIAAge4CCoAC0D2j9keAAAECBQIKgAJQECtLEiBAgEB3AQVAAeieUfsjQIAAgQIBBUABKIiVJQkQIECgu4ACoAB0z6j9ESBAgECBgAKgABTEypIECBAg0F1AAVAAumfU/ggQIECgQEABUAAKYmVJAgQIEOguoAAoAN0zan8ECBAgUCCgACgABbGyJAECBAh0F1AAFIDuGbU/AgQIECgQUAAUgIJYWZIAAQIEugsoAApA94zaHwECBAgUCCgACkBBrCxJgAABAt0FFAAFoHtG7Y8AAQIECgQUAAWgIFaWJECAAIHuAgqAAtA9o/ZHgAABAgUCCoACUBArSxIgQIBAdwEFQAHonlH7I0CAAIECAQVAASiIlSUJECBAoLuAAqAAdM+o/REgQIBAgYACoAAUxMqSBAgQINBdQAFQALpn1P4IECBAoEBAAVAACmJlSQIECBDoLqAAKADdM2p/BAgQIFAgoAAoAAWxsiQBAgQIdBdQABSA7hm1PwIECBAoEFAAFICCWFmSAAECBLoLKAAKQPeM2h8BAgQIFAgoAApAQawsSYAAAQLdBRQABaB7Ru2PAAECBAoEFAAFoCBWliRAgACB7gIKgALQPaP2R4AAAQIFAgqAAlAQK0sSIECAQHcBBUAB6J5R+yNAgACBAgEFQAEoiJUlCRAgQKC7gAKgAHTPqP0RIECAQIGAAqAAFMTKkgQIECDQXUABUAC6Z9T+CBAgQKBAQAFQAApiZUkCBAgQ6C6gACgA3TNqfwQIECBQIKAAKAAFsbIkAQIECHQXUAAUgO4ZtT8CBAgQKBBQABSAglhZkgABAgS6CygACkD3jNofAQIECBQIKAAKQEGsLEmAAAEC3QUUAAWge0btjwABAgQKBBQABaAgVpYkQIAAge4CCoAC0D2j9keAAAECBQIKgAJQECtLEiBAgEB3AQVAAeieUfsjQIAAgQIBBUABKIiVJQkQIECgu4ACoAB0z6j9ESBAgECBgAKgABTEypIECBAg0F1AAVAAumfU/ggQIECgQEABUAAKYmVJAgQIEOguoAAoAN0zan8ECBAgUCCgACgABbGyJAECBAh0F1AAFIDuGbU/AgQIECgQUAAUgIJYWZIAAQIEugsoAApA94zaHwECBAgUCCgACkBBrCxJgAABAt0FFAAFoHtG7Y8AAQIECgQUAAWgIFaWJECAAIHuAgqAAtA9o/ZHgAABAgUCCoACUBArSxIgQIBAdwEFQAHonlH7I0CAAIECAQVAASiIlSUJECBAoLuAAqAAdM+o/REgQIBAgYACoAAUxMqSBAgQINBdQAFQALpn1P4IECBAoEBAAVAACmJlSQIECBDoLqAAKADdM2p/BAgQIFAgoAAoAAWxsiQBAgQIdBdQABSA7hm1PwIECBAoEFAAFICCWFmSAAECBLoLKAAKQPeM2h8BAgQIFAgoAApAQawsSYAAAQLdBRQABaB7Ru2PAAECBAoEFAAFoCBWliRAgACB7gIKgALQPaP2R4AAAQIFAgqAAlAQK0sSIECAQHcBBUAB6J5R+yNAgACBAgEFQAEoiJUlCRAgQKC7gAKgAHTPqP0RIECAQIGAAqAAFMTKkgQIECDQXUABUAC6Z9T+CBAgQKBAQAFQAApiZUkCBAgQ6C6gACgA3TNqfwQIECBQIKAAKAAFsbIkAQIECHQXUAAUgO4ZtT8CBAgQKBBQABSAglhZkgABAgS6CygACkD3jNofAQIECBQIKAAKQEGsLEmAAAEC3QUUAAWge0btjwABAgQKBBQABaAgVpYkQIAAge4CCoAC0D2j9keAAAECBQIKgAJQECtLEiBAgEB3AQVAAeieUfsjQIAAgQIBBUABKIiVJQkQIECgu4ACoAB0z6j9ESBAgECBgAKgABTEypIECBAg0F1AAVAAumfU/ggQIECgQEABUAAKYmVJAgQIEOguoAAoAN0zan8ECBAgUCCgACgABbGyJAECBAh0F1AAFIDuGbU/AgQIECgQUAAUgIJYWZIAAQIEugsoAApA94zaHwECBAgUCCgACkBBrCxJgAABAt0FFAAFoHtG7Y8AAQIECgQUAAWgIFaWJECAAIHuAgqAAtA9o/ZHgAABAgUCCoACUBArSxIgQIBAdwEFQAHonlH7I0CAAIECAQVAASiIlSUJECBAoLuAAqAAdM+o/REgQIBAgYACoAAUxMqSBAgQINBdQAFQALpn1P4IECBAoEBAAVAACmJlSQIECBDoLqAAKADdM2p/BAgQIFAgoAAoAAWxsiQBAgQIdBdQABSA7hm1PwIECBAoEFAAFICCWFmSAAECBLoLKAAKQPeM2h8BAgQIFAgoAApAQawsSYAAAQLdBRQABaB7Ru2PAAECBAoEFAAFoCBWliRAgACB7gIKgALQPaP2R4AAAQIFAgqAAlAQK0sSIECAQHcBBUAB6J5R+yNAgACBAgEFQAEoiJUlCRAgQKC7gAKgAHTPqP0RIECAQIGAAqAAFMTKkgQIECDQXUABUAC6Z9T+CBAgQKBAQAFQAApiZUkCBAgQ6C6gACgA3TNqfwQIECBQIKAAKAAFsbIkAQIECHQXUAAUgO4ZtT8CBAgQKBBQABSAglhZkgABAgS6CygACkD3jNofAQIECBQIKAAKQEGsLEmAAAEC3QUUAAWge0btjwABAgQKBBQABaAgVpYkQIAAge4CCoAC0D2j9keAAAECBQIKgAJQECtLEiBAgEB3AQVAAeieUfsjQIAAgQIBBUABKIiVJQkQIECgu4ACoAB0z6j9ESBAgECBgAKgABTEypIECBAg0F1AAVAAumfU/ggQIECgQEABUAAKYmVJAgQIEOguoAAoAN0zan8ECBAgUCCgACgABbGyJAECBAh0F1AAFIDuGbU/AgQIECgQUAAUgIJYWZIAAQIEugsoAApA94zaHwECBAgUCCgACkBBrCxJgAABAt0FFAAFoHtG7Y8AAQIECgQUgIIC8GlrBoNg4DqQARmQgR1lAOSOIA1nw1kGZEAGZGCkDCgACoAMyIAMyIAMTJgBJ33Ckz5SQ7VXz6hkQAZkoCYDCoACIAMyIAMyIAMTZsBJn/Cka9M1bZorVxmQgZEyoAAoADIgAzIgAzIwYQac9AlP+kgN1V49o5IBGZCBmgwoAAqADMiADMiADEyYASd9wpOuTde0aa5cZUAGRsqAAqAAyIAMyIAMyMCEGXDSJzzpIzVUe/WMSgZkQAZqMqAAKAAyIAMyIAMyMGEGnPQJT7o2XdOmuXKVARkYKQMKgAIgAzIgAzIgAxNmwEmf8KSP1FDt1TMqGZABGajJgAKgAMiADMiADMjAhBlw0ic86dp0TZvmylUGZGCkDCgACoAMyIAMyIAMTJgBJ33Ckz5SQ7VXz6hkQAZkoCYDCoACIAMyIAMyIAMTZsBJn/Cka9M1bbqz62MR8ZcR8a6I+KmIuDEirj3xT/46fy//X/6Z/LOd/y725vzIwG4y4EJ3s5OBPc3AQxHxgYi4PiI+J7Y/8s/mx+TH5hputgxkYD8z4OJ2g5OBPcvAIxHxqxHxvO1n/sY/mWvkWrmmIcBABvYrAy5qNzYZ2KMM/E5EfNnGcX74/5Fr5toGAAMZ2J8MuKDd1GRgDzKQL9V/7+Hn+9YfmY/h0wL7MwAM87nPpZv/Htz8XcRzX8T/FhFft/UIP/ofzMfKx5Q7BjIwdgZcxG5kMjBwBu469jn6y48+0895hXzMfGwDgIEMjJsBF7CbmAwMmoGPR8SV5zy6d/cB+di5BwOAgQyMmQEXrxuYDAyYgfyq/JfubpYfeqXcg+8QGPPmb2g7b27+A978Xbgu3DcdemTv/gNzLzLJQAbGy4AL181LBgbLwB0Rcf7u5/ihV8y95J4MAAYyMFYGXLRuXDIwWAZefuhRXfeBuSc3fwYyMFYGXLRuXDIwUAY+WDfDj7xy7s0AYCAD42TABeumJQMDZeAlRx7TdQvk3tz8GcjAOBlwwbppycAgGbi/2ef+D1aJ/FqA3KMBwEAGxsiAi9UNSwYGycAtByduw//OPbr5M5CBMTLgYnXDkoFBMvCKhgP/4JZyj27+DGRgjAy4WN2wZGCADDwWERcdnLYN/zv3mHs1ABjIQP8MuFDdrGRggAw80HDYb9pS7tXNn4EM9M+AC9XNSgYGyMCHN03bhr+fe3XzZyAD/TPgQnWzkoEBMnBbw0G/aUu5Vzd/BjLQPwM+X+dm5WY9QAbesWnaNvz93KubPwMZ6J2B/Fqd8Pm63ifJReT8ZAbe23DQb9pS7lVuGchA7wwc/7qiv3WxulnJQPsM/Pmmadvw93Ovbv4MZKB3BnL2x++6WN2sZKB9Bu5tOOg3bSn36ubPQAZ6ZyBnf/yKi9XNSgbaZ+DhiDhv08Rt9Pu5x9yrmz8DGeidgZz98RYXq5uVDAyRgRc0GvSbtpJ7dONnIAP9M5CzP653wbphycAQGXjrpqnb6Pdzj27+DGSgfwZy9of37u5/olxMzlFm4O8aDfpNW8k9yisDGeifgeM/W+QrXLBuWDIwTAa+cNPkbfD7uTc3fgYyMEYGcvbHMyLi/1y4blwyMEQG3tZg0G/aQu7NzZ+BDPTPQM78nP3Hjw+6cN24ZGCIDDwUEV9w8sJt9O/cU+7NzZ+BDPTPQM78U8eNLlw3LhkYJgPvPnXl9vlF7smNn4EMjJGBnPmnjitcvG5eMjBMBvI9vL/q1NW7/i9yL7knN38GMjBGBnLmP+7wIzzHOHEuMOcpM3BfRFz2uCt4nf/IPeRe5JKBDIyRgSf90eLeEGiMk+cic55OZiDfc//Cdeb+8UfNx/a+//J4Mo/+PUYWjr8B0MH7hnfwGuPkucicp9MzkJ97P//gxbzAf+dj+ry/LJ6eRb8eIw8b31HUS3ljnEAXmvN0egZ+OyIuXWDon3yIfKx8zNP34Nc8ZKB/BnLGbzx+zEXtpiYDQ2bgzohY4k2C8jHysdzsGcjAeBnIGb/x+MyIeMDF7eYmA0Nm4D8i4juLfmpg/pS/XDsfw42fgQyMl4Gc7Tnjz3jc4AJ3g5OBoTPwNxHxTWe8ys/tf+ZauaabPgMZGDcDOdvPejz1WNO/x8XuZicDw2fgDyPidRHxzLNe9U/8A/kx+bG5hps+AxkYOwM503O2b3Vc66J305OBvcnAIxHxxxFxU0R8S0RcExGffeJTBfnSfv46fy//X/6Z/LP5MW76DGRgPzKQM/2cDt/fux8n3gXsPG7KQP5AED8ITD425cPv70c2cpaf8/EizwA8A5IBGZABGZCBoTOQs/xQx3uc+KFPvAa/Hw3eeXQeZUAGDpOBnOGHPi6JiDuUACVABmRABmRABobKQM7unOFHOj4/Iv7diR/qxB+mKfoYzzBkQAZkYD8ykDM7Z/dOjhdHxMNKgBIgAzIgAzIgA60zkLM6Z/ZOjzc66a1Puua+H83deXQeZUAGjpKBnNUlx9uVACVABmRABmRABlpmIGd02fGUiLjdiW954o/SGH2sZxwyIAMyMHYGcjbnjC49Ljz2U8fepQQoATIgAzIgAzLQIgM5k3M2L3a8OSIedfJbnHzNfezm7vw5fzIgA4fJQM7gnMWrHPne4Z9UApQAGZABGZABGVg0Azl7cwavenyJnx646Ek/TEv0MZ5dyIAMyMD+ZCB/ul/O3hbHZ/niQCVA+5cBGZABGSjPQH6xX87cVscFEfHdEfFRASgPgCa/P03euXQuZUAGtslAztacsTlr2x4XH3vXwB/xtQFKgCIoAzIgAzJw5Azk5/pzpuZsHeZ4dkT8orcQPvLJ36YZ+jOeQciADMjAfmUg39I3Z2jO0mGPLzr2xQq/HhGPaYLKgAzIgAzIgAycMQM5K3Nm5uzcm+N5EfF9EfEHXhU448nX4verxTufzqcMyMDZMpDP9nM25ozMWbnXxzMi4tUnWs6D2qBCIAMyIAMyMFkGcvblM/2chTkTpzw+IyJeHhFvjYhbIuK2iLgjIvLnGfu0geZ8tubs/8uIDMhA1wzkDMtZljMtZ1vOuJx1OfNy9jnOIJBAV0TE10TEt0bEdf5hsOMMPDTZs46uN8o19pU3Z/cUBrvOQM6qnFk5uwz5Mwx4/4vAmgL5k7PWGDwes4/709cMoMcmQIAAgXUEnqMATF+ALl8neh6VAAECBNYUuEoBmL4AXL1mAD02AQIECKwj8EIFYPoC8A3rRM+jEiBAgMCaAt+sAExfAF61ZgA9NgECBAisI/AdCsD0BeAN60TPoxIgQIDAmgI3KADTF4AfXDOAHpsAAQIE1hH4UQVg+gLwE+tEz6MSIECAwJoCP68ATF8AfmnNAHpsAgQIEFhH4J0KwPQF4D3rRM+jEiBAgMCaAu9TAKYvAL+/ZgA9NgECBAisI/CnCsD0BeCv1omeRyVAgACBNQXuVACmLwD3rBlAj02AAAEC6wh8TAGYvgB8fJ3oeVQCBAgQWEvgUsN/+uF/8qcyPmutEHpcAgQIEFhe4KsVAAXgRAa+fvn4eUQCBAgQWEvguxQABeBEBq5fK4QelwABAgSWF7hZAVAATmTgbcvHzyMSIECAwFoC71cAFIATGbh9rRB6XAIECBBYXuCfFAAF4EQGPrJ8/DwiAQIECKwhcHFEPKYAKACnZeAZawTRYxIgQIDAsgIvOO3Gf/Jbwfw7pi4EL1w2gh6NAAECBNYQeI0CMPWwf7Ky94Y1gugxCRAgQGBZgZ9UABSAAxn42WUj6NEIECBAYA2B3zpw83+yZ4R+b65PCdy2RhA9JgECBAgsK3C3AuAVgAMZ+JdlI+jRCBAgQGBpgQsj4pEDN3/P9ud6tv9k5zu/K+SSpcPo8QgQIEBgOYGrDX/P/jdk4CuXi6FHIkCAAIGlBa7bcPN/smeFfm+uVwZeu3QYPR4BAgQILCfgOwDmGurnUuJ+ZrkYeiQCBAgQWFrgL7wC4FMAGzLw10uH0eMRIECAwDIC+XavvgDQKwCbXhXILwR89jJR9CgECBAgsKTAKzc889s0EPz+fGXh25cMpMciQIAAgWUE3q4AePn/LBm4ZZkoehQCBAgQWFLgrrPc/D3jn+8Z/8Fzfu+SgfRYBAgQIFAvcLnh79n/lhm4qj6OHoEAAQIElhJ4/ZY3/4PPCP33fK8K3LBUKD0OAQIECNQL/KYC4BWALTPwe/Vx9AgECBAgsITAsyLioS1v/p7xz/eM/+A5z28V/dwlgukxCBAgQKBW4PsNf8/+zzEDP1QbSasTIECAwBICHzrHm//BZ4T+e75XBf7k6ZT0AAAFC0lEQVR+iWB6DAIECBCoE3i+4e/Z/yEz8OV1sbQyAQIECFQL5A948QyewWEy8AvV4bQ+AQIECNQIXBARH1MAFKBDZuD+iHhKTTStSoAAAQKVAt773zP/wzzzP/1jXlUZUGsTIECAwO4FzouIDx/ymd/pA8Cv5y4RmaHMkoMAAQIEBhG4zvD30v+OMvDqQTJvmwQIEJheID9ve/eObv5eAZj7FYA8//f4WoDp7ykACBAYROB7DH/P/necgTcOkn3bJECAwLQCF0bEv+745u9VAK8CfCQinjbtVeUvToAAgQEEbjL8PfsvyoC3Bx7gBmCLBAjMKXBlRHyy6ObvVQCvAjwYEV8856Xlb02AAIG+Ahf5tj/P/Bcof/kzAi7uexnYGQECBOYTuGWBm79XAbwKkBn4tfkuL39jAgQI9BR4neHv2f/CGcjvNHEQIECAwIoC+dP+PrXwzd8rAV4J+N+IuGbF3HtoAgQITC3w3Ij4B8Pfs/+VMvCPEXH51FegvzwBAgRWEMhn/vetdOP3CoBXAE5m4KMRcfUK+feQBAgQmFLgGyPiE4a/Z/5NMpDfevrSKa9Ef2kCBAgsJHBBRNwYEQ83ufGffBbo314RyExmNjOjDgIECBDYocDLIuJOg9+z/uYZyIxmVh0ECBAgcASBfDb14oj4QPObvlcAvAJwMAOZ2cyuVwSOcAPwoQQIzCNwXkRcFhHXRcS7I+I/DX7P+AfPQGY4s5yZzmxnxh0ECBCYUiCfEX1pRLwmIn4uIt4fER+KiPxpaz6375n0wWfS+/bfmfHMemY+s5/XQF4LeU14tWDKW6K/NIH9F7g0In7Zm/Z4Rj/4M/rKQpJvaJXXSF4rDgIECOyFQH4u9J/d+A1/GdgqA3mt5DXjIECAwNACPxwRj7rxb3Xjr3x2ae2xPr2S10xeOw4CBAgMKZDPYgz/sQaPotDnfOW145WAIW99Nk1gboH8PKaX/fsME4N9zHOR15CvCZj7XupvT2A4gfxiJkOHgQwcPQN5LTkIECAwhEB+O5Mf0Xv0G7/hyTAzkNeSbxEc4tZnkwQI5Pc0G14MZGB3GchrykGAAIH2AvnGJm7+DGRgdxnIa8pBgACB9gL57mZu/gxkYHcZyGvKQYAAgfYCCsDubvyGKMvMgALQ/rZngwQIpIBPARhaistuM+BTAO6tBAgMIeCLAHd78zdMefoiwCFufTZJgIBvAzSwlJbdZcC3AbqnEiAwlIA3AtrdADBM57b0RkBD3fpslgABbwU899BSWnZz/r0VsHspAQJDCvhhQLsZAobpnI5+GNCQtz2bJkDgpIAfBzzn8FJajnbe/Tjgk3cQ/yZAYGiBfCXATwY82kAwUOfxy2vFjwEe+pZn8wQInC6QXxOQX8zkhwTNM8iUlnM713lt5DXix/+efufwawIE9kYgv0Uwv6c539gk393sVv8wmDgDeQ3ktZDXhJ/4tze3OX8RAgQIECBAgAABAgQIECBAgAABAgQIECBAgAABAgQIECBAgAABAgQIECBAgAABAgQIECBAgAABAgQIECBAgAABAgQIECBAgAABAgQIECBAgAABAgQIECBAgAABAgQIECBAgAABAgQIECBAgAABAgQIECBAgAABAgQIECBAgAABAgQIECBAgAABAgQIECBAgAABAgQIECBAgAABAgQIECBAgAABAgQIECBAgAABAgQIECBAgAABAgQIECBAYFGB/weYp6W9gz/P9AAAAABJRU5ErkJggg==;" vertex="1" parent="1">
          <mxGeometry x="280" y="240" width="40" height="40" as="geometry" />
        </mxCell>
      </root>
    </mxGraphModel>
  </diagram>
</mxfile>
